VelekaWorld-MediumItalic.ufo
<glyph name="exclam" format="2">
  <advance width="351"/>
  <unicode hex="0021"/>
  <outline>
    <contour>
      <point x="311" y="626.667" type="curve"/>
      <point x="311" y="626.667"/>
      <point x="215" y="275.667"/>
      <point x="187.333" y="182" type="curve"/>
      <point x="127.333" y="182" type="line"/>
      <point x="169" y="598.333" type="line" smooth="yes"/>
      <point x="173.667" y="651"/>
      <point x="201.667" y="684.333" name="n07"/>
      <point x="255" y="684.333" type="curve" smooth="yes"/>
      <point x="294" y="684.333"/>
      <point x="311" y="665.667"/>
    </contour>
    <contour>
      <point x="210.667" y="54.3333" type="curve" smooth="yes" name="n11"/>
      <point x="210.667" y="18.3333"/>
      <point x="180.667" y="-10"/>
      <point x="139.333" y="-10" type="curve" smooth="yes" name="n14"/>
      <point x="105.667" y="-10"/>
      <point x="71.6667" y="16"/>
      <point x="71.6667" y="55.6667" type="curve" smooth="yes" name="n17"/>
      <point x="71.6667" y="93.6667"/>
      <point x="101.333" y="122.333"/>
      <point x="139.667" y="122.333" type="curve" smooth="yes" name="n20"/>
      <point x="179" y="122.333"/>
      <point x="210.667" y="93.3333"/>
    </contour>
  </outline>
</glyph>
<glyph name="quotedbl" format="2">
  <advance width="346"/>
  <unicode hex="0022"/>
  <outline>
    <contour>
      <point x="391" y="673.667" type="curve" smooth="yes" name="n00"/>
      <point x="391" y="653.333"/>
      <point x="317.333" y="452.333"/>
      <point x="305.667" y="420.333" type="curve" name="n03"/>
      <point x="272" y="420.333" type="line"/>
      <point x="282.667" y="647" type="line" smooth="yes" name="n05"/>
      <point x="284.437" y="685.703"/>
      <point x="305.667" y="714" name="n07"/>
      <point x="347" y="714" type="curve" smooth="yes"/>
      <point x="372.667" y="714"/>
      <point x="391" y="700"/>
    </contour>
    <contour>
      <point x="218.333" y="673.667" type="curve" smooth="yes" name="n11"/>
      <point x="218.333" y="653.333"/>
      <point x="145.333" y="452.333"/>
      <point x="133.667" y="420.333" type="curve"/>
      <point x="100" y="420.333" type="line"/>
      <point x="111" y="647" type="line" smooth="yes" name="n16"/>
      <point x="113.221" y="685.655"/>
      <point x="133.667" y="714"/>
      <point x="175" y="714" type="curve" smooth="yes"/>
      <point x="200" y="714"/>
      <point x="218.333" y="700"/>
    </contour>
  </outline>
</glyph>
<glyph name="numbersign" format="2">
  <advance width="742"/>
  <unicode hex="0023"/>
  <outline>
    <contour>
      <point x="690.333" y="418.667" type="line" name="n00"/>
      <point x="535" y="418.667" type="line"/>
      <point x="488.667" y="279.333" type="line"/>
      <point x="647.667" y="279.333" type="line" name="n03"/>
      <point x="647.667" y="225" type="line" name="n04"/>
      <point x="470" y="225" type="line"/>
      <point x="388" y="-23.3333" type="line"/>
      <point x="331.667" y="-7" type="line"/>
      <point x="409" y="225" type="line"/>
      <point x="270.667" y="225" type="line"/>
      <point x="188" y="-23.3333" type="line"/>
      <point x="132.333" y="-6" type="line"/>
      <point x="210.667" y="225" type="line"/>
      <point x="71.3333" y="225" type="line"/>
      <point x="71.3333" y="279.333" type="line"/>
      <point x="228" y="279.333" type="line"/>
      <point x="275" y="418.667" type="line"/>
      <point x="118.333" y="418.667" type="line"/>
      <point x="118.333" y="474.667" type="line"/>
      <point x="293.333" y="474.667" type="line"/>
      <point x="372.333" y="708.667" type="line"/>
      <point x="428.667" y="692" type="line"/>
      <point x="353.333" y="474.667" type="line"/>
      <point x="494" y="474.667" type="line"/>
      <point x="571.333" y="708.667" type="line"/>
      <point x="629" y="691.667" type="line"/>
      <point x="553.333" y="474.667" type="line"/>
      <point x="690.333" y="474.667" type="line" name="n27"/>
    </contour>
    <contour>
      <point x="474.333" y="418.667" type="line"/>
      <point x="335.667" y="418.667" type="line"/>
      <point x="289" y="279.333" type="line"/>
      <point x="427" y="279.333" type="line"/>
    </contour>
  </outline>
</glyph>
<glyph name="dollar" format="2">
  <advance width="570"/>
  <unicode hex="0024"/>
  <outline>
    <contour>
      <point x="542.667" y="641" type="curve"/>
      <point x="510.333" y="486" type="line"/>
      <point x="448" y="486" type="line"/>
      <point x="452" y="586.333" type="line" smooth="yes"/>
      <point x="452.333" y="591.667"/>
      <point x="446.333" y="598.333"/>
      <point x="442" y="600.333" type="curve"/>
      <point x="433.333" y="604.667"/>
      <point x="401" y="615.667"/>
      <point x="375.667" y="617.667" type="curve"/>
      <point x="330.667" y="383.667" type="line"/>
      <point x="410.667" y="358.333"/>
      <point x="505.667" y="310.333"/>
      <point x="496.333" y="207" type="curve" name="n13"/>
      <point x="489" y="65.6667"/>
      <point x="344.333" y="10.3333"/>
      <point x="256.333" y="1" type="curve"/>
      <point x="237" y="-102" type="line" name="n17"/>
      <point x="178" y="-102" type="line"/>
      <point x="197.333" y="0" type="line" name="n19"/>
      <point x="150" y="2.66667"/>
      <point x="78.3333" y="13.6667"/>
      <point x="16.3333" y="40.3333" type="curve"/>
      <point x="49" y="202.667" type="line"/>
      <point x="117.667" y="202.667" type="line"/>
      <point x="110.667" y="90" type="line"/>
      <point x="110.667" y="82.6667"/>
      <point x="113" y="81.6667"/>
      <point x="118" y="79.3333" type="curve"/>
      <point x="134" y="71"/>
      <point x="181.333" y="56.6667"/>
      <point x="208.667" y="54.6667" type="curve" name="n31"/>
      <point x="255.667" y="298" type="line"/>
      <point x="176.333" y="329.333"/>
      <point x="96" y="376"/>
      <point x="105" y="473" type="curve" smooth="yes" name="n35"/>
      <point x="117" y="610"/>
      <point x="252" y="660.667"/>
      <point x="328" y="668" type="curve"/>
      <point x="342.333" y="742.667" type="line" name="n39"/>
      <point x="400" y="742.667" type="line"/>
      <point x="387" y="670" type="line"/>
      <point x="457.667" y="668.667"/>
      <point x="532" y="644.333"/>
    </contour>
    <contour>
      <point x="317" y="614" type="line"/>
      <point x="274.333" y="601.333"/>
      <point x="222" y="571"/>
      <point x="216.333" y="503" type="curve" smooth="yes" name="n47"/>
      <point x="211" y="446"/>
      <point x="249.333" y="420.333"/>
      <point x="276.667" y="406.333" type="curve"/>
    </contour>
    <contour>
      <point x="381.667" y="177" type="curve" smooth="yes" name="n51"/>
      <point x="386" y="227.667"/>
      <point x="354.667" y="258"/>
      <point x="311.333" y="276.333" type="curve"/>
      <point x="268.667" y="58.3333" type="line"/>
      <point x="318" y="70.3333"/>
      <point x="375.333" y="103.333"/>
    </contour>
  </outline>
</glyph>
<glyph name="parenleft" format="2">
  <advance width="420"/>
  <unicode hex="0028"/>
  <outline>
    <contour>
      <point x="468.667" y="717.667" type="curve"/>
      <point x="459" y="669" type="line"/>
      <point x="244.333" y="640.333"/>
      <point x="176.667" y="272.333"/>
      <point x="176.667" y="112.333" type="curve" smooth="yes" name="n04"/>
      <point x="176.667" y="-15.3333"/>
      <point x="226" y="-78.3333"/>
      <point x="311.667" y="-94" type="curve"/>
      <point x="302" y="-142.667" type="line"/>
      <point x="156" y="-136"/>
      <point x="71" y="-21.6667"/>
      <point x="71" y="138" type="curve" smooth="yes" name="n11"/>
      <point x="71" y="376.667"/>
      <point x="195.333" y="699"/>
    </contour>
  </outline>
</glyph>
<glyph name="period" format="2">
  <advance width="292"/>
  <unicode hex="002E"/>
  <outline>
    <contour>
      <point x="165" y="60.3333" type="curve" smooth="yes" name="n00"/>
      <point x="165" y="20.3333"/>
      <point x="132" y="-12"/>
      <point x="92" y="-12" type="curve" smooth="yes" name="n03"/>
      <point x="52" y="-12"/>
      <point x="20" y="20.3333"/>
      <point x="20" y="60.3333" type="curve" smooth="yes" name="n06"/>
      <point x="20" y="100.333"/>
      <point x="52" y="133"/>
      <point x="92" y="133" type="curve" smooth="yes" name="n09"/>
      <point x="132" y="133"/>
      <point x="165" y="100.333"/>
    </contour>
  </outline>
</glyph>
<glyph name="one" format="2">
  <advance width="570"/>
  <unicode hex="0031"/>
  <outline>
    <contour>
      <point x="437.333" y="687" type="line" name="n00"/>
      <point x="318" y="73.3333" type="line" smooth="yes"/>
      <point x="315.917" y="63.3488"/>
      <point x="322.333" y="56.3333"/>
      <point x="337" y="55.3333" type="curve" smooth="yes"/>
      <point x="412" y="49.6667" type="line"/>
      <point x="412" y="0" type="line"/>
      <point x="84" y="0" type="line"/>
      <point x="84" y="50" type="line"/>
      <point x="185.667" y="55.3333" type="line" smooth="yes"/>
      <point x="195.667" y="56"/>
      <point x="202.333" y="64.3333"/>
      <point x="204" y="73.3333" type="curve" smooth="yes"/>
      <point x="305.333" y="591" type="line"/>
      <point x="149" y="570.667" type="line"/>
      <point x="149" y="619.333" type="line"/>
      <point x="390" y="687" type="line"/>
    </contour>
  </outline>
</glyph>
<glyph name="two" format="2">
  <advance width="570"/>
  <unicode hex="0032"/>
  <outline>
    <contour>
      <point x="549" y="537" type="curve" smooth="yes" name="n00"/>
      <point x="549" y="446"/>
      <point x="481.667" y="356.667"/>
      <point x="395.667" y="280.667" type="curve" smooth="yes"/>
      <point x="316.333" y="210.333"/>
      <point x="223.667" y="149.667"/>
      <point x="133" y="86.3333" type="curve"/>
      <point x="404.667" y="86.3333" type="line" name="n07"/>
      <point x="438.667" y="170.667" type="line" name="n08"/>
      <point x="504.333" y="170.667" type="line"/>
      <point x="472.667" y="0" type="line" name="n10"/>
      <point x="-21" y="0" type="line"/>
      <point x="-8" y="67" type="line"/>
      <point x="281.333" y="272"/>
      <point x="420" y="380"/>
      <point x="420" y="525" type="curve" smooth="yes" name="n15"/>
      <point x="420" y="601.667"/>
      <point x="373.333" y="629"/>
      <point x="325" y="629" type="curve" smooth="yes" name="n18"/>
      <point x="291.333" y="629"/>
      <point x="260" y="614"/>
      <point x="245.667" y="607.333" type="curve"/>
      <point x="225" y="502" type="line"/>
      <point x="216" y="496"/>
      <point x="200.667" y="481"/>
      <point x="165" y="481" type="curve" smooth="yes"/>
      <point x="135" y="481"/>
      <point x="103" y="496"/>
      <point x="103" y="531.333" type="curve" smooth="yes"/>
      <point x="103" y="611.333"/>
      <point x="215" y="687"/>
      <point x="357" y="687" type="curve" smooth="yes" name="n31"/>
      <point x="469.333" y="687"/>
      <point x="549" y="642.667"/>
    </contour>
  </outline>
</glyph>
<glyph name="three" format="2">
  <advance width="570"/>
  <unicode hex="0033"/>
  <outline>
    <contour>
      <point x="548.333" y="544" type="curve" smooth="yes" name="n00"/>
      <point x="548.333" y="474.333"/>
      <point x="492.667" y="398"/>
      <point x="367" y="358.333" type="curve"/>
      <point x="454" y="344"/>
      <point x="507.333" y="306" name="hr01"/>
      <point x="507.333" y="229.333" type="curve" smooth="yes" name="n06"/>
      <point x="507.333" y="104"/>
      <point x="379" y="-16"/>
      <point x="199" y="-16" type="curve" smooth="yes" name="n09"/>
      <point x="60.3333" y="-16"/>
      <point x="9" y="50.6667"/>
      <point x="9" y="95.3333" type="curve" smooth="yes"/>
      <point x="9" y="114.667"/>
      <point x="27.6667" y="158" name="hr02"/>
      <point x="76.3333" y="158" type="curve" smooth="yes" name="n15"/>
      <point x="98" y="158"/>
      <point x="113" y="149.667"/>
      <point x="125.333" y="144.333" type="curve"/>
      <point x="140.667" y="59.6667" type="line"/>
      <point x="149.333" y="54"/>
      <point x="178.667" y="38.3333" name="hr03"/>
      <point x="210.333" y="38.3333" type="curve" smooth="yes" name="n22"/>
      <point x="298.333" y="38.3333"/>
      <point x="382" y="114"/>
      <point x="382" y="214.667" type="curve" smooth="yes" name="n25"/>
      <point x="382" y="308.667"/>
      <point x="305" y="320.333"/>
      <point x="277.333" y="320.333" type="curve" smooth="yes" name="n28"/>
      <point x="254.333" y="320.333"/>
      <point x="234" y="317.333"/>
      <point x="199.667" y="311.667" type="curve"/>
      <point x="209.333" y="379" type="line" name="n32"/>
      <point x="335.333" y="373"/>
      <point x="421" y="438" name="hr04"/>
      <point x="421" y="531" type="curve" smooth="yes" name="n35"/>
      <point x="421" y="609.667"/>
      <point x="357.667" y="632.667"/>
      <point x="327.333" y="632.667" type="curve" smooth="yes" name="n38"/>
      <point x="286.667" y="632.667"/>
      <point x="256" y="613"/>
      <point x="243.667" y="603.667" type="curve"/>
      <point x="228.333" y="508.667" type="line"/>
      <point x="217.667" y="504.667"/>
      <point x="188" y="493"/>
      <point x="168.333" y="493" type="curve" smooth="yes"/>
      <point x="142" y="493"/>
      <point x="111" y="514"/>
      <point x="111" y="548.333" type="curve" smooth="yes"/>
      <point x="111" y="627.667"/>
      <point x="232.333" y="687"/>
      <point x="360.333" y="687" type="curve" smooth="yes" name="n51"/>
      <point x="483.667" y="687"/>
      <point x="548.333" y="634.667"/>
    </contour>
  </outline>
</glyph>
<glyph name="six" format="2">
  <advance width="570"/>
  <unicode hex="0036"/>
  <outline>
    <contour>
      <point x="533" y="271.333" type="curve" smooth="yes" name="n00"/>
      <point x="533" y="118.333"/>
      <point x="414" y="-16"/>
      <point x="253" y="-16" type="curve" smooth="yes" name="n03"/>
      <point x="150.667" y="-16"/>
      <point x="34" y="32.6667"/>
      <point x="34" y="215.667" type="curve" smooth="yes" name="n06"/>
      <point x="34" y="458"/>
      <point x="216" y="685.333"/>
      <point x="520" y="717.667" type="curve"/>
      <point x="521" y="659.333" type="line"/>
      <point x="353" y="641"/>
      <point x="232.333" y="538.667"/>
      <point x="192.333" y="410.667" type="curve"/>
      <point x="236.333" y="437.333"/>
      <point x="286" y="453.333"/>
      <point x="343" y="453.333" type="curve" smooth="yes" name="n16"/>
      <point x="458.667" y="453.333"/>
      <point x="533" y="382.667"/>
    </contour>
    <contour>
      <point x="413" y="245.667" type="curve" smooth="yes" name="n19"/>
      <point x="413" y="333.667"/>
      <point x="374" y="386"/>
      <point x="300" y="386" type="curve" smooth="yes" name="n22"/>
      <point x="266.333" y="386"/>
      <point x="227.333" y="375.667"/>
      <point x="174" y="335.667" type="curve"/>
      <point x="170.667" y="322.333"/>
      <point x="154" y="252"/>
      <point x="154" y="204.667" type="curve" smooth="yes" name="n28"/>
      <point x="154" y="137.667"/>
      <point x="167" y="37.3333"/>
      <point x="258" y="37.3333" type="curve" smooth="yes" name="n31"/>
      <point x="333" y="37.3333"/>
      <point x="413" y="132.333"/>
    </contour>
  </outline>
</glyph>
<glyph name="seven" format="2">
  <advance width="570"/>
  <unicode hex="0037"/>
  <outline>
    <contour>
      <point x="618.333" y="671" type="line"/>
      <point x="610" y="626.333" type="line"/>
      <point x="155" y="-12.3333" type="line"/>
      <point x="148.667" y="-37" type="line" name="n03"/>
      <point x="34.6667" y="-37" type="line"/>
      <point x="480" y="587" type="line"/>
      <point x="195.333" y="587" type="line" name="n06"/>
      <point x="163.333" y="497.333" type="line" name="n07"/>
      <point x="93.6667" y="497.333" type="line"/>
      <point x="128.333" y="671" type="line" name="n09"/>
    </contour>
  </outline>
</glyph>
<glyph name="colon" format="2">
  <advance width="292"/>
  <unicode hex="003A"/>
  <outline>
    <contour>
      <point x="236.333" y="422.667" type="curve" smooth="yes" name="n00"/>
      <point x="236.333" y="382.667"/>
      <point x="203.333" y="350.333"/>
      <point x="163.333" y="350.333" type="curve" smooth="yes" name="n03"/>
      <point x="123.333" y="350.333"/>
      <point x="90.6667" y="382.667"/>
      <point x="90.6667" y="422.667" type="curve" smooth="yes" name="n06"/>
      <point x="90.6667" y="462.667"/>
      <point x="123.333" y="495.333"/>
      <point x="163.333" y="495.333" type="curve" smooth="yes" name="n09"/>
      <point x="203.333" y="495.333"/>
      <point x="236.333" y="462.667"/>
    </contour>
    <contour>
      <point x="165" y="60.3333" type="curve" smooth="yes" name="n12"/>
      <point x="165" y="20.3333" name="hr01"/>
      <point x="132" y="-12"/>
      <point x="92" y="-12" type="curve" smooth="yes" name="n15"/>
      <point x="52" y="-12"/>
      <point x="19.3333" y="20.3333"/>
      <point x="19.3333" y="60.3333" type="curve" smooth="yes" name="n18"/>
      <point x="19.3333" y="100.333"/>
      <point x="52" y="133"/>
      <point x="92" y="133" type="curve" smooth="yes" name="n21"/>
      <point x="132" y="133"/>
      <point x="165" y="100.333"/>
    </contour>
  </outline>
</glyph>
<glyph name="at" format="2">
  <advance width="936"/>
  <unicode hex="0040"/>
  <outline>
    <contour>
      <point x="875.333" y="371.333" type="curve" smooth="yes" name="n00"/>
      <point x="875.333" y="170"/>
      <point x="732" y="54"/>
      <point x="626" y="54" type="curve" smooth="yes" name="n03"/>
      <point x="569" y="54"/>
      <point x="547.333" y="83.6667"/>
      <point x="545.333" y="132.667" type="curve"/>
      <point x="497" y="86.3333"/>
      <point x="452" y="55"/>
      <point x="403.667" y="55" type="curve" smooth="yes"/>
      <point x="324.667" y="55"/>
      <point x="274" y="120.333"/>
      <point x="274" y="219" type="curve" smooth="yes" name="n12"/>
      <point x="274" y="370.667"/>
      <point x="394.667" y="491.333"/>
      <point x="527" y="491.333" type="curve" smooth="yes" name="n15"/>
      <point x="556.667" y="491.333"/>
      <point x="594.667" y="478"/>
      <point x="622.667" y="463.333" type="curve"/>
      <point x="639" y="487" type="line"/>
      <point x="705" y="487" type="line"/>
      <point x="699.667" y="470"/>
      <point x="635.667" y="190"/>
      <point x="635.667" y="190" type="curve"/>
      <point x="625.667" y="144.667"/>
      <point x="630.667" y="113.333"/>
      <point x="668" y="113.333" type="curve" smooth="yes" name="n26"/>
      <point x="720.667" y="113.333"/>
      <point x="817" y="210.667"/>
      <point x="817" y="370.333" type="curve" smooth="yes" name="n29"/>
      <point x="817" y="558.667"/>
      <point x="676" y="643.333"/>
      <point x="541" y="643.333" type="curve" smooth="yes" name="n32"/>
      <point x="319" y="643.333"/>
      <point x="155.667" y="479"/>
      <point x="155.667" y="255.667" type="curve" smooth="yes" name="n35"/>
      <point x="155.667" y="51.3333"/>
      <point x="286" y="-102.333"/>
      <point x="501" y="-102.333" type="curve" smooth="yes" name="n38"/>
      <point x="614" y="-102.333"/>
      <point x="699.667" y="-63.3333"/>
      <point x="768.667" y="-25" type="curve"/>
      <point x="785" y="-65.6667" type="line"/>
      <point x="695" y="-113.333"/>
      <point x="596.667" y="-154.333"/>
      <point x="477" y="-154.333" type="curve" smooth="yes" name="n45"/>
      <point x="256.667" y="-154.333"/>
      <point x="74.6667" y="-3.66667"/>
      <point x="74.6667" y="237.667" type="curve" smooth="yes" name="n48"/>
      <point x="74.6667" y="532.333"/>
      <point x="299.667" y="689.667"/>
      <point x="528.667" y="689.667" type="curve" smooth="yes" name="n51"/>
      <point x="733" y="689.667"/>
      <point x="875.333" y="576"/>
    </contour>
    <contour>
      <point x="586" y="391.333" type="line" smooth="yes"/>
      <point x="589.667" y="408"/>
      <point x="567" y="447"/>
      <point x="531.667" y="447" type="curve" smooth="yes" name="n57"/>
      <point x="439" y="447"/>
      <point x="375.333" y="350.667"/>
      <point x="375.333" y="228" type="curve" smooth="yes" name="n60"/>
      <point x="375.333" y="155"/>
      <point x="405" y="121.333"/>
      <point x="448.667" y="121.333" type="curve" smooth="yes" name="n63"/>
      <point x="493" y="121.333"/>
      <point x="525.333" y="159.667"/>
      <point x="546" y="185" type="curve"/>
    </contour>
  </outline>
</glyph>
<glyph name="B" format="2">
  <advance width="620"/>
  <unicode hex="0042"/>
  <outline>
    <contour>
      <point x="588" y="536.404" type="curve" smooth="yes" name="n00"/>
      <point x="588" y="454.023"/>
      <point x="532.812" y="393.803"/>
      <point x="423.815" y="357.235" type="curve"/>
      <point x="522.295" y="342.126"/>
      <point x="568" y="299.964" name="hr01"/>
      <point x="568" y="224.211" type="curve" smooth="yes" name="n06"/>
      <point x="568" y="77.5822"/>
      <point x="463.288" y="0" name="hr02"/>
      <point x="265.333" y="0" type="curve" smooth="yes" name="n09"/>
      <point x="-15.6667" y="0" type="line"/>
      <point x="-15.6667" y="44.0444" type="line"/>
      <point x="47.3333" y="49.0048" type="line" smooth="yes"/>
      <point x="59.1985" y="49.9393"/>
      <point x="63.9006" y="54.5038"/>
      <point x="66.3333" y="67.0298" type="curve" smooth="yes"/>
      <point x="170.333" y="602.38" type="line"/>
      <point x="170.065" y="613.912"/>
      <point x="164.29" y="619.56"/>
      <point x="151.667" y="620.672" type="curve" smooth="yes"/>
      <point x="94.3333" y="625.704" type="line"/>
      <point x="94.3333" y="671" type="line"/>
      <point x="382.333" y="671" type="line" smooth="yes" name="n22"/>
      <point x="520.821" y="671"/>
      <point x="588" y="627.045"/>
    </contour>
    <contour>
      <point x="463" y="523.835" type="curve" smooth="yes" name="n25"/>
      <point x="463" y="591.021"/>
      <point x="418.721" y="624"/>
      <point x="326.928" y="624" type="curve" smooth="yes" name="n28"/>
      <point x="316.743" y="624"/>
      <point x="308.25" y="624.209"/>
      <point x="288.929" y="621.336" type="curve"/>
      <point x="240.667" y="372.331" type="line"/>
      <point x="258.858" y="370.667"/>
      <point x="272.667" y="370.667"/>
      <point x="282.139" y="370.667" type="curve" smooth="yes" name="n35"/>
      <point x="386.849" y="370.667"/>
      <point x="463" y="435.748"/>
    </contour>
    <contour>
      <point x="444.333" y="207.993" type="curve" smooth="yes" name="n38"/>
      <point x="444.333" y="285.929"/>
      <point x="397.318" y="323" name="hr03"/>
      <point x="298.333" y="323" type="curve" smooth="yes" name="n41"/>
      <point x="276.667" y="323"/>
      <point x="252.375" y="321.749"/>
      <point x="230" y="318.659" type="curve"/>
      <point x="177.738" y="50.3392" type="line"/>
      <point x="196.025" y="48.14"/>
      <point x="208.881" y="47.6667"/>
      <point x="229.975" y="47.6667" type="curve" smooth="yes" name="n48"/>
      <point x="365.453" y="47.6667"/>
      <point x="444.333" y="106.689"/>
    </contour>
  </outline>
</glyph>
<glyph name="I" format="2">
  <advance width="327"/>
  <unicode hex="0049"/>
  <outline>
    <contour>
      <point x="370" y="626.333" type="line"/>
      <point x="304.333" y="621.333" type="line" smooth="yes"/>
      <point x="292.333" y="620.333"/>
      <point x="288.667" y="614.333"/>
      <point x="286" y="602.667" type="curve"/>
      <point x="182" y="67.3333" type="line" smooth="yes"/>
      <point x="180" y="57"/>
      <point x="184" y="50.6667"/>
      <point x="200.333" y="49.6667" type="curve"/>
      <point x="200.333" y="49.6667"/>
      <point x="239.502" y="46.5142"/>
      <point x="260" y="44.6667" type="curve"/>
      <point x="260" y="0" type="line"/>
      <point x="-15" y="0" type="line"/>
      <point x="-15" y="44.6667" type="line"/>
      <point x="4.98952" y="46.1526"/>
      <point x="46.6667" y="49.3333"/>
      <point x="46.6667" y="49.3333" type="curve"/>
      <point x="59.6667" y="50.3333"/>
      <point x="65" y="55"/>
      <point x="67" y="67.6667" type="curve"/>
      <point x="171" y="603" type="line" smooth="yes"/>
      <point x="173.333" y="614.333"/>
      <point x="168" y="620.333"/>
      <point x="152.333" y="621.333" type="curve"/>
      <point x="152.333" y="621.333"/>
      <point x="113.861" y="624.542"/>
      <point x="96" y="626.333" type="curve"/>
      <point x="96" y="671" type="line"/>
      <point x="370" y="671" type="line"/>
    </contour>
  </outline>
</glyph>
<glyph name="J" format="2">
  <advance width="481"/>
  <unicode hex="004A"/>
  <outline>
    <contour>
      <point x="521" y="626.333" type="line"/>
      <point x="460.333" y="621" type="line"/>
      <point x="448.667" y="620.333"/>
      <point x="441.667" y="614.333"/>
      <point x="439" y="602.667" type="curve"/>
      <point x="375" y="256.333" type="line" smooth="yes"/>
      <point x="345.333" y="93.6667"/>
      <point x="298.667" y="-16"/>
      <point x="119" y="-16" type="curve" smooth="yes" name="n08"/>
      <point x="36.6667" y="-16"/>
      <point x="-8.66667" y="9.66667"/>
      <point x="-20" y="15.3333" type="curve"/>
      <point x="13.3333" y="187.333" type="line" name="hr01"/>
      <point x="84.6667" y="187.333" type="line" name="n13"/>
      <point x="84.6667" y="64" type="line" smooth="yes"/>
      <point x="84.6667" y="49"/>
      <point x="107" y="39.3333" name="hr02"/>
      <point x="126" y="39.3333" type="curve" smooth="yes" name="n17"/>
      <point x="202" y="39.3333"/>
      <point x="233.667" y="112.667"/>
      <point x="258" y="247.667" type="curve" smooth="yes"/>
      <point x="324" y="603" type="line" smooth="yes"/>
      <point x="326" y="614.333"/>
      <point x="321" y="620.333"/>
      <point x="305.333" y="621.333" type="curve"/>
      <point x="305.333" y="621.333"/>
      <point x="265.527" y="624.541"/>
      <point x="247" y="626.333" type="curve"/>
      <point x="247" y="671" type="line" name="n28"/>
      <point x="521" y="671" type="line"/>
    </contour>
  </outline>
</glyph>
<glyph name="L" format="2">
  <advance width="532"/>
  <unicode hex="004C"/>
  <outline>
    <contour>
      <point x="498" y="190.667" type="line"/>
      <point x="460.667" y="0" type="line" name="n01"/>
      <point x="-15" y="0" type="line"/>
      <point x="-15" y="44.6667" type="line"/>
      <point x="3.18822" y="46.4588"/>
      <point x="42.6667" y="49.3333"/>
      <point x="42.6667" y="49.3333" type="curve"/>
      <point x="57.6667" y="50.6667"/>
      <point x="65" y="55.3333"/>
      <point x="67" y="67.6667" type="curve"/>
      <point x="171" y="603" type="line" smooth="yes"/>
      <point x="173.333" y="614"/>
      <point x="168" y="620.333"/>
      <point x="153" y="621.333" type="curve"/>
      <point x="153" y="621.333"/>
      <point x="114.857" y="624.513"/>
      <point x="96" y="626.333" type="curve"/>
      <point x="96" y="671" type="line" name="n17"/>
      <point x="370" y="671" type="line"/>
      <point x="370" y="626.333" type="line"/>
      <point x="349.004" y="624.486"/>
      <point x="309" y="621.333"/>
      <point x="309" y="621.333" type="curve"/>
      <point x="296" y="620.333"/>
      <point x="288.333" y="613.333"/>
      <point x="286" y="602.667" type="curve" smooth="yes"/>
      <point x="180" y="53.3333" type="line"/>
      <point x="370" y="53.3333" type="line" smooth="yes" name="n27"/>
      <point x="382" y="53.3333"/>
      <point x="392.481" y="60.619"/>
      <point x="396" y="71.3333" type="curve" smooth="yes"/>
      <point x="433.667" y="190.667" type="line" name="n31"/>
    </contour>
  </outline>
</glyph>
<glyph name="P" format="2">
  <advance width="579"/>
  <unicode hex="0050"/>
  <outline>
    <contour>
      <point x="585" y="510.436" type="curve" smooth="yes" name="n00"/>
      <point x="585" y="354.238"/>
      <point x="460.296" y="249"/>
      <point x="273.688" y="249" type="curve" smooth="yes" name="n03"/>
      <point x="253.833" y="249"/>
      <point x="240.483" y="248.714"/>
      <point x="216.879" y="251.667" type="curve"/>
      <point x="180" y="67.3333" type="line"/>
      <point x="179.865" y="56.2646"/>
      <point x="185.848" y="50.8363"/>
      <point x="199.333" y="49.6667" type="curve" smooth="yes"/>
      <point x="257" y="44.6667" type="line"/>
      <point x="257" y="0" type="line" name="n12"/>
      <point x="-17" y="0" type="line"/>
      <point x="-17" y="44.6667" type="line"/>
      <point x="41" y="49.6667" type="line" smooth="yes"/>
      <point x="55.2009" y="50.8909"/>
      <point x="62.8349" y="56.6149"/>
      <point x="65" y="67.6667" type="curve" smooth="yes"/>
      <point x="170" y="603.638" type="line"/>
      <point x="170.35" y="615.165"/>
      <point x="164.287" y="620.75"/>
      <point x="150.333" y="621.977" type="curve" smooth="yes"/>
      <point x="94" y="626.918" type="line"/>
      <point x="94" y="671" type="line"/>
      <point x="350" y="671" type="line" smooth="yes" name="n25"/>
      <point x="503.333" y="671"/>
      <point x="585" y="615.184"/>
    </contour>
    <contour>
      <point x="467" y="491.611" type="curve" smooth="yes" name="n28"/>
      <point x="467" y="577.674"/>
      <point x="417.963" y="621.333"/>
      <point x="321.225" y="621.333" type="curve" smooth="yes" name="n31"/>
      <point x="309.951" y="621.333"/>
      <point x="299.926" y="621.333"/>
      <point x="288" y="620" type="curve"/>
      <point x="226.333" y="305.336" type="line"/>
      <point x="235.312" y="304.573"/>
      <point x="244.276" y="304.191"/>
      <point x="253.172" y="304.19" type="curve" smooth="yes" name="n38"/>
      <point x="381.251" y="304.16"/>
      <point x="467" y="379.403"/>
    </contour>
  </outline>
</glyph>
<glyph name="R" format="2">
  <advance width="655"/>
  <unicode hex="0052"/>
  <outline>
    <contour>
      <point x="629" y="1" type="line" name="n00"/>
      <point x="601" y="-11.3333"/>
      <point x="576.333" y="-16" name="hr01"/>
      <point x="546.485" y="-16" type="curve" smooth="yes" name="n03"/>
      <point x="427.333" y="-16"/>
      <point x="405.123" y="61.0948"/>
      <point x="389.005" y="144.532" type="curve" smooth="yes"/>
      <point x="367.899" y="252.662"/>
      <point x="333.892" y="294.667"/>
      <point x="267.886" y="294.667" type="curve" smooth="yes"/>
      <point x="226.879" y="294.667" type="line" name="n10"/>
      <point x="184" y="67.3333" type="line"/>
      <point x="183.736" y="57.1455"/>
      <point x="186.357" y="50.9915"/>
      <point x="202" y="49.6667" type="curve" smooth="yes"/>
      <point x="261" y="44.6667" type="line"/>
      <point x="261" y="0" type="line"/>
      <point x="-13" y="0" type="line"/>
      <point x="-13" y="44.6667" type="line"/>
      <point x="44.6667" y="49.3333" type="line" smooth="yes"/>
      <point x="57.3344" y="50.3201"/>
      <point x="66.6235" y="55.1977"/>
      <point x="69" y="67.6667" type="curve" smooth="yes"/>
      <point x="171" y="603" type="line"/>
      <point x="171.088" y="613.374"/>
      <point x="168.309" y="619.999"/>
      <point x="152.667" y="621.333" type="curve" smooth="yes"/>
      <point x="96" y="626.333" type="line"/>
      <point x="96" y="671" type="line"/>
      <point x="371" y="671" type="line" smooth="yes" name="n29"/>
      <point x="489.667" y="671"/>
      <point x="595" y="636"/>
      <point x="595" y="521.728" type="curve" smooth="yes" name="n32"/>
      <point x="595" y="415.333"/>
      <point x="504.667" y="348.667"/>
      <point x="392.333" y="317" type="curve"/>
      <point x="453.493" y="290.7"/>
      <point x="476.158" y="256.544"/>
      <point x="501" y="155" type="curve" smooth="yes"/>
      <point x="518.993" y="81.5036"/>
      <point x="538.667" y="44"/>
      <point x="629" y="44" type="curve" name="n41"/>
    </contour>
    <contour>
      <point x="468" y="497.114" type="curve" smooth="yes" name="n42"/>
      <point x="468" y="598.269"/>
      <point x="384.961" y="618.516"/>
      <point x="323.866" y="618.577" type="curve" smooth="yes" name="n45"/>
      <point x="308.808" y="618.591"/>
      <point x="298.203" y="617.263"/>
      <point x="288.525" y="616.333" type="curve"/>
      <point x="238.333" y="348.667" type="line" name="n49"/>
      <point x="262.443" y="348.611" type="line" smooth="yes"/>
      <point x="368.779" y="348.551"/>
      <point x="468" y="387.389"/>
    </contour>
  </outline>
  <guideline angle="90" name="330_v" x="310" y="0"/>
</glyph>
<glyph name="U" format="2">
  <advance width="721"/>
  <unicode hex="0055"/>
  <anchor x="446.667" y="713.333" name="top"/>
  <outline>
    <contour>
      <point x="763" y="627" type="line"/>
      <point x="702.333" y="622" type="line" smooth="yes"/>
      <point x="690.777" y="621.033"/>
      <point x="683.219" y="614.528"/>
      <point x="681" y="603.333" type="curve" smooth="yes"/>
      <point x="604" y="215" type="line" smooth="yes"/>
      <point x="573.857" y="62.9929"/>
      <point x="475.528" y="-16"/>
      <point x="315.302" y="-16" type="curve" smooth="yes" name="n08"/>
      <point x="172.116" y="-16"/>
      <point x="92" y="45.856"/>
      <point x="92" y="156.693" type="curve" smooth="yes" name="n11"/>
      <point x="92" y="184.401"/>
      <point x="96.762" y="225.149"/>
      <point x="105" y="265" type="curve" smooth="yes"/>
      <point x="175" y="603.667" type="line"/>
      <point x="174.573" y="616.075"/>
      <point x="169.45" y="620.71"/>
      <point x="155" y="622" type="curve" smooth="yes" name="n18"/>
      <point x="99" y="627" type="line"/>
      <point x="99" y="671.667" type="line" name="n20"/>
      <point x="373" y="671.667" type="line"/>
      <point x="373" y="627" type="line"/>
      <point x="313" y="622" type="line" smooth="yes"/>
      <point x="299.773" y="620.897"/>
      <point x="292.345" y="614.836"/>
      <point x="290" y="603.333" type="curve" smooth="yes"/>
      <point x="221" y="265" type="line" smooth="yes"/>
      <point x="214.1" y="231.164"/>
      <point x="210" y="197.587"/>
      <point x="210" y="174.904" type="curve" smooth="yes" name="n30"/>
      <point x="210" y="98.1089"/>
      <point x="260.028" y="53"/>
      <point x="344.902" y="53" type="curve" smooth="yes" name="n33"/>
      <point x="444.891" y="53"/>
      <point x="502.18" y="114.473"/>
      <point x="529" y="250" type="curve" smooth="yes"/>
      <point x="599" y="603.667" type="line"/>
      <point x="598.458" y="616.226"/>
      <point x="593.642" y="620.73"/>
      <point x="579.333" y="622" type="curve" smooth="yes"/>
      <point x="523" y="627" type="line"/>
      <point x="523" y="671.667" type="line"/>
      <point x="763" y="671.667" type="line"/>
    </contour>
  </outline>
</glyph>
<glyph name="bracketleft" format="2">
  <advance width="429"/>
  <unicode hex="005B"/>
  <outline>
    <contour>
      <point x="480" y="676.667" type="line" name="n00"/>
      <point x="367.333" y="656.667" type="line"/>
      <point x="217" y="159.333" type="line"/>
      <point x="271" y="-81.3333" type="line" name="n03"/>
      <point x="322.333" y="-112.667" type="line" name="n04"/>
      <point x="146.333" y="-132" type="line"/>
      <point x="166" y="428" type="line"/>
      <point x="387.333" y="708" type="line" name="n07"/>
    </contour>
  </outline>
</glyph>
<glyph name="grave" format="2">
  <advance width="403"/>
  <unicode hex="0060"/>
  <outline>
    <contour>
      <point x="326.667" y="551" type="line" name="n00"/>
      <point x="262" y="551" type="line"/>
      <point x="111.333" y="643.667" type="line" smooth="yes"/>
      <point x="97.3333" y="652.333"/>
      <point x="87.6667" y="668"/>
      <point x="87.6667" y="685.667" type="curve" smooth="yes"/>
      <point x="87.6667" y="707"/>
      <point x="99" y="732.667" name="n07"/>
      <point x="136.667" y="732.667" type="curve" smooth="yes"/>
      <point x="164.333" y="732.667"/>
      <point x="175.99" y="722.992"/>
      <point x="191.667" y="705.333" type="curve" smooth="yes"/>
    </contour>
  </outline>
</glyph>
<glyph name="g" format="2">
  <advance width="454"/>
  <unicode hex="0067"/>
  <outline>
    <contour>
      <point x="501" y="419.667" type="line" name="n00"/>
      <point x="409" y="419.667" type="line"/>
      <point x="416.788" y="400.189"/>
      <point x="421.333" y="374.85"/>
      <point x="421.333" y="350.208" type="curve" smooth="yes"/>
      <point x="421.333" y="239.341"/>
      <point x="331.648" y="161.667"/>
      <point x="202.78" y="161.667" type="curve" name="n07"/>
      <point x="196.249" y="146.257"/>
      <point x="191.668" y="126.035"/>
      <point x="191.668" y="112.556" type="curve" smooth="yes"/>
      <point x="191.668" y="109.429"/>
      <point x="191.922" y="106.805"/>
      <point x="192.423" y="104.769" type="curve"/>
      <point x="326" y="44.2229" type="line" smooth="yes"/>
      <point x="403.543" y="9.07824"/>
      <point x="429.333" y="-16.7372"/>
      <point x="429.333" y="-58.6884" type="curve" smooth="yes"/>
      <point x="429.333" y="-149.985"/>
      <point x="305.22" y="-229"/>
      <point x="167.33" y="-229" type="curve" smooth="yes" name="n20"/>
      <point x="48.3705" y="-229"/>
      <point x="-31" y="-170.201" name="hr01"/>
      <point x="-31" y="-86.7414" type="curve" smooth="yes" name="n23"/>
      <point x="-31" y="-21.9342"/>
      <point x="16.8295" y="28.664"/>
      <point x="102.976" y="57.1968" type="curve"/>
      <point x="102.263" y="61.0387"/>
      <point x="101.901" y="65.3485"/>
      <point x="101.896" y="70.055" type="curve" smooth="yes"/>
      <point x="101.855" y="104.055"/>
      <point x="119.544" y="149.733"/>
      <point x="141.374" y="172" type="curve"/>
      <point x="78.6201" y="200.078"/>
      <point x="48.3333" y="241.833" name="hr02"/>
      <point x="48.3333" y="302.768" type="curve" smooth="yes" name="n35"/>
      <point x="48.3333" y="408.475"/>
      <point x="139.544" y="496"/>
      <point x="250.45" y="496" type="curve" smooth="yes" name="n38"/>
      <point x="288.085" y="496"/>
      <point x="331.931" y="485.654"/>
      <point x="361.667" y="470.333" type="curve" name="hr03"/>
      <point x="501" y="470.333" type="line" name="n42"/>
    </contour>
    <contour>
      <point x="311.667" y="361.137" type="curve" smooth="yes"/>
      <point x="311.667" y="412.638"/>
      <point x="296.48" y="450.667" name="hr04"/>
      <point x="262.912" y="450.667" type="curve" smooth="yes" name="n46"/>
      <point x="212.354" y="450.667"/>
      <point x="158.333" y="364.617"/>
      <point x="158.333" y="286.342" type="curve" smooth="yes" name="n49"/>
      <point x="158.333" y="231.241"/>
      <point x="177.17" y="202"/>
      <point x="210.331" y="202" type="curve" smooth="yes" name="n52"/>
      <point x="264.263" y="202"/>
      <point x="311.667" y="278.389"/>
    </contour>
    <contour>
      <point x="322.333" y="-85.9062" type="curve" smooth="yes"/>
      <point x="322.333" y="-59.1012"/>
      <point x="306.419" y="-39.9809"/>
      <point x="272.234" y="-24.6345" type="curve" smooth="yes"/>
      <point x="151.52" y="29.6004" type="line"/>
      <point x="104.332" y="16.0053"/>
      <point x="77.6667" y="-16.3677"/>
      <point x="77.6667" y="-62.5491" type="curve" smooth="yes" name="n62"/>
      <point x="77.6667" y="-128.342"/>
      <point x="131.336" y="-179"/>
      <point x="202.475" y="-179" type="curve" smooth="yes" name="n65"/>
      <point x="267.861" y="-179"/>
      <point x="322.333" y="-135.379"/>
    </contour>
  </outline>
</glyph>
<glyph name="j" format="2">
  <advance width="287"/>
  <unicode hex="006A"/>
  <outline>
    <contour>
      <point x="281" y="648.333" type="curve" smooth="yes" name="n00"/>
      <point x="281" y="618"/>
      <point x="252.333" y="585"/>
      <point x="213.333" y="585" type="curve" smooth="yes" name="n03"/>
      <point x="175" y="585"/>
      <point x="146.333" y="612.667"/>
      <point x="146.333" y="648.333" type="curve" smooth="yes" name="n06"/>
      <point x="146.333" y="682.667"/>
      <point x="171" y="712"/>
      <point x="213.333" y="712" type="curve" smooth="yes" name="n09"/>
      <point x="254.333" y="712"/>
      <point x="281" y="682.667"/>
    </contour>
    <contour>
      <point x="245.667" y="496" type="line" name="n12"/>
      <point x="174.667" y="81.3333" type="line" smooth="yes"/>
      <point x="157.236" y="-18.9834"/>
      <point x="80" y="-229" name="n15"/>
      <point x="-55.3333" y="-229" type="curve" smooth="yes"/>
      <point x="-99" y="-229"/>
      <point x="-129" y="-205.333"/>
      <point x="-129" y="-174.333" type="curve" smooth="yes"/>
      <point x="-129" y="-149.333"/>
      <point x="-111" y="-135.333"/>
      <point x="-96.6667" y="-126.333" type="curve"/>
      <point x="1.66667" y="-152.667" type="line"/>
      <point x="20.3333" y="-129.333"/>
      <point x="43.3333" y="-63"/>
      <point x="53" y="-10" type="curve" smooth="yes"/>
      <point x="127.667" y="424" type="line"/>
      <point x="43" y="433" type="line"/>
      <point x="43" y="464.333" type="line"/>
      <point x="199" y="496" type="line"/>
    </contour>
  </outline>
</glyph>
<glyph name="n" format="2">
  <advance width="545"/>
  <unicode hex="006E"/>
  <anchor x="290" y="566" name="top"/>
  <outline>
    <contour>
      <point x="542.333" y="21" type="line"/>
      <point x="519.667" y="11.3333"/>
      <point x="444.667" y="-12" name="n02"/>
      <point x="396.891" y="-12" type="curve" smooth="yes"/>
      <point x="372.599" y="-12"/>
      <point x="312.475" y="-6.27951"/>
      <point x="312.473" y="37.2042" type="curve" smooth="yes"/>
      <point x="312.473" y="40.6686"/>
      <point x="312.855" y="44.3729"/>
      <point x="313.667" y="48.3333" type="curve" smooth="yes"/>
      <point x="374.667" y="354.667" type="line" smooth="yes"/>
      <point x="376.03" y="361.424"/>
      <point x="377.069" y="370.074"/>
      <point x="377.07" y="376.979" type="curve" smooth="yes" name="n13"/>
      <point x="377.07" y="411.136"/>
      <point x="355.543" y="422.333"/>
      <point x="338.053" y="422.333" type="curve" smooth="yes" name="n16"/>
      <point x="305.667" y="422.333"/>
      <point x="242.667" y="382.667"/>
      <point x="199.333" y="337" type="curve"/>
      <point x="129.667" y="0" type="line" name="n20"/>
      <point x="23.3333" y="0" type="line"/>
      <point x="110.667" y="425" type="line"/>
      <point x="26.6667" y="433.667" type="line"/>
      <point x="26.6667" y="464.333" type="line"/>
      <point x="182" y="496" type="line"/>
      <point x="231.667" y="496" type="line"/>
      <point x="215" y="414.667" type="line"/>
      <point x="260.667" y="455.667"/>
      <point x="330.667" y="496"/>
      <point x="397.389" y="496" type="curve" smooth="yes" name="n30"/>
      <point x="461.106" y="496"/>
      <point x="492.532" y="468.314"/>
      <point x="492.531" y="408.902" type="curve" smooth="yes" name="n33"/>
      <point x="492.53" y="396.354"/>
      <point x="491.124" y="382.397"/>
      <point x="488.333" y="367" type="curve" smooth="yes"/>
      <point x="435" y="85.3333" type="line" smooth="yes"/>
      <point x="434.362" y="81.8517"/>
      <point x="434.067" y="78.6675"/>
      <point x="434.067" y="75.7554" type="curve" smooth="yes"/>
      <point x="434.069" y="48.1062"/>
      <point x="461.662" y="44.3333"/>
      <point x="473.968" y="44.3333" type="curve" smooth="yes"/>
      <point x="490.667" y="44.3333"/>
      <point x="516" y="51.3333"/>
      <point x="541.667" y="60.3333" type="curve"/>
    </contour>
  </outline>
</glyph>
<glyph name="o" format="2">
  <advance width="521"/>
  <unicode hex="006F"/>
  <anchor x="313.333" y="570" name="top"/>
  <outline>
    <contour>
      <point x="490.667" y="298.634" type="curve" smooth="yes" name="n00"/>
      <point x="490.667" y="140.667"/>
      <point x="380" y="-12"/>
      <point x="214.518" y="-12" type="curve" smooth="yes" name="n03"/>
      <point x="97.6667" y="-12"/>
      <point x="31.3333" y="64"/>
      <point x="31.3333" y="185.201" type="curve" smooth="yes" name="n06"/>
      <point x="31.3333" y="338.667"/>
      <point x="137.667" y="496"/>
      <point x="304.817" y="496" type="curve" smooth="yes" name="n09"/>
      <point x="409" y="496"/>
      <point x="490.667" y="434.333"/>
    </contour>
    <contour>
      <point x="375.333" y="304.274" type="curve" smooth="yes" name="n12"/>
      <point x="375.333" y="401"/>
      <point x="335.333" y="449.667"/>
      <point x="289.952" y="449.667" type="curve" smooth="yes" name="n15"/>
      <point x="214.667" y="449.667"/>
      <point x="146.333" y="314.667"/>
      <point x="146.333" y="183.774" type="curve" smooth="yes" name="n18"/>
      <point x="146.333" y="82.6667"/>
      <point x="187.667" y="36.3333"/>
      <point x="233.512" y="36.3333" type="curve" smooth="yes" name="n21"/>
      <point x="315.333" y="36.3333"/>
      <point x="375.333" y="185.333"/>
    </contour>
  </outline>
</glyph>
<glyph name="q" format="2">
  <advance width="537"/>
  <unicode hex="0071"/>
  <outline>
    <contour>
      <point x="506.667" y="496" type="line"/>
      <point x="378" y="-154" type="line"/>
      <point x="377.551" y="-165.544"/>
      <point x="381.945" y="-171.606"/>
      <point x="395" y="-172.667" type="curve" smooth="yes"/>
      <point x="460.333" y="-178" type="line"/>
      <point x="460.333" y="-218.333" type="line" name="n06"/>
      <point x="194.333" y="-218.333" type="line"/>
      <point x="194.333" y="-178" type="line"/>
      <point x="250" y="-172.667" type="line" smooth="yes"/>
      <point x="262.48" y="-171.477"/>
      <point x="270.079" y="-165.37"/>
      <point x="272.333" y="-154" type="curve" smooth="yes"/>
      <point x="311.333" y="42.6667" type="line"/>
      <point x="262.199" y="5.58711"/>
      <point x="216.555" y="-12.6667"/>
      <point x="172.985" y="-12.6667" type="curve" smooth="yes" name="n16"/>
      <point x="86.4195" y="-12.6667"/>
      <point x="32.6667" y="55.0993"/>
      <point x="32.6667" y="167.889" type="curve" smooth="yes" name="n19"/>
      <point x="32.6667" y="343.232"/>
      <point x="162.577" y="496"/>
      <point x="315.577" y="496" type="curve" smooth="yes" name="n22"/>
      <point x="352.674" y="496"/>
      <point x="388.42" y="486.671"/>
      <point x="413" y="470.667" type="curve"/>
      <point x="434.333" y="496" type="line"/>
    </contour>
    <contour>
      <point x="379" y="388.667" type="line"/>
      <point x="379.149" y="406.924"/>
      <point x="348.182" y="447"/>
      <point x="334.333" y="447" type="curve" smooth="yes" name="n30"/>
      <point x="228.395" y="447"/>
      <point x="143" y="323.48"/>
      <point x="143" y="170.549" type="curve" smooth="yes" name="n33"/>
      <point x="143" y="94.8174"/>
      <point x="170.381" y="51.3333"/>
      <point x="217.667" y="51.3333" type="curve" smooth="yes" name="n36"/>
      <point x="255.451" y="51.3333"/>
      <point x="290.84" y="79.9922"/>
      <point x="324.667" y="113.667" type="curve"/>
    </contour>
  </outline>
</glyph>
<glyph name="r" format="2">
  <advance width="389"/>
  <unicode hex="0072"/>
  <outline>
    <contour>
      <point x="424.667" y="427.667" type="curve" smooth="yes"/>
      <point x="424.667" y="381"/>
      <point x="392.333" y="369.333"/>
      <point x="333.667" y="369.333" type="curve" name="n03"/>
      <point x="308.667" y="419.333" type="line"/>
      <point x="255" y="395"/>
      <point x="190.313" y="314.671"/>
      <point x="178.333" y="256" type="curve" smooth="yes"/>
      <point x="125" y="0" type="line" name="n08"/>
      <point x="18.6667" y="0" type="line"/>
      <point x="105.333" y="424.333" type="line"/>
      <point x="21.3333" y="433.333" type="line"/>
      <point x="21.3333" y="464.333" type="line"/>
      <point x="177.333" y="496" type="line"/>
      <point x="227" y="496" type="line"/>
      <point x="208.667" y="406.333" type="line"/>
      <point x="248" y="460.667"/>
      <point x="300" y="496"/>
      <point x="356.667" y="496" type="curve" smooth="yes" name="n18"/>
      <point x="406" y="496"/>
      <point x="424.667" y="455.333"/>
    </contour>
  </outline>
</glyph>
<glyph name="t" format="2">
  <advance width="314"/>
  <unicode hex="0074"/>
  <outline>
    <contour>
      <point x="363.667" y="418.667" type="line" name="n00"/>
      <point x="216" y="418.667" type="line" name="n01"/>
      <point x="153" y="106.333" type="line" smooth="yes"/>
      <point x="145.986" y="72.6695"/>
      <point x="171.667" y="51.6667"/>
      <point x="204.667" y="51.6667" type="curve" smooth="yes" name="n05"/>
      <point x="240.333" y="51.6667"/>
      <point x="291" y="71"/>
      <point x="315.667" y="79.3333" type="curve"/>
      <point x="315.667" y="34.3333" type="line"/>
      <point x="297" y="26.3333"/>
      <point x="205" y="-12"/>
      <point x="145.333" y="-12" type="curve" smooth="yes" name="n12"/>
      <point x="71.6667" y="-12"/>
      <point x="44.6667" y="25.3333"/>
      <point x="44.6667" y="75.3333" type="curve" smooth="yes"/>
      <point x="44.6667" y="88.3333"/>
      <point x="45.6667" y="102"/>
      <point x="48.6667" y="116" type="curve" smooth="yes"/>
      <point x="109.667" y="418" type="line"/>
      <point x="43.6667" y="411.333" type="line"/>
      <point x="43.6667" y="447" type="line"/>
      <point x="122" y="480.333" type="line"/>
      <point x="171.667" y="581.333" type="line" name="hr01"/>
      <point x="245.667" y="581.333" type="line" name="n24"/>
      <point x="225.333" y="467.667" type="line" name="hr02"/>
      <point x="363.667" y="467.667" type="line" name="n26"/>
    </contour>
  </outline>
</glyph>
<glyph name="u" format="2">
  <advance width="542"/>
  <unicode hex="0075"/>
  <anchor x="306.667" y="570" name="top"/>
  <outline>
    <contour>
      <point x="540" y="25.3333" type="line"/>
      <point x="514.333" y="11"/>
      <point x="444.333" y="-12"/>
      <point x="396.667" y="-12" type="curve" smooth="yes"/>
      <point x="323.667" y="-12"/>
      <point x="326" y="38.3333"/>
      <point x="325" y="53.6667" type="curve"/>
      <point x="275.667" y="10.3333"/>
      <point x="221" y="-12"/>
      <point x="154.667" y="-12" type="curve" smooth="yes" name="n09"/>
      <point x="59.6667" y="-12"/>
      <point x="34.3333" y="61.6667"/>
      <point x="45.6667" y="114.333" type="curve" smooth="yes"/>
      <point x="110.667" y="424.667" type="line"/>
      <point x="26.6667" y="433.667" type="line"/>
      <point x="26.6667" y="464.333" type="line"/>
      <point x="182.333" y="496" type="line" name="n16"/>
      <point x="232.667" y="496" type="line"/>
      <point x="152" y="114.333" type="line" smooth="yes"/>
      <point x="145.333" y="81.3333"/>
      <point x="172" y="52.6667"/>
      <point x="197.667" y="52.6667" type="curve" smooth="yes" name="n21"/>
      <point x="244.667" y="52.6667"/>
      <point x="292.333" y="81"/>
      <point x="329.667" y="115.333" type="curve"/>
      <point x="406.333" y="484" type="line"/>
      <point x="512.667" y="484" type="line"/>
      <point x="432" y="98" type="line" smooth="yes"/>
      <point x="423.333" y="58.3333"/>
      <point x="448.333" y="43.3333"/>
      <point x="470" y="43.3333" type="curve" smooth="yes"/>
      <point x="482" y="43.3333"/>
      <point x="501" y="46"/>
      <point x="540" y="67.3333" type="curve"/>
    </contour>
  </outline>
</glyph>
<glyph name="v" format="2">
  <advance width="477"/>
  <unicode hex="0076"/>
  <outline>
    <contour>
      <point x="482.667" y="434.667" type="curve" smooth="yes"/>
      <point x="482.667" y="401.333"/>
      <point x="467.667" y="372.333"/>
      <point x="461.333" y="359.667" type="curve"/>
      <point x="372" y="195.667"/>
      <point x="250.333" y="57"/>
      <point x="188" y="-12" type="curve" name="n06"/>
      <point x="116.667" y="-12" type="line"/>
      <point x="131.667" y="18.6667"/>
      <point x="138.667" y="43.6667"/>
      <point x="137.667" y="65.6667" type="curve"/>
      <point x="137.667" y="73.6667"/>
      <point x="116.667" y="354.667"/>
      <point x="96.3333" y="408.333" type="curve"/>
      <point x="90.3333" y="422.667"/>
      <point x="86" y="427.333"/>
      <point x="72.6667" y="427.333" type="curve"/>
      <point x="72.6667" y="427.333"/>
      <point x="25.322" y="430.01"/>
      <point x="2.33333" y="431" type="curve"/>
      <point x="2.33333" y="462.333" type="line"/>
      <point x="113.333" y="496" type="line"/>
      <point x="172.333" y="495"/>
      <point x="200.333" y="471.667"/>
      <point x="205.333" y="423.667" type="curve" smooth="yes"/>
      <point x="235" y="132.333" type="line"/>
      <point x="296.667" y="213.667"/>
      <point x="342" y="276"/>
      <point x="371.333" y="349.667" type="curve"/>
      <point x="349.333" y="472.667" type="line"/>
      <point x="363.667" y="486.667"/>
      <point x="387.333" y="496"/>
      <point x="414.333" y="496" type="curve" smooth="yes"/>
      <point x="458" y="496"/>
      <point x="482.667" y="471.667"/>
    </contour>
  </outline>
</glyph>
<glyph name="bar" format="2">
  <advance width="368"/>
  <unicode hex="007C"/>
  <outline>
    <contour>
      <point x="218.667" y="-258" type="line" name="n00"/>
      <point x="149.333" y="-258" type="line" name="n01"/>
      <point x="149.333" y="796" type="line" name="n02"/>
      <point x="218.667" y="796" type="line"/>
    </contour>
  </outline>
</glyph>
<glyph name="sterling" format="2">
  <advance width="570"/>
  <unicode hex="00A3"/>
  <outline>
    <contour>
      <point x="591.333" y="611" type="curve" smooth="yes"/>
      <point x="591.333" y="560"/>
      <point x="533.333" y="540.667"/>
      <point x="493.667" y="535" type="curve"/>
      <point x="450.667" y="629" type="line" name="n04"/>
      <point x="319" y="621.667"/>
      <point x="297" y="438.333"/>
      <point x="282.667" y="354.667" type="curve"/>
      <point x="464.667" y="354.667" type="line" name="n08"/>
      <point x="464.667" y="300.667" type="line" name="n09"/>
      <point x="270.333" y="300.667" type="line"/>
      <point x="253.667" y="209.333"/>
      <point x="216.667" y="136.333"/>
      <point x="131" y="76.6667" type="curve"/>
      <point x="159" y="81.3333"/>
      <point x="186" y="83.6667"/>
      <point x="204.333" y="83.6667" type="curve" smooth="yes"/>
      <point x="493.667" y="83.6667" type="line" name="n17"/>
      <point x="493.667" y="0" type="line" name="n18"/>
      <point x="-3.66667" y="0" type="line"/>
      <point x="-3.66667" y="62" type="line"/>
      <point x="59.3333" y="74.3333"/>
      <point x="95" y="107"/>
      <point x="117.333" y="151" type="curve" smooth="yes"/>
      <point x="142.667" y="200.333"/>
      <point x="149" y="251.333"/>
      <point x="158.667" y="300.667" type="curve"/>
      <point x="88.3333" y="300.667" type="line"/>
      <point x="88.3333" y="354.667" type="line"/>
      <point x="166.333" y="354.667" type="line"/>
      <point x="172.667" y="425"/>
      <point x="217.333" y="687"/>
      <point x="453" y="687" type="curve" smooth="yes" name="n32"/>
      <point x="508.333" y="687"/>
      <point x="591.333" y="668"/>
    </contour>
  </outline>
</glyph>
<glyph name="copyright" format="2">
  <advance width="836"/>
  <unicode hex="00A9"/>
  <outline>
    <contour>
      <point x="823.667" y="350.667" type="curve" smooth="yes" name="n00"/>
      <point x="823.667" y="137"/>
      <point x="651.333" y="-37"/>
      <point x="437.667" y="-37" type="curve" smooth="yes" name="n03"/>
      <point x="226.333" y="-37"/>
      <point x="53" y="137"/>
      <point x="53" y="350" type="curve" smooth="yes" name="n06"/>
      <point x="53" y="563.333"/>
      <point x="225.667" y="737.667"/>
      <point x="439" y="737.667" type="curve" smooth="yes" name="n09"/>
      <point x="652.667" y="737.667"/>
      <point x="823.667" y="561.667"/>
    </contour>
    <contour>
      <point x="779" y="350" type="curve" smooth="yes" name="n12"/>
      <point x="779" y="539"/>
      <point x="627.333" y="694"/>
      <point x="439" y="694" type="curve" smooth="yes" name="n15"/>
      <point x="251" y="694"/>
      <point x="97.6667" y="540.333"/>
      <point x="97.6667" y="349.333" type="curve" smooth="yes" name="n18"/>
      <point x="97.6667" y="161.333"/>
      <point x="250" y="6.66667"/>
      <point x="438" y="6.66667" type="curve" smooth="yes" name="n21"/>
      <point x="626" y="6.66667"/>
      <point x="779" y="161.667"/>
    </contour>
    <contour>
      <point x="600" y="138.333" type="line"/>
      <point x="598" y="137.667"/>
      <point x="535" y="114"/>
      <point x="457" y="114" type="curve" smooth="yes" name="n27"/>
      <point x="305" y="114"/>
      <point x="212.667" y="216.333"/>
      <point x="212.667" y="350" type="curve" smooth="yes" name="n30"/>
      <point x="212.667" y="485"/>
      <point x="308.333" y="585"/>
      <point x="459" y="585" type="curve" smooth="yes" name="n33"/>
      <point x="523.667" y="585"/>
      <point x="570.667" y="568"/>
      <point x="600" y="559.333" type="curve"/>
      <point x="600" y="439.667" type="line"/>
      <point x="551.333" y="439.667" type="line"/>
      <point x="536.667" y="517" type="line"/>
      <point x="526.667" y="523.667"/>
      <point x="501.667" y="537"/>
      <point x="470.333" y="537" type="curve" smooth="yes" name="n42"/>
      <point x="378.333" y="537"/>
      <point x="312" y="458.333"/>
      <point x="312" y="350.667" type="curve" smooth="yes" name="n45"/>
      <point x="312" y="234.333"/>
      <point x="380.667" y="161.333"/>
      <point x="462.667" y="161.333" type="curve" smooth="yes" name="n48"/>
      <point x="496.333" y="161.333"/>
      <point x="526.667" y="173.333"/>
      <point x="538" y="178.667" type="curve"/>
      <point x="552" y="264" type="line"/>
      <point x="600" y="264" type="line"/>
    </contour>
  </outline>
</glyph>
<glyph name="registered" format="2">
  <advance width="836"/>
  <unicode hex="00AE"/>
  <outline>
    <contour>
      <point x="823.667" y="350" type="curve" smooth="yes" name="n00"/>
      <point x="823.667" y="136.333"/>
      <point x="651.333" y="-37"/>
      <point x="437" y="-37" type="curve" smooth="yes" name="n03"/>
      <point x="226.333" y="-37"/>
      <point x="53" y="136.333"/>
      <point x="53" y="350" type="curve" smooth="yes" name="n06"/>
      <point x="53" y="563.333"/>
      <point x="225.667" y="737.667"/>
      <point x="439" y="737.667" type="curve" smooth="yes" name="n09"/>
      <point x="649.333" y="737.667"/>
      <point x="823.667" y="564.333"/>
    </contour>
    <contour>
      <point x="779" y="350" type="curve" smooth="yes" name="n12"/>
      <point x="779" y="540.333"/>
      <point x="626.667" y="694"/>
      <point x="439" y="694" type="curve" smooth="yes" name="n15"/>
      <point x="252.333" y="694"/>
      <point x="97.6667" y="542.333"/>
      <point x="97.6667" y="348" type="curve" smooth="yes" name="n18"/>
      <point x="97.6667" y="161.333"/>
      <point x="249.333" y="6.66667"/>
      <point x="438" y="6.66667" type="curve" smooth="yes" name="n21"/>
      <point x="626.667" y="6.66667"/>
      <point x="779" y="162.333"/>
    </contour>
    <contour>
      <point x="682" y="142" type="line"/>
      <point x="668.333" y="140"/>
      <point x="642.333" y="137.333"/>
      <point x="622.667" y="137.333" type="curve" smooth="yes" name="n27"/>
      <point x="446.333" y="137.333"/>
      <point x="551.667" y="335.667"/>
      <point x="390.333" y="335.667" type="curve" smooth="yes" name="n30"/>
      <point x="378.667" y="335.667"/>
      <point x="368" y="335.333"/>
      <point x="364" y="335.333" type="curve"/>
      <point x="364" y="189" type="line" smooth="yes" name="n34"/>
      <point x="364" y="182"/>
      <point x="369.333" y="175.333"/>
      <point x="379" y="174.667" type="curve" smooth="yes"/>
      <point x="416.667" y="171.667" type="line"/>
      <point x="416.667" y="142" type="line"/>
      <point x="232.667" y="142" type="line"/>
      <point x="232.667" y="171.667" type="line"/>
      <point x="269.667" y="174.667" type="line" smooth="yes"/>
      <point x="279" y="175.333"/>
      <point x="284.667" y="182"/>
      <point x="284.667" y="189" type="curve" smooth="yes" name="n45"/>
      <point x="284.667" y="533" type="line" smooth="yes"/>
      <point x="284.667" y="539.667"/>
      <point x="279.012" y="546.139"/>
      <point x="269.667" y="547" type="curve" smooth="yes"/>
      <point x="232.667" y="550.333" type="line"/>
      <point x="232.667" y="580" type="line"/>
      <point x="430.667" y="580" type="line" smooth="yes" name="n52"/>
      <point x="519.333" y="580"/>
      <point x="595.333" y="554.667"/>
      <point x="595.333" y="466.333" type="curve" smooth="yes" name="n55"/>
      <point x="595.333" y="391.667"/>
      <point x="531.333" y="366"/>
      <point x="478.667" y="355.667" type="curve"/>
      <point x="633.333" y="322.333"/>
      <point x="518.333" y="165.333"/>
      <point x="682" y="171" type="curve" name="n61"/>
    </contour>
    <contour>
      <point x="510" y="456.667" type="curve" smooth="yes" name="n62"/>
      <point x="510" y="511.667"/>
      <point x="475" y="542.667"/>
      <point x="393.667" y="542.667" type="curve" smooth="yes" name="n65"/>
      <point x="364" y="542.667" type="line"/>
      <point x="364" y="366.667" type="line"/>
      <point x="369.333" y="366.333"/>
      <point x="387.333" y="365.667"/>
      <point x="396" y="365.667" type="curve" smooth="yes" name="n70"/>
      <point x="462.333" y="365.667"/>
      <point x="510" y="385.333"/>
    </contour>
  </outline>
</glyph>
<glyph name="mu" format="2">
  <advance width="558"/>
  <unicode hex="00B5"/>
  <outline>
    <contour>
      <point x="534" y="111.333" type="line"/>
      <point x="516.333" y="44.6667"/>
      <point x="476.333" y="-12"/>
      <point x="401.333" y="-12" type="curve" smooth="yes" name="n03"/>
      <point x="347.333" y="-12"/>
      <point x="330.667" y="33.3333"/>
      <point x="330.333" y="79.3333" type="curve" name="n06"/>
      <point x="286" y="34.6667"/>
      <point x="233.667" y="-12"/>
      <point x="166.667" y="-12" type="curve" smooth="yes" name="n09"/>
      <point x="139" y="-12"/>
      <point x="103.333" y="3.66667"/>
      <point x="90.3333" y="30.3333" type="curve"/>
      <point x="79.3333" y="-24.6667"/>
      <point x="81.3333" y="-65.3333"/>
      <point x="81.3333" y="-120" type="curve" smooth="yes" name="n15"/>
      <point x="81.3333" y="-161.333"/>
      <point x="64.3333" y="-222" name="n17"/>
      <point x="12.6667" y="-222" type="curve" smooth="yes"/>
      <point x="-11.6667" y="-222"/>
      <point x="-28" y="-200"/>
      <point x="-28" y="-177" type="curve" smooth="yes" name="n21"/>
      <point x="-28" y="-136"/>
      <point x="0.333333" y="-99"/>
      <point x="15" y="-62" type="curve" smooth="yes"/>
      <point x="33.3333" y="-13"/>
      <point x="45.3885" y="38.0536"/>
      <point x="55.3333" y="89.3333" type="curve" smooth="yes"/>
      <point x="133.333" y="484" type="line" name="n28"/>
      <point x="237" y="484" type="line"/>
      <point x="178.333" y="185.667" type="line" smooth="yes"/>
      <point x="173.333" y="162.333"/>
      <point x="168.667" y="138"/>
      <point x="168.667" y="113" type="curve" smooth="yes" name="n33"/>
      <point x="168.667" y="83.6667"/>
      <point x="185.667" y="54.3333"/>
      <point x="218.667" y="54.3333" type="curve" smooth="yes" name="n36"/>
      <point x="264.667" y="54.3333"/>
      <point x="303.667" y="92.3333"/>
      <point x="335.333" y="121.667" type="curve"/>
      <point x="407.333" y="484" type="line"/>
      <point x="511.667" y="484" type="line"/>
      <point x="441.333" y="127.333" type="line" smooth="yes"/>
      <point x="437.333" y="108"/>
      <point x="422.333" y="48.3333" name="hr01"/>
      <point x="455" y="48.3333" type="curve" smooth="yes" name="n45"/>
      <point x="485.667" y="48.3333"/>
      <point x="500.667" y="88.6667"/>
      <point x="509.667" y="111.333" type="curve"/>
    </contour>
  </outline>
</glyph>
<glyph name="cedilla" format="2">
  <advance width="240"/>
  <unicode hex="00B8"/>
  <outline>
    <contour>
      <point x="166" y="-112.333" type="curve" smooth="yes" name="n00"/>
      <point x="166" y="-184.333"/>
      <point x="97.6667" y="-225.667"/>
      <point x="23.6667" y="-225.667" type="curve" smooth="yes" name="n03"/>
      <point x="-10" y="-225.667"/>
      <point x="-46.6667" y="-216.667"/>
      <point x="-56" y="-214" type="curve"/>
      <point x="-46.6667" y="-170.667" type="line"/>
      <point x="-36.6667" y="-173.333"/>
      <point x="-5.66667" y="-180.667"/>
      <point x="17.3333" y="-180.667" type="curve" smooth="yes" name="n10"/>
      <point x="38" y="-180.667"/>
      <point x="83" y="-173"/>
      <point x="83" y="-135.667" type="curve" smooth="yes" name="n13"/>
      <point x="83" y="-116"/>
      <point x="65.3333" y="-108.667"/>
      <point x="48.6667" y="-108.667" type="curve" smooth="yes"/>
      <point x="42.3333" y="-108.667"/>
      <point x="33.6667" y="-111.333"/>
      <point x="19.6667" y="-118" type="curve"/>
      <point x="47.3333" y="24" type="line" name="n20"/>
      <point x="99" y="24" type="line"/>
      <point x="83" y="-58.6667" type="line"/>
      <point x="86.3333" y="-58" name="hr01"/>
      <point x="91" y="-57.6667"/>
      <point x="97.6667" y="-57.6667" type="curve" smooth="yes" name="n25"/>
      <point x="140.333" y="-57.6667"/>
      <point x="166" y="-75"/>
    </contour>
  </outline>
</glyph>
<glyph name="guillemotright" format="2">
  <advance width="408"/>
  <unicode hex="00BB"/>
  <outline>
    <contour>
      <point x="285" y="482" type="line" name="n00"/>
      <point x="390" y="267" type="line"/>
      <point x="379.667" y="216" type="line"/>
      <point x="187.667" y="0" type="line" name="n03"/>
      <point x="135.333" y="0" type="line"/>
      <point x="298.333" y="241" type="line"/>
      <point x="232.667" y="482" type="line"/>
    </contour>
    <contour>
      <point x="114.667" y="482" type="line"/>
      <point x="219" y="267" type="line"/>
      <point x="209" y="216" type="line"/>
      <point x="16.6667" y="0" type="line"/>
      <point x="-35.6667" y="0" type="line"/>
      <point x="127.667" y="241" type="line"/>
      <point x="62.3333" y="482" type="line"/>
    </contour>
  </outline>
</glyph>
<glyph name="onehalf" format="2">
  <advance width="888"/>
  <unicode hex="00BD"/>
  <outline>
    <contour>
      <point x="829" y="319.333" type="curve" smooth="yes" name="n00"/>
      <point x="829" y="206.667"/>
      <point x="647.667" y="109.333"/>
      <point x="564.333" y="58.6667" type="curve"/>
      <point x="741.667" y="58.6667" type="line" name="n04"/>
      <point x="763.333" y="109.333" type="line"/>
      <point x="802.333" y="109.333" type="line"/>
      <point x="780" y="0" type="line" name="n07"/>
      <point x="469.333" y="0" type="line"/>
      <point x="479" y="46" type="line"/>
      <point x="563.667" y="101.333"/>
      <point x="749" y="196.333"/>
      <point x="749" y="312.333" type="curve" smooth="yes" name="n12"/>
      <point x="749" y="353"/>
      <point x="722.667" y="372.667"/>
      <point x="682.667" y="372.667" type="curve" smooth="yes" name="n15"/>
      <point x="660.333" y="372.667"/>
      <point x="642.333" y="365"/>
      <point x="634.333" y="362" type="curve"/>
      <point x="620.333" y="293.667" type="line"/>
      <point x="615.667" y="291.667"/>
      <point x="601.333" y="282.667"/>
      <point x="581.667" y="282.667" type="curve" smooth="yes"/>
      <point x="567.667" y="282.667"/>
      <point x="545" y="287.667"/>
      <point x="545" y="312.667" type="curve" smooth="yes"/>
      <point x="545" y="371.667"/>
      <point x="634.667" y="412"/>
      <point x="708.333" y="412" type="curve" smooth="yes" name="n28"/>
      <point x="769.333" y="412"/>
      <point x="829" y="387.667"/>
    </contour>
    <contour>
      <point x="762" y="697" type="line"/>
      <point x="181.667" y="0" type="line"/>
      <point x="110" y="0" type="line"/>
      <point x="690.333" y="697" type="line"/>
    </contour>
    <contour>
      <point x="295" y="703.333" type="line" name="n35"/>
      <point x="220.333" y="344.333" type="line" smooth="yes"/>
      <point x="218.499" y="335.699"/>
      <point x="224" y="330.667"/>
      <point x="233.667" y="330.333" type="curve"/>
      <point x="278.667" y="326.333" type="line"/>
      <point x="278.667" y="293.333" type="line"/>
      <point x="71.6667" y="293.333" type="line"/>
      <point x="71.6667" y="327" type="line"/>
      <point x="130.333" y="330.333" type="line"/>
      <point x="141.667" y="330.333"/>
      <point x="147.333" y="336"/>
      <point x="149.667" y="344.667" type="curve"/>
      <point x="210.333" y="642.667" type="line"/>
      <point x="113" y="631" type="line"/>
      <point x="113" y="663.667" type="line"/>
      <point x="266.333" y="703.333" type="line"/>
    </contour>
  </outline>
</glyph>
<glyph name="yacute" format="2">
  <advance width="512"/>
  <unicode hex="00FD"/>
  <outline>
    <contour>
      <point x="540" y="444" type="line"/>
      <point x="489.333" y="412.667" type="line"/>
      <point x="473.333" y="397.667"/>
      <point x="425.333" y="322"/>
      <point x="407.333" y="280.333" type="curve" smooth="yes"/>
      <point x="379" y="216.333"/>
      <point x="329.333" y="92.6667"/>
      <point x="265.667" y="-15.3333" type="curve" smooth="yes"/>
      <point x="202" y="-124.667"/>
      <point x="121" y="-229"/>
      <point x="16.6667" y="-229" type="curve" smooth="yes" name="n10"/>
      <point x="-59" y="-229"/>
      <point x="-80.3333" y="-185.667"/>
      <point x="-80.3333" y="-159.667" type="curve" smooth="yes"/>
      <point x="-80.3333" y="-128.667"/>
      <point x="-54.6667" y="-94.6667"/>
      <point x="-7.33333" y="-92.6667" type="curve" name="n16"/>
      <point x="45.6667" y="-156.667" type="line"/>
      <point x="88.6667" y="-150.667"/>
      <point x="128.667" y="-97"/>
      <point x="192.667" y="19" type="curve"/>
      <point x="189.667" y="35"/>
      <point x="171.667" y="133.667"/>
      <point x="150.667" y="229.333" type="curve" smooth="yes"/>
      <point x="130" y="322.667"/>
      <point x="107.333" y="426"/>
      <point x="98.3333" y="426.667" type="curve" smooth="yes"/>
      <point x="2.33333" y="434" type="line"/>
      <point x="2.33333" y="461" type="line"/>
      <point x="22" y="467.667"/>
      <point x="110.667" y="496" name="n30"/>
      <point x="129.667" y="496" type="curve" smooth="yes"/>
      <point x="173.333" y="496"/>
      <point x="195.667" y="466.667"/>
      <point x="218.333" y="391.333" type="curve" smooth="yes"/>
      <point x="234.333" y="336.667"/>
      <point x="252" y="250"/>
      <point x="270.667" y="152.667" type="curve"/>
      <point x="417.667" y="496" type="line"/>
      <point x="453" y="496" type="line"/>
      <point x="540" y="468" type="line"/>
    </contour>
    <contour>
      <point x="476.333" y="686.333" type="curve" smooth="yes"/>
      <point x="476.333" y="669.333"/>
      <point x="466.667" y="654.333"/>
      <point x="451.667" y="645" type="curve" smooth="yes"/>
      <point x="298" y="551" type="line"/>
      <point x="228" y="551" type="line"/>
      <point x="364.333" y="705.333" type="line" smooth="yes"/>
      <point x="380.333" y="723.667"/>
      <point x="394.333" y="732.667" name="n49"/>
      <point x="423.333" y="732.667" type="curve" smooth="yes"/>
      <point x="461" y="732.667"/>
      <point x="476.333" y="707.667"/>
    </contour>
  </outline>
</glyph>
<glyph name="dotlessi" format="2">
  <advance width="281"/>
  <unicode hex="0131"/>
  <anchor x="170" y="570" name="top"/>
  <outline>
    <contour>
      <point x="278" y="30" type="line"/>
      <point x="248" y="14.6667"/>
      <point x="180.333" y="-12"/>
      <point x="124.333" y="-12" type="curve" smooth="yes" name="n03"/>
      <point x="66.9085" y="-12"/>
      <point x="46.1093" y="23.788"/>
      <point x="46.1093" y="62.1458" type="curve" smooth="yes"/>
      <point x="46.1093" y="70.9527"/>
      <point x="47.1772" y="80.0053"/>
      <point x="48.6667" y="87.6667" type="curve" smooth="yes"/>
      <point x="112.333" y="424.333" type="line"/>
      <point x="26.3333" y="433.333" type="line"/>
      <point x="26.3333" y="464.333" type="line"/>
      <point x="182" y="496" type="line" name="n13"/>
      <point x="232.667" y="496" type="line"/>
      <point x="156.333" y="95.6667" type="line" smooth="yes"/>
      <point x="155.377" y="90.8411"/>
      <point x="154.814" y="86.1197"/>
      <point x="154.82" y="81.7851" type="curve" smooth="yes"/>
      <point x="154.832" y="62.0007"/>
      <point x="166.98" y="46.3333"/>
      <point x="187.156" y="46.3333" type="curve" smooth="yes" name="n21"/>
      <point x="207.667" y="46.3333"/>
      <point x="256.717" y="63"/>
      <point x="278" y="73.6667" type="curve"/>
    </contour>
  </outline>
</glyph>
<glyph name="ij" format="2">
  <advance width="568"/>
  <unicode hex="0133"/>
  <outline>
    <contour>
      <point x="271" y="648.333" type="curve" smooth="yes" name="n00"/>
      <point x="271" y="614.667"/>
      <point x="244.667" y="585"/>
      <point x="204.333" y="585" type="curve" smooth="yes"/>
      <point x="162.667" y="585"/>
      <point x="137.333" y="613.333"/>
      <point x="137.333" y="648.333" type="curve" smooth="yes" name="n06"/>
      <point x="137.333" y="680"/>
      <point x="164" y="711.333"/>
      <point x="205" y="711.333" type="curve" smooth="yes"/>
      <point x="244.667" y="711.333"/>
      <point x="271" y="681.333"/>
    </contour>
    <contour>
      <point x="278" y="30" type="line"/>
      <point x="248" y="14.6667"/>
      <point x="180.333" y="-12"/>
      <point x="124.333" y="-12" type="curve" smooth="yes" name="n15"/>
      <point x="54.6667" y="-12"/>
      <point x="39.3333" y="40.6667"/>
      <point x="48.6667" y="87.6667" type="curve" smooth="yes"/>
      <point x="112.333" y="424.333" type="line"/>
      <point x="26.3333" y="433.333" type="line"/>
      <point x="26.3333" y="464.333" type="line"/>
      <point x="182" y="496" type="line" name="n22"/>
      <point x="232.667" y="496" type="line"/>
      <point x="156.333" y="95.6667" type="line" smooth="yes"/>
      <point x="151.333" y="69.6667"/>
      <point x="162.667" y="46.3333"/>
      <point x="188.667" y="46.3333" type="curve" smooth="yes" name="n27"/>
      <point x="207.667" y="46.3333"/>
      <point x="257" y="64.3333"/>
      <point x="278" y="73.6667" type="curve"/>
    </contour>
    <contour>
      <point x="561.667" y="648.333" type="curve" smooth="yes" name="n31"/>
      <point x="561.667" y="618"/>
      <point x="533" y="585"/>
      <point x="494" y="585" type="curve" smooth="yes" name="n34"/>
      <point x="455.667" y="585"/>
      <point x="427" y="612.667"/>
      <point x="427" y="648.333" type="curve" smooth="yes" name="n37"/>
      <point x="427" y="682.667"/>
      <point x="451.667" y="712"/>
      <point x="494" y="712" type="curve" smooth="yes" name="n40"/>
      <point x="535" y="712"/>
      <point x="561.667" y="682.667"/>
    </contour>
    <contour>
      <point x="526.333" y="496" type="line"/>
      <point x="455.333" y="81.3333" type="line" smooth="yes"/>
      <point x="438" y="-19"/>
      <point x="360.667" y="-229" name="n46"/>
      <point x="225.333" y="-229" type="curve" smooth="yes"/>
      <point x="181.667" y="-229"/>
      <point x="151.667" y="-205.333"/>
      <point x="151.667" y="-174.333" type="curve" smooth="yes"/>
      <point x="151.667" y="-149.333"/>
      <point x="169.667" y="-135.333"/>
      <point x="184" y="-126.333" type="curve"/>
      <point x="282.333" y="-152.667" type="line"/>
      <point x="301" y="-129.333"/>
      <point x="324" y="-63"/>
      <point x="333.667" y="-10" type="curve" smooth="yes"/>
      <point x="408.333" y="424" type="line"/>
      <point x="323.667" y="433" type="line"/>
      <point x="323.667" y="464.333" type="line"/>
      <point x="479.667" y="496" type="line"/>
    </contour>
  </outline>
</glyph>
<glyph name="kcedilla" format="2">
  <advance width="522"/>
  <unicode hex="0137"/>
  <outline>
    <contour>
      <point x="510.667" y="24" type="line"/>
      <point x="477.667" y="7"/>
      <point x="416.667" y="-12"/>
      <point x="380" y="-12" type="curve" smooth="yes" name="n03"/>
      <point x="346.667" y="-12"/>
      <point x="311" y="12.6667"/>
      <point x="294.333" y="37.6667" type="curve" smooth="yes"/>
      <point x="269" y="76.3333"/>
      <point x="219.667" y="190"/>
      <point x="197.333" y="237.333" type="curve"/>
      <point x="159.667" y="203.667" type="line"/>
      <point x="118.333" y="0" type="line" name="n11"/>
      <point x="12.6667" y="0" type="line"/>
      <point x="146" y="665.667" type="line"/>
      <point x="58" y="674.333" type="line"/>
      <point x="58" y="706.333" type="line"/>
      <point x="217.667" y="737" type="line" name="n16"/>
      <point x="267" y="737" type="line"/>
      <point x="177" y="290" type="line"/>
      <point x="322.333" y="439.667" type="line" smooth="yes"/>
      <point x="361.333" y="480"/>
      <point x="387.667" y="496" name="n21"/>
      <point x="424" y="496" type="curve" smooth="yes"/>
      <point x="470.333" y="496"/>
      <point x="496.333" y="466.333"/>
      <point x="495.667" y="440.667" type="curve"/>
      <point x="495.667" y="417.333"/>
      <point x="480.333" y="383.667"/>
      <point x="423.333" y="364.333" type="curve"/>
      <point x="387.333" y="410" type="line"/>
      <point x="352" y="382.333"/>
      <point x="303.667" y="337.333"/>
      <point x="274.667" y="311.333" type="curve"/>
      <point x="292.667" y="277.333"/>
      <point x="315.667" y="204"/>
      <point x="345.333" y="150" type="curve" smooth="yes"/>
      <point x="375" y="95.3333"/>
      <point x="407.333" y="45" name="hr02"/>
      <point x="442" y="45" type="curve" smooth="yes" name="n38"/>
      <point x="451.667" y="45"/>
      <point x="480.667" y="51.3333"/>
      <point x="510.667" y="64.3333" type="curve"/>
    </contour>
    <contour>
      <point x="249" y="-123.333" type="curve" smooth="yes" name="n42"/>
      <point x="249" y="-206.667"/>
      <point x="168" y="-256"/>
      <point x="94.3333" y="-269.667" type="curve"/>
      <point x="101" y="-233.667" type="line"/>
      <point x="148.333" y="-220"/>
      <point x="176.333" y="-201.333"/>
      <point x="186.333" y="-151" type="curve" name="n49"/>
      <point x="130" y="-151" type="line"/>
      <point x="123" y="-143.333"/>
      <point x="120.333" y="-132.333"/>
      <point x="120.333" y="-122.333" type="curve" smooth="yes" name="n53"/>
      <point x="120.333" y="-85"/>
      <point x="153" y="-61"/>
      <point x="187.667" y="-61" type="curve" smooth="yes" name="n56"/>
      <point x="226" y="-61"/>
      <point x="249" y="-85.3333"/>
    </contour>
  </outline>
</glyph>
<glyph name="Ldot" format="2">
  <advance width="665"/>
  <unicode hex="013F"/>
  <outline>
    <contour>
      <point x="498" y="190.667" type="line"/>
      <point x="460.667" y="0" type="line" name="n01"/>
      <point x="-15" y="0" type="line"/>
      <point x="-15" y="44.6667" type="line"/>
      <point x="3.18822" y="46.4588"/>
      <point x="42.6667" y="49.3333"/>
      <point x="42.6667" y="49.3333" type="curve"/>
      <point x="57.6667" y="50.6667"/>
      <point x="65" y="55.3333"/>
      <point x="67" y="67.6667" type="curve"/>
      <point x="171" y="603" type="line" smooth="yes"/>
      <point x="173.333" y="614"/>
      <point x="168" y="620.333"/>
      <point x="153" y="621.333" type="curve"/>
      <point x="153" y="621.333"/>
      <point x="114.857" y="624.513"/>
      <point x="96" y="626.333" type="curve"/>
      <point x="96" y="671" type="line" name="n17"/>
      <point x="370" y="671" type="line"/>
      <point x="370" y="626.333" type="line"/>
      <point x="349.004" y="624.486"/>
      <point x="309" y="621.333"/>
      <point x="309" y="621.333" type="curve"/>
      <point x="296" y="620.333"/>
      <point x="288.333" y="613.333"/>
      <point x="286" y="602.667" type="curve" smooth="yes"/>
      <point x="180" y="53.3333" type="line"/>
      <point x="370" y="53.3333" type="line" smooth="yes" name="n27"/>
      <point x="382" y="53.3333"/>
      <point x="392.481" y="60.619"/>
      <point x="396" y="71.3333" type="curve" smooth="yes"/>
      <point x="433.667" y="190.667" type="line" name="n31"/>
    </contour>
    <contour>
      <point x="660" y="340" type="curve" smooth="yes" name="n32"/>
      <point x="660" y="307"/>
      <point x="635" y="281"/>
      <point x="602" y="281" type="curve" smooth="yes" name="n35"/>
      <point x="569" y="281"/>
      <point x="543" y="307"/>
      <point x="543" y="340" type="curve" smooth="yes" name="n38"/>
      <point x="543" y="373"/>
      <point x="569" y="399"/>
      <point x="602" y="399" type="curve" smooth="yes" name="n41"/>
      <point x="635" y="399"/>
      <point x="660" y="373"/>
    </contour>
  </outline>
</glyph>
<glyph name="ldot" format="2">
  <advance width="412"/>
  <unicode hex="0140"/>
  <outline>
    <contour>
      <point x="276.667" y="27" type="line"/>
      <point x="250" y="14.6667"/>
      <point x="179.333" y="-12"/>
      <point x="130.667" y="-12" type="curve" smooth="yes" name="n03"/>
      <point x="68" y="-12"/>
      <point x="39" y="18"/>
      <point x="39" y="62" type="curve" smooth="yes"/>
      <point x="39" y="72.3333"/>
      <point x="40" y="84.3333"/>
      <point x="42.3333" y="97.3333" type="curve" smooth="yes"/>
      <point x="152" y="665.667" type="line"/>
      <point x="63.3333" y="674.333" type="line"/>
      <point x="63.3333" y="706.333" type="line"/>
      <point x="223.667" y="737" type="line" name="n13"/>
      <point x="271.667" y="737" type="line"/>
      <point x="149.333" y="100" type="line" smooth="yes"/>
      <point x="144.667" y="74.3333"/>
      <point x="161.667" y="47"/>
      <point x="188.667" y="47" type="curve" smooth="yes" name="n18"/>
      <point x="206.667" y="47"/>
      <point x="253.667" y="61.3333"/>
      <point x="276.667" y="70.3333" type="curve"/>
    </contour>
    <contour>
      <point x="407.667" y="340" type="curve" smooth="yes" name="n22"/>
      <point x="407.667" y="307"/>
      <point x="381.667" y="281"/>
      <point x="348.667" y="281" type="curve" smooth="yes" name="n25"/>
      <point x="315.667" y="281"/>
      <point x="289.667" y="307"/>
      <point x="289.667" y="340" type="curve" smooth="yes" name="n28"/>
      <point x="289.667" y="373"/>
      <point x="315.667" y="399"/>
      <point x="348.667" y="399" type="curve" smooth="yes" name="n31"/>
      <point x="381.667" y="399"/>
      <point x="407.667" y="373"/>
    </contour>
  </outline>
</glyph>
<glyph name="lslash" format="2">
  <advance width="288"/>
  <unicode hex="0142"/>
  <outline>
    <contour>
      <point x="344.667" y="448" type="line"/>
      <point x="213.333" y="381.333" type="line"/>
      <point x="159.333" y="100" type="line" smooth="yes"/>
      <point x="154.667" y="74.3333"/>
      <point x="171.667" y="47"/>
      <point x="197.667" y="47" type="curve" smooth="yes" name="n05"/>
      <point x="216" y="47"/>
      <point x="263.667" y="61.3333"/>
      <point x="285.667" y="70.3333" type="curve"/>
      <point x="285.667" y="27" type="line"/>
      <point x="260" y="14.6667"/>
      <point x="189.333" y="-12"/>
      <point x="140" y="-12" type="curve" smooth="yes" name="n12"/>
      <point x="78" y="-12"/>
      <point x="48.3333" y="18"/>
      <point x="48.3333" y="62" type="curve" smooth="yes"/>
      <point x="48.3333" y="72.3333"/>
      <point x="50" y="84.3333"/>
      <point x="52.3333" y="97.3333" type="curve" smooth="yes"/>
      <point x="95.6667" y="321.667" type="line"/>
      <point x="9" y="277.667" type="line"/>
      <point x="-16" y="328" type="line"/>
      <point x="109" y="391.667" type="line"/>
      <point x="162" y="665.667" type="line"/>
      <point x="73.3333" y="674.333" type="line"/>
      <point x="73.3333" y="706.333" type="line"/>
      <point x="233.667" y="737" type="line" name="n26"/>
      <point x="281.667" y="737" type="line"/>
      <point x="227" y="451.667" type="line"/>
      <point x="319" y="498.333" type="line"/>
    </contour>
  </outline>
</glyph>
<glyph name="Eng" format="2">
  <advance width="739"/>
  <unicode hex="014A"/>
  <outline>
    <contour>
      <point x="703" y="511.333" type="curve" smooth="yes"/>
      <point x="703" y="500.333"/>
      <point x="702" y="489"/>
      <point x="700" y="477.333" type="curve" smooth="yes"/>
      <point x="603.333" y="-36.3333" type="line" smooth="yes"/>
      <point x="579.333" y="-167.667"/>
      <point x="515.667" y="-229" name="n06"/>
      <point x="362.333" y="-229" type="curve" smooth="yes"/>
      <point x="316.333" y="-229"/>
      <point x="268.333" y="-200.667"/>
      <point x="268.333" y="-163.333" type="curve" smooth="yes"/>
      <point x="268.333" y="-128.667"/>
      <point x="299" y="-85.3333"/>
      <point x="333.333" y="-85.3333" type="curve"/>
      <point x="402" y="-168" type="line"/>
      <point x="462.667" y="-158.333"/>
      <point x="473" y="-118.333"/>
      <point x="487" y="-43.3333" type="curve" smooth="yes"/>
      <point x="584" y="477.333" type="line" smooth="yes"/>
      <point x="599.333" y="558"/>
      <point x="533" y="610.667"/>
      <point x="466" y="610.667" type="curve" smooth="yes" name="n21"/>
      <point x="390" y="610.667"/>
      <point x="288.667" y="512"/>
      <point x="258.667" y="460.667" type="curve"/>
      <point x="182.333" y="69.3333" type="line" smooth="yes"/>
      <point x="180.333" y="58.3333"/>
      <point x="185.667" y="50.6667"/>
      <point x="201.667" y="49.6667" type="curve"/>
      <point x="201.667" y="49.6667"/>
      <point x="236.318" y="46.2829"/>
      <point x="256.667" y="44.6667" type="curve"/>
      <point x="256.667" y="0" type="line" name="n32"/>
      <point x="-15" y="0" type="line"/>
      <point x="-15" y="44.6667" type="line"/>
      <point x="3.66826" y="46.1381"/>
      <point x="43" y="49.3333"/>
      <point x="43" y="49.3333" type="curve"/>
      <point x="58" y="50.6667"/>
      <point x="65.3333" y="57"/>
      <point x="67.3333" y="69.3333" type="curve"/>
      <point x="170.333" y="599.667" type="line" smooth="yes"/>
      <point x="172.667" y="612.667"/>
      <point x="169.333" y="620.333"/>
      <point x="151.333" y="621.667" type="curve"/>
      <point x="151.333" y="621.667"/>
      <point x="112.845" y="624.877"/>
      <point x="95" y="626.333" type="curve"/>
      <point x="95" y="671" type="line" name="n48"/>
      <point x="299.333" y="671" type="line"/>
      <point x="279.333" y="568.333" type="line"/>
      <point x="340.667" y="643.667"/>
      <point x="419" y="687" name="hr02"/>
      <point x="510" y="687" type="curve" smooth="yes" name="n53"/>
      <point x="608.667" y="687"/>
      <point x="703" y="614.667"/>
    </contour>
  </outline>
</glyph>
<glyph name="tbar" format="2">
  <advance width="314"/>
  <unicode hex="0167"/>
  <outline>
    <contour>
      <point x="326" y="222" type="line" name="n00"/>
      <point x="176.667" y="222" type="line"/>
      <point x="153" y="106.333" type="line" smooth="yes"/>
      <point x="146" y="72.6667"/>
      <point x="171.667" y="51.6667"/>
      <point x="204.667" y="51.6667" type="curve" smooth="yes" name="n05"/>
      <point x="240.333" y="51.6667"/>
      <point x="291" y="71"/>
      <point x="315.667" y="79.3333" type="curve"/>
      <point x="315.667" y="34.3333" type="line"/>
      <point x="297" y="26.3333"/>
      <point x="205" y="-12"/>
      <point x="145.333" y="-12" type="curve" smooth="yes" name="n12"/>
      <point x="71.6667" y="-12"/>
      <point x="44.6667" y="25.3333"/>
      <point x="44.6667" y="75.3333" type="curve" smooth="yes"/>
      <point x="44.6667" y="88.3333"/>
      <point x="45.6667" y="102"/>
      <point x="48.6667" y="116" type="curve" smooth="yes"/>
      <point x="69.6667" y="222" type="line"/>
      <point x="11.3333" y="222" type="line"/>
      <point x="11.3333" y="278.333" type="line"/>
      <point x="81" y="278.333" type="line"/>
      <point x="109.667" y="418" type="line"/>
      <point x="43.6667" y="411.333" type="line"/>
      <point x="43.6667" y="447" type="line"/>
      <point x="122" y="480.333" type="line"/>
      <point x="171.667" y="581.333" type="line"/>
      <point x="245.667" y="581.333" type="line" name="n28"/>
      <point x="225.333" y="467.667" type="line" name="hr01"/>
      <point x="363.667" y="467.667" type="line" name="n30"/>
      <point x="363.667" y="418.667" type="line" name="n31"/>
      <point x="216" y="418.667" type="line" name="n32"/>
      <point x="187.333" y="278.333" type="line"/>
      <point x="326" y="278.333" type="line" name="n34"/>
    </contour>
  </outline>
</glyph>
<glyph name="uni0185" format="2">
  <advance width="505"/>
  <unicode hex="0185"/>
  <outline>
    <contour>
      <point x="473.667" y="310.333" type="curve" smooth="yes" name="n00"/>
      <point x="473.667" y="188"/>
      <point x="396.667" y="-12"/>
      <point x="185" y="-12" type="curve" smooth="yes" name="n03"/>
      <point x="123.667" y="-12"/>
      <point x="65.3333" y="5"/>
      <point x="18" y="35.3333" type="curve"/>
      <point x="97" y="459.667" type="line"/>
      <point x="12.3333" y="540.667" type="line"/>
      <point x="261" y="763" type="line"/>
      <point x="200.667" y="445.333" type="line"/>
      <point x="236.667" y="473.667"/>
      <point x="285.333" y="496"/>
      <point x="329" y="496" type="curve" smooth="yes" name="n13"/>
      <point x="433.333" y="496"/>
      <point x="473.667" y="393.667"/>
    </contour>
    <contour>
      <point x="361.333" y="306.333" type="curve" smooth="yes" name="n16"/>
      <point x="361.333" y="394.333"/>
      <point x="319.667" y="426.667"/>
      <point x="296" y="426.667" type="curve" smooth="yes" name="n19"/>
      <point x="265.333" y="426.667"/>
      <point x="220.333" y="405.333"/>
      <point x="187.667" y="377.333" type="curve"/>
      <point x="131.667" y="75.6667" type="line"/>
      <point x="144" y="57.3333"/>
      <point x="172.333" y="38"/>
      <point x="206.667" y="38" type="curve" smooth="yes" name="n26"/>
      <point x="290" y="38"/>
      <point x="361.333" y="185"/>
    </contour>
  </outline>
</glyph>
<glyph name="uni018A" format="2">
  <advance width="705"/>
  <unicode hex="018A"/>
  <outline>
    <contour>
      <point x="687" y="414.667" type="curve" smooth="yes" name="n00"/>
      <point x="687" y="171.333"/>
      <point x="511.667" y="0"/>
      <point x="247" y="0" type="curve" smooth="yes" name="n03"/>
      <point x="5" y="0" type="line"/>
      <point x="5" y="44.6667" type="line"/>
      <point x="23.7922" y="46.123"/>
      <point x="65.3333" y="49.3333"/>
      <point x="65.3333" y="49.3333" type="curve"/>
      <point x="79.3333" y="50.3333"/>
      <point x="84.6667" y="55"/>
      <point x="87" y="67.6667" type="curve" smooth="yes"/>
      <point x="191.667" y="602.667" type="line" smooth="yes"/>
      <point x="193.333" y="611.333"/>
      <point x="185" y="614.667"/>
      <point x="176.667" y="614.667" type="curve" smooth="yes"/>
      <point x="140.333" y="614.667" type="line" smooth="yes"/>
      <point x="113.333" y="614.667"/>
      <point x="102.333" y="598"/>
      <point x="101.333" y="596.667" type="curve"/>
      <point x="128.667" y="526.667" type="line"/>
      <point x="104" y="504.667"/>
      <point x="80" y="492.333"/>
      <point x="60" y="492.333" type="curve" smooth="yes"/>
      <point x="31" y="492.333"/>
      <point x="5" y="521"/>
      <point x="5" y="548.667" type="curve" smooth="yes"/>
      <point x="5" y="627.667"/>
      <point x="84" y="671"/>
      <point x="142.333" y="671" type="curve" smooth="yes"/>
      <point x="361" y="671" type="line" smooth="yes" name="n30"/>
      <point x="551" y="671"/>
      <point x="687" y="602.667"/>
    </contour>
    <contour>
      <point x="565" y="423.667" type="curve" smooth="yes" name="n33"/>
      <point x="565" y="590"/>
      <point x="454.333" y="614"/>
      <point x="337.333" y="617.667" type="curve" name="n36"/>
      <point x="309.667" y="617.667" type="line"/>
      <point x="199.333" y="55.3333" type="line"/>
      <point x="265" y="55.3333" type="line" name="n39"/>
      <point x="458" y="57.3333"/>
      <point x="565" y="233.333"/>
    </contour>
  </outline>
</glyph>
<glyph name="uni018F" format="2">
  <advance width="615"/>
  <unicode hex="018F"/>
  <outline>
    <contour>
      <point x="597" y="429.667" type="curve" smooth="yes" name="n00"/>
      <point x="597" y="206"/>
      <point x="480" y="-16"/>
      <point x="219" y="-16" type="curve" smooth="yes" name="n03"/>
      <point x="63.6667" y="-16"/>
      <point x="21" y="94.6667"/>
      <point x="21" y="133" type="curve" smooth="yes" name="n06"/>
      <point x="21" y="289.667"/>
      <point x="154.667" y="377.333"/>
      <point x="470.333" y="379.667" type="curve" name="n09"/>
      <point x="472" y="394.667"/>
      <point x="473" y="408.333"/>
      <point x="473" y="424.333" type="curve" smooth="yes" name="n12"/>
      <point x="473" y="528.667"/>
      <point x="410" y="627"/>
      <point x="324" y="627" type="curve" smooth="yes" name="n15"/>
      <point x="234" y="627"/>
      <point x="150.333" y="553.667"/>
      <point x="83" y="492.667" type="curve"/>
      <point x="83" y="580.667" type="line"/>
      <point x="165.667" y="655.333"/>
      <point x="222.333" y="687"/>
      <point x="345.333" y="687" type="curve" smooth="yes" name="n22"/>
      <point x="439.333" y="687"/>
      <point x="597" y="618.667"/>
    </contour>
    <contour>
      <point x="461.667" y="320" type="curve" name="n25"/>
      <point x="233.333" y="316.667"/>
      <point x="156" y="233"/>
      <point x="156" y="132" type="curve" smooth="yes" name="n28"/>
      <point x="156" y="92"/>
      <point x="198" y="40"/>
      <point x="239" y="40" type="curve" smooth="yes" name="n31"/>
      <point x="338" y="40"/>
      <point x="425.667" y="169.333"/>
    </contour>
  </outline>
</glyph>
<glyph name="uni0191" format="2">
  <advance width="528"/>
  <unicode hex="0191"/>
  <outline>
    <contour>
      <point x="583.333" y="671" type="line" name="n00"/>
      <point x="551.667" y="507.333" type="line"/>
      <point x="482" y="507.333" type="line"/>
      <point x="482" y="600.667" type="line" smooth="yes"/>
      <point x="482" y="613.333"/>
      <point x="474.667" y="617.667"/>
      <point x="461" y="617.667" type="curve" smooth="yes" name="n06"/>
      <point x="288.667" y="617.667" type="line"/>
      <point x="240.333" y="365.667" type="line" name="n08"/>
      <point x="361" y="365.667" type="line" smooth="yes"/>
      <point x="373.667" y="365.667"/>
      <point x="383.333" y="370.333"/>
      <point x="386.333" y="383" type="curve"/>
      <point x="405.667" y="452.333" type="line"/>
      <point x="468.333" y="452.333" type="line"/>
      <point x="423.667" y="221.667" type="line"/>
      <point x="360.667" y="221.667" type="line"/>
      <point x="371" y="293.333" type="line" smooth="yes"/>
      <point x="372.667" y="305"/>
      <point x="362.667" y="311.333"/>
      <point x="350" y="311.333" type="curve" smooth="yes"/>
      <point x="229.667" y="311.333" type="line" name="n21"/>
      <point x="162.667" y="-31.3333" type="line" smooth="yes"/>
      <point x="137" y="-163"/>
      <point x="45.3333" y="-229" name="n24"/>
      <point x="-108" y="-229" type="curve" smooth="yes"/>
      <point x="-150.667" y="-229"/>
      <point x="-191" y="-199.667"/>
      <point x="-191" y="-160.667" type="curve" smooth="yes"/>
      <point x="-191" y="-122.667"/>
      <point x="-151.667" y="-82.6667"/>
      <point x="-117" y="-82.6667" type="curve"/>
      <point x="-50.3333" y="-169" type="line"/>
      <point x="-34" y="-165.667"/>
      <point x="-13.6667" y="-162.333"/>
      <point x="0" y="-150" type="curve"/>
      <point x="18.6667" y="-134.333"/>
      <point x="36" y="-90.6667"/>
      <point x="48.6667" y="-27" type="curve" smooth="yes"/>
      <point x="171" y="603" type="line" smooth="yes"/>
      <point x="173" y="614.333"/>
      <point x="167.333" y="620.333"/>
      <point x="151.333" y="621.333" type="curve"/>
      <point x="151.333" y="621.333"/>
      <point x="112.861" y="624.542"/>
      <point x="95" y="626.333" type="curve"/>
      <point x="95" y="671" type="line"/>
    </contour>
  </outline>
</glyph>
<glyph name="florin" format="2">
  <advance width="334"/>
  <unicode hex="0192"/>
  <outline>
    <contour>
      <point x="454.667" y="673.333" type="curve" smooth="yes"/>
      <point x="454.667" y="642"/>
      <point x="432.333" y="620.667"/>
      <point x="384" y="614" type="curve"/>
      <point x="311.333" y="675.667" type="line"/>
      <point x="265" y="636.333"/>
      <point x="244" y="507.667"/>
      <point x="236.667" y="457.667" type="curve"/>
      <point x="358.667" y="457.667" type="line" name="n08"/>
      <point x="358.667" y="404.667" type="line" name="n09"/>
      <point x="227.333" y="404.667" type="line"/>
      <point x="220.667" y="356"/>
      <point x="185.333" y="95.6667"/>
      <point x="167.667" y="22.6667" type="curve" smooth="yes"/>
      <point x="141" y="-87.3333"/>
      <point x="47.3333" y="-229" name="n15"/>
      <point x="-60.3333" y="-229" type="curve" smooth="yes"/>
      <point x="-113.333" y="-229"/>
      <point x="-130" y="-187"/>
      <point x="-130" y="-172.333" type="curve" smooth="yes"/>
      <point x="-130" y="-147"/>
      <point x="-116.333" y="-129.333"/>
      <point x="-97.3333" y="-115.667" type="curve"/>
      <point x="0.666667" y="-152" type="line"/>
      <point x="34.3333" y="-108.667"/>
      <point x="56.3333" y="-27.6667"/>
      <point x="72.3333" y="62.6667" type="curve" smooth="yes"/>
      <point x="89.3333" y="156"/>
      <point x="101" y="273.333"/>
      <point x="120.667" y="403" type="curve"/>
      <point x="44" y="395" type="line"/>
      <point x="45.3333" y="436.667" type="line"/>
      <point x="132" y="466" type="line"/>
      <point x="152" y="569.667"/>
      <point x="210.667" y="737" name="n34"/>
      <point x="356" y="737" type="curve" smooth="yes"/>
      <point x="426" y="737"/>
      <point x="454.667" y="697.333"/>
    </contour>
  </outline>
</glyph>
<glyph name="uni0193" format="2">
  <advance width="701"/>
  <unicode hex="0193"/>
  <outline>
    <contour>
      <point x="412.333" y="424.667" type="curve" smooth="yes" name="n00"/>
      <point x="412.333" y="305"/>
      <point x="482.333" y="259"/>
      <point x="520.667" y="255.667" type="curve" name="n03"/>
      <point x="541.696" y="261.953"/>
      <point x="550.658" y="294.075"/>
      <point x="559" y="299.333" type="curve"/>
      <point x="550.521" y="312.518"/>
      <point x="562.716" y="381.616"/>
      <point x="563.333" y="387" type="curve"/>
      <point x="562.598" y="384.22"/>
      <point x="553.336" y="356.641"/>
      <point x="538" y="341" type="curve"/>
      <point x="472.667" y="344.333" type="line"/>
      <point x="476" y="408.667" type="line"/>
      <point x="499.821" y="411.333"/>
      <point x="613.783" y="415.333"/>
      <point x="643.333" y="416.333" type="curve"/>
      <point x="639.667" y="416.493"/>
      <point x="623" y="400.22"/>
      <point x="612.667" y="395.667" type="curve"/>
      <point x="567.16" y="395.271"/>
      <point x="487.13" y="347.076"/>
      <point x="478.667" y="269.333" type="curve"/>
      <point x="470" y="214.333"/>
      <point x="506.333" y="196.333"/>
      <point x="519.667" y="187.667" type="curve"/>
      <point x="523.548" y="162.678"/>
      <point x="513.772" y="51.9551"/>
      <point x="516.333" y="35.6667" type="curve"/>
      <point x="503.608" y="35.4179"/>
      <point x="438.221" y="63.2481"/>
      <point x="385.333" y="75.6667" type="curve" name="n32"/>
      <point x="234" y="79.6667"/>
      <point x="195" y="195.333"/>
      <point x="189.667" y="270.333" type="curve" name="n35"/>
      <point x="189.667" y="441"/>
      <point x="324" y="550.333" name="n37"/>
      <point x="458.333" y="551" type="curve"/>
      <point x="485" y="554.117"/>
      <point x="503.667" y="562.787"/>
      <point x="530.333" y="559.333" type="curve"/>
      <point x="567.28" y="626"/>
      <point x="670.479" y="673.333" name="n43"/>
      <point x="762.333" y="673.333" type="curve"/>
      <point x="799.667" y="669.005"/>
      <point x="817.667" y="643.319"/>
      <point x="817.667" y="621" type="curve"/>
      <point x="814.073" y="601.402"/>
      <point x="781.363" y="580.938"/>
      <point x="758.333" y="576" type="curve"/>
      <point x="744.916" y="584.866"/>
      <point x="713.606" y="609.967"/>
      <point x="702.333" y="616.333" type="curve"/>
      <point x="667.383" y="593.431"/>
      <point x="655.526" y="530.924"/>
      <point x="638.333" y="440.667" type="curve"/>
      <point x="617.328" y="422.752"/>
      <point x="572.08" y="341.028"/>
      <point x="540.333" y="322.667" type="curve"/>
      <point x="443.345" y="322.667"/>
      <point x="398.317" y="382.333"/>
      <point x="393.333" y="417.667" type="curve"/>
      <point x="393.822" y="511.535"/>
      <point x="467.555" y="606.425"/>
      <point x="543.667" y="616.333" type="curve"/>
      <point x="556.667" y="623"/>
      <point x="560" y="634.333"/>
      <point x="572.333" y="632.333" type="curve"/>
      <point x="575.333" y="677.333"/>
      <point x="587" y="705.667"/>
      <point x="590" y="705.667" type="curve"/>
      <point x="503" y="705.667"/>
      <point x="412.333" y="590.667"/>
    </contour>
  </outline>
</glyph>
<glyph name="uni019A" format="2">
  <advance width="279"/>
  <unicode hex="019A"/>
  <outline>
    <contour>
      <point x="318" y="359.333" type="line"/>
      <point x="270.333" y="322.667" type="line"/>
      <point x="178" y="249.333" type="line" name="n02"/>
      <point x="171.53" y="214.91"/>
      <point x="155.167" y="112.32"/>
      <point x="158" y="83.6667" type="curve" smooth="yes"/>
      <point x="160" y="65.6667"/>
      <point x="188.333" y="50"/>
      <point x="222.667" y="57" type="curve" name="n08"/>
      <point x="235.333" y="54.9593"/>
      <point x="269.333" y="51.5579"/>
      <point x="276.667" y="52.3333" type="curve"/>
      <point x="260.667" y="39.8875"/>
      <point x="240.667" y="17.2847"/>
      <point x="223.333" y="13.3333" type="curve"/>
      <point x="190.667" y="9.33333"/>
      <point x="127" y="-2"/>
      <point x="95.6667" y="13.3333" type="curve" name="n17"/>
      <point x="55" y="17"/>
      <point x="39.4996" y="41.029"/>
      <point x="40.3333" y="74" type="curve"/>
      <point x="42.3716" y="91.1896"/>
      <point x="52.6525" y="148.826"/>
      <point x="56.6667" y="171.333" type="curve"/>
      <point x="53.3333" y="322.667" type="line"/>
      <point x="-8.33333" y="344.667" type="line"/>
      <point x="31.6667" y="381.333" type="line"/>
      <point x="115.333" y="472.333" type="line"/>
      <point x="122.667" y="668.333" type="line"/>
      <point x="63.3333" y="686.333" type="line"/>
      <point x="119.667" y="717" type="line"/>
      <point x="245.667" y="737" type="line" name="n31"/>
      <point x="249" y="620.667" type="line"/>
      <point x="243.667" y="381.333" type="line" name="n33"/>
    </contour>
  </outline>
</glyph>
<glyph name="uni019B" format="2">
  <advance width="586"/>
  <unicode hex="019B"/>
  <outline>
    <contour>
      <point x="452.333" y="468.667" type="curve"/>
      <point x="442.179" y="433.679"/>
      <point x="362.16" y="394.337"/>
      <point x="336.667" y="388" type="curve"/>
      <point x="322.344" y="330.53"/>
      <point x="348.75" y="163.569"/>
      <point x="354.333" y="134.667" type="curve" smooth="yes"/>
      <point x="363.377" y="91.1387"/>
      <point x="361.476" y="111.108"/>
      <point x="391.333" y="120.667" type="curve" name="n09"/>
      <point x="377" y="93.3333" type="line"/>
      <point x="393.408" y="93.3333"/>
      <point x="377.974" y="71.3333"/>
      <point x="371.333" y="53.3333" type="curve"/>
      <point x="386.22" y="33.8801"/>
      <point x="395.495" y="115.387"/>
      <point x="358" y="147" type="curve" name="n16"/>
      <point x="311.774" y="150.955"/>
      <point x="295.697" y="193.104"/>
      <point x="284.667" y="249" type="curve"/>
      <point x="209.333" y="361.333" type="line"/>
      <point x="76" y="163" type="line" name="n21"/>
      <point x="50.3333" y="197.333" type="line"/>
      <point x="76.7832" y="260.597"/>
      <point x="188.938" y="470.995"/>
      <point x="208" y="530.333" type="curve"/>
      <point x="176.667" y="552" type="line"/>
      <point x="147.29" y="539.3"/>
      <point x="83.9881" y="502.495"/>
      <point x="68.3333" y="505" type="curve"/>
      <point x="68.3333" y="539.252"/>
      <point x="107.667" y="575.742"/>
      <point x="126.333" y="581.667" type="curve"/>
      <point x="159.611" y="594.047"/>
      <point x="217.061" y="623.066"/>
      <point x="236" y="618.667" type="curve"/>
      <point x="233.765" y="678.615"/>
      <point x="242.652" y="700.286"/>
      <point x="218.333" y="704.667" type="curve" name="n38"/>
      <point x="173.667" y="610" type="line"/>
      <point x="142.263" y="605.812"/>
      <point x="111.864" y="614.493"/>
      <point x="108.667" y="629.667" type="curve"/>
      <point x="114.104" y="649.489"/>
      <point x="186.664" y="569.471"/>
      <point x="250.333" y="538.333" type="curve" name="n45"/>
      <point x="291.667" y="524.333"/>
      <point x="310.333" y="484.667"/>
      <point x="338.667" y="447.333" type="curve"/>
      <point x="424" y="539.667" type="line"/>
      <point x="439" y="531.509"/>
      <point x="452.333" y="494.244"/>
    </contour>
  </outline>
</glyph>
<glyph name="uni01A3" format="2">
  <advance width="752"/>
  <unicode hex="01A3"/>
  <outline>
    <contour>
      <point x="328.333" y="140.667" type="curve" smooth="yes"/>
      <point x="387.333" y="425.333" type="line"/>
      <point x="354" y="446"/>
      <point x="334.667" y="448.333"/>
      <point x="304" y="448.333" type="curve" smooth="yes" name="n04"/>
      <point x="207" y="448.333"/>
      <point x="146.333" y="301.333"/>
      <point x="146.333" y="183" type="curve" smooth="yes" name="n07"/>
      <point x="146.333" y="83.3333"/>
      <point x="184" y="36.3333"/>
      <point x="232.667" y="36.3333" type="curve" smooth="yes" name="n10"/>
      <point x="288.333" y="36.3333"/>
      <point x="314.333" y="71.3333"/>
    </contour>
    <contour>
      <point x="352" y="70.6667" type="curve"/>
      <point x="294" y="20.6667"/>
      <point x="214" y="15.6667"/>
      <point x="159.333" y="52.3333" type="curve" name="n16"/>
      <point x="74" y="104.667"/>
      <point x="62.3333" y="207.333"/>
      <point x="132.667" y="284.667" type="curve" name="n19"/>
      <point x="169.667" y="392.667"/>
      <point x="267" y="484"/>
      <point x="401.667" y="484" type="curve" smooth="yes" name="n22"/>
      <point x="479.333" y="484"/>
      <point x="543.333" y="461.667"/>
      <point x="596.333" y="468" type="curve"/>
      <point x="619.697" y="468"/>
      <point x="659.396" y="471.333"/>
      <point x="693.333" y="484" type="curve"/>
      <point x="679" y="273" type="line"/>
      <point x="660.642" y="179.166"/>
      <point x="614.682" y="-71.5898"/>
      <point x="602.333" y="-159.333" type="curve"/>
      <point x="604.211" y="-168.959"/>
      <point x="620.469" y="-173.067"/>
      <point x="632.667" y="-174" type="curve"/>
      <point x="674" y="-193" type="line"/>
      <point x="576.667" y="-218.333" type="line" name="n37"/>
      <point x="408" y="-202.667" type="line"/>
      <point x="427.667" y="-176" type="line"/>
      <point x="437.859" y="-175.437"/>
      <point x="465.183" y="-169.527"/>
      <point x="471.333" y="-165" type="curve"/>
      <point x="485.794" y="-132.031"/>
      <point x="515.14" y="-14.6344"/>
      <point x="523" y="26" type="curve"/>
      <point x="521.134" y="71.7926"/>
      <point x="552.138" y="345.646"/>
      <point x="550.667" y="390.333" type="curve"/>
      <point x="531.597" y="375.348"/>
      <point x="488.552" y="315.424"/>
      <point x="471" y="308" type="curve"/>
      <point x="456.311" y="237.189"/>
      <point x="388.02" y="98.3156"/>
    </contour>
  </outline>
</glyph>
<glyph name="uni01A4" format="2">
  <advance width="625"/>
  <unicode hex="01A4"/>
  <outline>
    <contour>
      <point x="617" y="509.569" type="curve" smooth="yes" name="n00"/>
      <point x="617" y="350.571"/>
      <point x="487.738" y="249.333"/>
      <point x="302.356" y="249.333" type="curve" smooth="yes"/>
      <point x="246.383" y="249.333" type="line" name="n04"/>
      <point x="208.667" y="67.3333" type="line" smooth="yes"/>
      <point x="207.894" y="63.5841"/>
      <point x="211.683" y="50.8982"/>
      <point x="227.333" y="49.6667" type="curve" smooth="yes"/>
      <point x="289" y="44.6667" type="line"/>
      <point x="289" y="0" type="line"/>
      <point x="15" y="0" type="line"/>
      <point x="15" y="44.6667" type="line"/>
      <point x="65.6667" y="49.6667" type="line" smooth="yes"/>
      <point x="78.6435" y="50.9195"/>
      <point x="87.769" y="55.2995"/>
      <point x="90.3333" y="67.6667" type="curve" smooth="yes"/>
      <point x="200.667" y="598.377" type="line" smooth="yes"/>
      <point x="201.232" y="601.107"/>
      <point x="197.182" y="617.667"/>
      <point x="184" y="617.667" type="curve" smooth="yes" name="n20"/>
      <point x="159.667" y="617.667" type="line" smooth="yes"/>
      <point x="129" y="617.667"/>
      <point x="115.667" y="610.35"/>
      <point x="102" y="594.383" type="curve"/>
      <point x="128.667" y="523.531" type="line"/>
      <point x="103" y="501.242"/>
      <point x="83.6667" y="493.594"/>
      <point x="61.6735" y="493.594" type="curve" smooth="yes"/>
      <point x="27.3333" y="493.594"/>
      <point x="7.33333" y="523.544"/>
      <point x="7.33333" y="561.241" type="curve" smooth="yes"/>
      <point x="7.33333" y="640.298"/>
      <point x="93.6667" y="671"/>
      <point x="174.333" y="671" type="curve" smooth="yes" name="n34"/>
      <point x="382" y="671" type="line" smooth="yes"/>
      <point x="553.667" y="671"/>
      <point x="617" y="601.042"/>
    </contour>
    <contour>
      <point x="499" y="492.348" type="curve" smooth="yes" name="n38"/>
      <point x="499" y="570.444"/>
      <point x="461.428" y="620"/>
      <point x="359.749" y="620" type="curve" smooth="yes"/>
      <point x="344.141" y="620"/>
      <point x="332.742" y="618.783"/>
      <point x="320.793" y="616.007" type="curve"/>
      <point x="258.333" y="305.333" type="line" name="n45"/>
      <point x="287.574" y="305.116" type="line" smooth="yes"/>
      <point x="415.791" y="304.155"/>
      <point x="499" y="375.662"/>
    </contour>
  </outline>
</glyph>
<glyph name="uni01A6" format="2">
  <advance width="617"/>
  <unicode hex="01A6"/>
  <outline>
    <contour>
      <point x="273" y="338" type="line" smooth="yes"/>
      <point x="354" y="338"/>
      <point x="431.333" y="364"/>
      <point x="431.333" y="444.41" type="curve" smooth="yes" name="n03"/>
      <point x="431.333" y="508"/>
      <point x="383" y="532"/>
      <point x="305" y="532" type="curve" smooth="yes"/>
      <point x="273.333" y="532" type="line" name="n07"/>
      <point x="231.575" y="338" type="line" name="n08"/>
    </contour>
    <contour>
      <point x="245.333" y="286" type="curve" smooth="yes"/>
      <point x="220.667" y="286" type="line" name="n10"/>
      <point x="173.667" y="67.3333" type="line" smooth="yes"/>
      <point x="172.784" y="63.2274"/>
      <point x="176.063" y="51.2207"/>
      <point x="188.667" y="50.3333" type="curve" smooth="yes"/>
      <point x="259.667" y="45.3333" type="line"/>
      <point x="259.667" y="0" type="line"/>
      <point x="-15" y="0" type="line"/>
      <point x="-15" y="44.6667" type="line"/>
      <point x="37.3333" y="49.3333" type="line" smooth="yes"/>
      <point x="50.65" y="50.531"/>
      <point x="55.4261" y="57.0466"/>
      <point x="57.6667" y="67.6667" type="curve" smooth="yes"/>
      <point x="170.667" y="603" type="line" smooth="yes"/>
      <point x="171.544" y="607.158"/>
      <point x="167.436" y="620.358"/>
      <point x="155.667" y="621.333" type="curve" smooth="yes"/>
      <point x="95.3333" y="626.333" type="line"/>
      <point x="95.3333" y="671" type="line"/>
      <point x="371.333" y="671" type="line"/>
      <point x="371.333" y="629" type="line"/>
      <point x="308.333" y="624" type="line" smooth="yes"/>
      <point x="296.001" y="622.989"/>
      <point x="290.133" y="620.035"/>
      <point x="287.333" y="604" type="curve" smooth="yes"/>
      <point x="283.333" y="581" type="line" name="n35"/>
      <point x="345" y="581" type="line" smooth="yes"/>
      <point x="474.667" y="581"/>
      <point x="555.667" y="547"/>
      <point x="555.667" y="460.266" type="curve" smooth="yes" name="n39"/>
      <point x="555.667" y="364.333"/>
      <point x="456.333" y="308.333"/>
      <point x="367.667" y="293" type="curve"/>
      <point x="414.898" y="269.269"/>
      <point x="434.485" y="235.601"/>
      <point x="456.579" y="162.529" type="curve" smooth="yes"/>
      <point x="482.686" y="77.6952" type="line" smooth="yes"/>
      <point x="499.439" y="22.2427"/>
      <point x="525.907" y="-10"/>
      <point x="569.254" y="-10" type="curve" smooth="yes" name="n49"/>
      <point x="576.667" y="-10"/>
      <point x="586" y="-9"/>
      <point x="592.333" y="-8" type="curve"/>
      <point x="592.333" y="-54.3333" type="line"/>
      <point x="570" y="-62.3333"/>
      <point x="547.333" y="-68"/>
      <point x="517.014" y="-68" type="curve" smooth="yes" name="n56"/>
      <point x="425.082" y="-68"/>
      <point x="394.389" y="-15.7884"/>
      <point x="370.165" y="63.0144" type="curve" smooth="yes"/>
      <point x="338.66" y="166.657" type="line" smooth="yes"/>
      <point x="314.828" y="244.39"/>
      <point x="296.064" y="286"/>
    </contour>
  </outline>
</glyph>
<glyph name="uni01A8" format="2">
  <advance width="385"/>
  <unicode hex="01A8"/>
  <outline>
    <contour>
      <point x="218.333" y="450" type="curve" smooth="yes" name="n00"/>
      <point x="205.667" y="450"/>
      <point x="184" y="441.667"/>
      <point x="180" y="438.667" type="curve"/>
      <point x="153.667" y="372.667" type="line"/>
      <point x="146.333" y="370.667"/>
      <point x="126.333" y="361.333"/>
      <point x="112" y="362.667" type="curve" smooth="yes"/>
      <point x="86.6667" y="364.667"/>
      <point x="69" y="380.333"/>
      <point x="69" y="408.333" type="curve" smooth="yes"/>
      <point x="69" y="465"/>
      <point x="145" y="495"/>
      <point x="222.667" y="495" type="curve" smooth="yes" name="n13"/>
      <point x="317.333" y="495"/>
      <point x="374.667" y="458"/>
      <point x="374.667" y="390.667" type="curve" smooth="yes" name="n16"/>
      <point x="374.667" y="308.667"/>
      <point x="317.333" y="273.333"/>
      <point x="238.667" y="221.333" type="curve" smooth="yes"/>
      <point x="166" y="173.333"/>
      <point x="109.333" y="155"/>
      <point x="109.333" y="93.6667" type="curve" smooth="yes" name="n22"/>
      <point x="109.333" y="64.3333"/>
      <point x="133.333" y="35"/>
      <point x="173.333" y="35" type="curve" smooth="yes" name="n25"/>
      <point x="200.333" y="35"/>
      <point x="218.333" y="45"/>
      <point x="237" y="64.3333" type="curve"/>
      <point x="253" y="134.333" type="line"/>
      <point x="259" y="138.333"/>
      <point x="282" y="144.667"/>
      <point x="304.667" y="144.667" type="curve" smooth="yes"/>
      <point x="327.333" y="144.667"/>
      <point x="351" y="125.667"/>
      <point x="351" y="92.6667" type="curve" smooth="yes"/>
      <point x="351" y="30"/>
      <point x="257" y="-12"/>
      <point x="174.333" y="-12" type="curve" smooth="yes" name="n38"/>
      <point x="76.3333" y="-12"/>
      <point x="14.6667" y="24.6667"/>
      <point x="14.6667" y="98" type="curve" smooth="yes" name="n41"/>
      <point x="14.6667" y="183.667"/>
      <point x="84.3333" y="232.667"/>
      <point x="159" y="277.667" type="curve" smooth="yes"/>
      <point x="241.333" y="327"/>
      <point x="279.667" y="348.667"/>
      <point x="279.667" y="397.333" type="curve" smooth="yes" name="n47"/>
      <point x="279.667" y="427.667"/>
      <point x="249" y="450"/>
    </contour>
  </outline>
</glyph>
<glyph name="uni01AC" format="2">
  <advance width="599"/>
  <unicode hex="01AC"/>
  <outline>
    <contour>
      <point x="663.333" y="671" type="line" name="n00"/>
      <point x="630.667" y="510.667" type="line" name="n01"/>
      <point x="562.667" y="510.667" type="line"/>
      <point x="567" y="605" type="line"/>
      <point x="568" y="617.333"/>
      <point x="559.667" y="622.667" name="hr01"/>
      <point x="547" y="622.667" type="curve" smooth="yes"/>
      <point x="424.667" y="622.667" type="line"/>
      <point x="321" y="67.3333" type="line" smooth="yes"/>
      <point x="319" y="56.6667"/>
      <point x="324.667" y="50.6667"/>
      <point x="340.667" y="49.6667" type="curve"/>
      <point x="340.667" y="49.6667"/>
      <point x="380.135" y="46.4443"/>
      <point x="398" y="44.6667" type="curve"/>
      <point x="398" y="0" type="line" name="n15"/>
      <point x="124" y="0" type="line"/>
      <point x="124" y="44.6667" type="line"/>
      <point x="141.809" y="46.1215"/>
      <point x="181" y="49.3333"/>
      <point x="181" y="49.3333" type="curve"/>
      <point x="193.667" y="50.3333"/>
      <point x="204" y="55.3333"/>
      <point x="206" y="67.6667" type="curve" smooth="yes"/>
      <point x="309.667" y="622.667" type="line"/>
      <point x="202" y="622.667" type="line" smooth="yes" name="n25"/>
      <point x="156" y="622.667"/>
      <point x="135.333" y="611"/>
      <point x="135.333" y="581.667" type="curve"/>
      <point x="204.667" y="513.667" type="line"/>
      <point x="186.667" y="487"/>
      <point x="156" y="470.667" name="hr02"/>
      <point x="131.333" y="470.667" type="curve" smooth="yes" name="n32"/>
      <point x="96" y="470.667"/>
      <point x="64.6667" y="495.333"/>
      <point x="64.6667" y="550.667" type="curve" smooth="yes"/>
      <point x="64.6667" y="634.667"/>
      <point x="127.333" y="671"/>
      <point x="210" y="671" type="curve" smooth="yes" name="n38"/>
    </contour>
  </outline>
</glyph>
<glyph name="Uhorn" format="2">
  <advance width="832"/>
  <unicode hex="01AF"/>
  <outline>
    <contour>
      <point x="896" y="770.667" type="curve" smooth="yes" name="n00"/>
      <point x="896" y="627.09"/>
      <point x="801" y="512.869"/>
      <point x="658.333" y="488.892" type="curve"/>
      <point x="604" y="214.838" type="line" smooth="yes"/>
      <point x="576.333" y="71.9804"/>
      <point x="485.333" y="-16"/>
      <point x="315.334" y="-16" type="curve" smooth="yes" name="n07"/>
      <point x="186.667" y="-16"/>
      <point x="92" y="34.4923"/>
      <point x="92" y="155.393" type="curve" smooth="yes" name="n10"/>
      <point x="92" y="180.206"/>
      <point x="96" y="219.168"/>
      <point x="105" y="264.789" type="curve" smooth="yes"/>
      <point x="175" y="603.123" type="line"/>
      <point x="175.451" y="607.392" type="line"/>
      <point x="175.201" y="615.941"/>
      <point x="169.343" y="620.157"/>
      <point x="155" y="621.436" type="curve" smooth="yes"/>
      <point x="99" y="626.431" type="line"/>
      <point x="99" y="671.057" type="line" name="n20"/>
      <point x="373" y="671.057" type="line"/>
      <point x="373" y="626.431" type="line"/>
      <point x="313" y="621.436" type="line" smooth="yes"/>
      <point x="301" y="620.437"/>
      <point x="292.562" y="615.342"/>
      <point x="290" y="602.789" type="curve" smooth="yes"/>
      <point x="221" y="264.789" type="line" smooth="yes"/>
      <point x="213" y="226.161"/>
      <point x="210" y="194.192"/>
      <point x="210" y="175.337" type="curve" smooth="yes" name="n30"/>
      <point x="210" y="91.9588"/>
      <point x="266.667" y="53"/>
      <point x="345.298" y="53" type="curve" smooth="yes" name="n33"/>
      <point x="465.333" y="53"/>
      <point x="507.667" y="141.909"/>
      <point x="529" y="249.804" type="curve" smooth="yes"/>
      <point x="599" y="603.123" type="line"/>
      <point x="599.154" y="607.733" type="line"/>
      <point x="599.202" y="615.976"/>
      <point x="594.084" y="620.128"/>
      <point x="579.333" y="621.436" type="curve" smooth="yes"/>
      <point x="523" y="626.431" type="line"/>
      <point x="523" y="671.057" type="line"/>
      <point x="746.333" y="671.057" type="line"/>
      <point x="746.333" y="626.431" type="line"/>
      <point x="702.333" y="621.436" type="line" smooth="yes"/>
      <point x="691.292" y="620.046"/>
      <point x="683.304" y="614.392"/>
      <point x="681" y="602.789" type="curve" smooth="yes"/>
      <point x="670.333" y="548.838" type="line"/>
      <point x="769.667" y="574.817"/>
      <point x="805.667" y="644.082"/>
      <point x="805.667" y="726" type="curve" name="n53"/>
      <point x="715.667" y="726" type="line"/>
      <point x="708.263" y="737.969"/>
      <point x="697.667" y="761.895" name="hr01"/>
      <point x="697.667" y="785.329" type="curve" smooth="yes" name="n57"/>
      <point x="697.667" y="835.667"/>
      <point x="745.333" y="872"/>
      <point x="797.295" y="872" type="curve" smooth="yes" name="n60"/>
      <point x="850.667" y="872"/>
      <point x="896" y="833.667"/>
    </contour>
  </outline>
</glyph>
<glyph name="uni01B2" format="2">
  <advance width="717"/>
  <unicode hex="01B2"/>
  <outline>
    <contour>
      <point x="694" y="449.667" type="curve" smooth="yes" name="n00"/>
      <point x="694" y="193.333"/>
      <point x="535" y="-14"/>
      <point x="285" y="-14" type="curve" smooth="yes" name="n03"/>
      <point x="170.333" y="-14"/>
      <point x="79" y="45.3333"/>
      <point x="79" y="161" type="curve" smooth="yes" name="n06"/>
      <point x="79" y="171.667"/>
      <point x="85" y="212.667"/>
      <point x="96" y="264.667" type="curve" smooth="yes"/>
      <point x="164.333" y="599.667" type="line" smooth="yes"/>
      <point x="167" y="613.333"/>
      <point x="163.333" y="620.333"/>
      <point x="144.667" y="621.667" type="curve"/>
      <point x="144.667" y="621.667"/>
      <point x="106.299" y="624.88"/>
      <point x="89" y="626.333" type="curve"/>
      <point x="89" y="671" type="line" name="n17"/>
      <point x="294.333" y="671" type="line"/>
      <point x="211" y="264.333" type="line"/>
      <point x="203" y="228.667"/>
      <point x="200" y="200.333"/>
      <point x="200" y="195.667" type="curve" smooth="yes" name="n22"/>
      <point x="200" y="104"/>
      <point x="263.667" y="63.3333"/>
      <point x="331" y="63.3333" type="curve" smooth="yes" name="n25"/>
      <point x="484" y="63.3333"/>
      <point x="610.333" y="273.333"/>
      <point x="610.333" y="413.667" type="curve" smooth="yes" name="n28"/>
      <point x="610.333" y="488.333"/>
      <point x="586.333" y="541.667"/>
      <point x="572" y="557" type="curve" name="n31"/>
      <point x="469" y="557" type="line"/>
      <point x="469" y="557"/>
      <point x="445" y="583.667"/>
      <point x="445" y="609.667" type="curve" smooth="yes"/>
      <point x="445" y="654.667"/>
      <point x="490.333" y="687"/>
      <point x="542" y="687" type="curve" smooth="yes" name="n38"/>
      <point x="644.667" y="687"/>
      <point x="694" y="544"/>
    </contour>
  </outline>
</glyph>
<glyph name="uni01BA" format="2">
  <advance width="488"/>
  <unicode hex="01BA"/>
  <outline>
    <contour>
      <point x="521.667" y="450.333" type="line"/>
      <point x="302" y="248" type="line"/>
      <point x="335" y="248"/>
      <point x="416.333" y="243.667"/>
      <point x="416.333" y="160.333" type="curve" smooth="yes" name="n04"/>
      <point x="416.333" y="-25"/>
      <point x="122.667" y="6"/>
      <point x="122.667" y="-120" type="curve" smooth="yes" name="n07"/>
      <point x="122.667" y="-150"/>
      <point x="157.333" y="-182.667"/>
      <point x="189.333" y="-182.667" type="curve" smooth="yes" name="n10"/>
      <point x="224" y="-182.667"/>
      <point x="268.667" y="-173.667"/>
      <point x="286" y="-154" type="curve" name="hr01"/>
      <point x="286" y="-82.6667" type="line" name="n14"/>
      <point x="296.667" y="-69.3333"/>
      <point x="316.333" y="-58"/>
      <point x="339" y="-58" type="curve" smooth="yes"/>
      <point x="370" y="-58"/>
      <point x="384" y="-85.6667"/>
      <point x="384" y="-113.667" type="curve" smooth="yes" name="n20"/>
      <point x="384" y="-155.667"/>
      <point x="298" y="-229"/>
      <point x="191" y="-229" type="curve" smooth="yes" name="n23"/>
      <point x="117.667" y="-229"/>
      <point x="38" y="-178.667"/>
      <point x="38" y="-103" type="curve" smooth="yes" name="n26"/>
      <point x="38" y="59.3333"/>
      <point x="326.333" y="46.6667" name="hr02"/>
      <point x="326.333" y="148.333" type="curve" smooth="yes" name="n29"/>
      <point x="326.333" y="178.333"/>
      <point x="279.667" y="205"/>
      <point x="245.667" y="205" type="curve" smooth="yes"/>
      <point x="218.333" y="205"/>
      <point x="189.667" y="183"/>
      <point x="182" y="176" type="curve"/>
      <point x="152" y="202" type="line"/>
      <point x="369.333" y="396.667" type="line"/>
      <point x="360.333" y="396.333"/>
      <point x="294.333" y="395"/>
      <point x="264.667" y="395" type="curve" smooth="yes" name="n40"/>
      <point x="223" y="395"/>
      <point x="189" y="417.333" name="hr03"/>
      <point x="153.667" y="417.333" type="curve" smooth="yes" name="n43"/>
      <point x="135" y="417.333"/>
      <point x="118" y="404.667"/>
      <point x="108.667" y="389.667" type="curve"/>
      <point x="159.667" y="326.333" type="line"/>
      <point x="148.667" y="308"/>
      <point x="121.667" y="291.333" name="hr04"/>
      <point x="99.6667" y="291.333" type="curve" smooth="yes" name="n50"/>
      <point x="65.6667" y="291.333"/>
      <point x="39" y="320.333"/>
      <point x="39" y="352" type="curve" smooth="yes"/>
      <point x="39" y="424.333"/>
      <point x="99.3333" y="496"/>
      <point x="182.667" y="496" type="curve" smooth="yes" name="n56"/>
      <point x="253.667" y="496"/>
      <point x="317" y="449"/>
      <point x="376.667" y="449" type="curve" smooth="yes"/>
      <point x="387.333" y="449"/>
      <point x="402" y="453"/>
      <point x="412.333" y="454.667" type="curve"/>
      <point x="448.667" y="505.333" type="line"/>
    </contour>
  </outline>
</glyph>
<glyph name="uni01BC" format="2">
  <advance width="579"/>
  <unicode hex="01BC"/>
  <outline>
    <contour>
      <point x="257" y="594" type="curve"/>
      <point x="230.667" y="459" type="line" name="n01"/>
      <point x="350.333" y="455.333"/>
      <point x="516" y="394.333"/>
      <point x="516" y="234.333" type="curve" smooth="yes" name="n04"/>
      <point x="516" y="76.3333"/>
      <point x="378.667" y="-16"/>
      <point x="193" y="-16" type="curve" smooth="yes" name="n07"/>
      <point x="87" y="-16"/>
      <point x="12.6667" y="36.3333"/>
      <point x="12.6667" y="99" type="curve" smooth="yes"/>
      <point x="12.6667" y="138.333"/>
      <point x="48.3333" y="163.667" name="hr01"/>
      <point x="85.3333" y="163.667" type="curve" smooth="yes" name="n13"/>
      <point x="96.3333" y="163.667"/>
      <point x="113" y="159.667"/>
      <point x="116.333" y="158.667" type="curve"/>
      <point x="133" y="68.6667" type="line"/>
      <point x="146.333" y="53.6667"/>
      <point x="186.333" y="39" name="hr02"/>
      <point x="224.333" y="39" type="curve" smooth="yes" name="n20"/>
      <point x="315.667" y="39"/>
      <point x="399.667" y="119.667"/>
      <point x="399.667" y="210.667" type="curve" smooth="yes" name="n23"/>
      <point x="399.667" y="320.667"/>
      <point x="279" y="378"/>
      <point x="118.667" y="378" type="curve" name="n26"/>
      <point x="160.667" y="594" type="line"/>
      <point x="162" y="602"/>
      <point x="157.667" y="613"/>
      <point x="143.333" y="615" type="curve" name="n30"/>
      <point x="91" y="619" type="line"/>
      <point x="100.667" y="671" type="line" name="n32"/>
      <point x="601.333" y="671" type="line" name="n33"/>
      <point x="571.333" y="508.667" type="line" name="n34"/>
      <point x="511" y="508.667" type="line"/>
      <point x="514.333" y="596" type="line"/>
      <point x="514.333" y="606"/>
      <point x="509.333" y="615" name="hr04"/>
      <point x="500.333" y="615" type="curve" smooth="yes"/>
      <point x="282.667" y="615" type="line" smooth="yes"/>
      <point x="268.333" y="615"/>
      <point x="258" y="602"/>
    </contour>
  </outline>
</glyph>
<glyph name="uni01C4" format="2">
  <advance width="1261"/>
  <unicode hex="01C4"/>
  <outline>
    <contour>
      <point x="667" y="414.667" type="curve" smooth="yes" name="n00"/>
      <point x="667" y="171.333"/>
      <point x="491.667" y="0"/>
      <point x="227" y="0" type="curve" smooth="yes"/>
      <point x="-15" y="0" type="line"/>
      <point x="-15" y="44.6667" type="line"/>
      <point x="4.68348" y="46.4745"/>
      <point x="46.3333" y="49.3333"/>
      <point x="46.3333" y="49.3333" type="curve"/>
      <point x="60.3333" y="50.3333"/>
      <point x="64" y="55"/>
      <point x="67" y="67.6667" type="curve"/>
      <point x="171" y="603" type="line" smooth="yes"/>
      <point x="173" y="614.333"/>
      <point x="167.667" y="620.333"/>
      <point x="151.667" y="621.333" type="curve"/>
      <point x="151.667" y="621.333"/>
      <point x="113.362" y="624.527"/>
      <point x="95" y="626.333" type="curve"/>
      <point x="95" y="671" type="line"/>
      <point x="341" y="671" type="line" smooth="yes" name="n20"/>
      <point x="531.333" y="671"/>
      <point x="667" y="602.667"/>
    </contour>
    <contour>
      <point x="545" y="423.667" type="curve" smooth="yes" name="n23"/>
      <point x="545" y="590"/>
      <point x="434.333" y="614"/>
      <point x="317.333" y="617.667" type="curve" name="n26"/>
      <point x="288.667" y="617.667" type="line" name="hr01"/>
      <point x="179.333" y="55.3333" type="line"/>
      <point x="245" y="55.3333" type="line"/>
      <point x="438.333" y="57.3333"/>
      <point x="545" y="233.333"/>
    </contour>
    <contour>
      <point x="1294.33" y="671" type="line"/>
      <point x="1285" y="624.333" type="line"/>
      <point x="815.667" y="56" type="line"/>
      <point x="1079" y="56" type="line" smooth="yes" name="n35"/>
      <point x="1091.67" y="56"/>
      <point x="1101.49" y="61.9571"/>
      <point x="1105" y="74.3333" type="curve" smooth="yes"/>
      <point x="1137" y="192.333" type="line" name="n39"/>
      <point x="1210.33" y="192.333" type="line"/>
      <point x="1173.67" y="0" type="line" name="n41"/>
      <point x="664.667" y="0" type="line"/>
      <point x="674" y="45.6667" type="line"/>
      <point x="1141.33" y="615.667" type="line"/>
      <point x="916" y="615.667" type="line" smooth="yes" name="n45"/>
      <point x="903.333" y="615.667"/>
      <point x="894.333" y="610.333"/>
      <point x="890.667" y="598.333" type="curve" smooth="yes"/>
      <point x="862" y="504.333" type="line"/>
      <point x="788" y="504.333" type="line" name="n50"/>
      <point x="821.333" y="671" type="line" name="n51"/>
    </contour>
    <contour>
      <point x="1268.67" y="916.333" type="line" name="n52"/>
      <point x="1109.67" y="746" type="line"/>
      <point x="1017.67" y="746" type="line"/>
      <point x="926.667" y="916.333" type="line"/>
      <point x="1001" y="916.333" type="line"/>
      <point x="1079.33" y="823" type="line"/>
      <point x="1193.67" y="916.333" type="line"/>
    </contour>
  </outline>
</glyph>
<glyph name="uni01C5" format="2">
  <advance width="1145"/>
  <unicode hex="01C5"/>
  <outline>
    <contour>
      <point x="667" y="414.667" type="curve" smooth="yes" name="n00"/>
      <point x="667" y="171.333"/>
      <point x="491.667" y="0"/>
      <point x="227" y="0" type="curve" smooth="yes" name="n03"/>
      <point x="-15" y="0" type="line"/>
      <point x="-15" y="44.6667" type="line"/>
      <point x="4.68348" y="46.4745"/>
      <point x="46.3333" y="49.3333"/>
      <point x="46.3333" y="49.3333" type="curve"/>
      <point x="60.3333" y="50.3333"/>
      <point x="64" y="55"/>
      <point x="67" y="67.6667" type="curve"/>
      <point x="171" y="603" type="line" smooth="yes"/>
      <point x="173" y="614.333"/>
      <point x="167.667" y="620.333"/>
      <point x="151.667" y="621.333" type="curve"/>
      <point x="151.667" y="621.333"/>
      <point x="113.362" y="624.527"/>
      <point x="95" y="626.333" type="curve"/>
      <point x="95" y="671" type="line"/>
      <point x="341" y="671" type="line" smooth="yes" name="n20"/>
      <point x="531.333" y="671"/>
      <point x="667" y="602.667"/>
    </contour>
    <contour>
      <point x="545" y="423.667" type="curve" smooth="yes" name="n23"/>
      <point x="545" y="590"/>
      <point x="434.333" y="614"/>
      <point x="317.333" y="617.667" type="curve" name="n26"/>
      <point x="288.667" y="617.667" type="line"/>
      <point x="179.333" y="55.3333" type="line"/>
      <point x="245" y="55.3333" type="line" name="n29"/>
      <point x="438.333" y="57.3333"/>
      <point x="545" y="233.333"/>
    </contour>
    <contour>
      <point x="1151" y="468.667" type="line"/>
      <point x="815" y="78" type="line"/>
      <point x="892" y="97" type="line"/>
      <point x="922" y="84"/>
      <point x="960" y="63.6667"/>
      <point x="985.667" y="63.6667" type="curve" smooth="yes" name="n37"/>
      <point x="1009" y="63.6667" name="hr01"/>
      <point x="1032" y="81"/>
      <point x="1042.33" y="95.3333" type="curve"/>
      <point x="985.667" y="157.333" type="line"/>
      <point x="996.667" y="176.667"/>
      <point x="1025.67" y="195.333"/>
      <point x="1048.67" y="195.333" type="curve" smooth="yes"/>
      <point x="1087" y="195.333"/>
      <point x="1107.33" y="157.667"/>
      <point x="1107.33" y="129.333" type="curve" smooth="yes"/>
      <point x="1107.33" y="54"/>
      <point x="1027.33" y="-11.6667"/>
      <point x="953" y="-11.6667" type="curve" smooth="yes" name="n50"/>
      <point x="889.667" y="-11.6667"/>
      <point x="839" y="31"/>
      <point x="802" y="31" type="curve" smooth="yes"/>
      <point x="795.667" y="31"/>
      <point x="785" y="30.3333"/>
      <point x="777.667" y="22.3333" type="curve"/>
      <point x="748.667" y="-30.3333" type="line"/>
      <point x="669" y="12.6667" type="line"/>
      <point x="1005" y="404" type="line"/>
      <point x="925.333" y="387" type="line"/>
      <point x="895.667" y="403.333"/>
      <point x="868.333" y="417"/>
      <point x="842.667" y="417" type="curve" smooth="yes" name="n63"/>
      <point x="826.667" y="417"/>
      <point x="795.667" y="405"/>
      <point x="785.333" y="388" type="curve"/>
      <point x="840.333" y="324.333" type="line"/>
      <point x="835" y="315.333"/>
      <point x="808" y="289.333"/>
      <point x="778.333" y="289.333" type="curve" smooth="yes" name="n70"/>
      <point x="738.667" y="289.333" name="hr02"/>
      <point x="721" y="327.667"/>
      <point x="721" y="353.333" type="curve" smooth="yes"/>
      <point x="721" y="415.333"/>
      <point x="783" y="496"/>
      <point x="872.667" y="496" type="curve" smooth="yes" name="n76"/>
      <point x="935.333" y="496"/>
      <point x="987.333" y="448.333"/>
      <point x="1018.33" y="448.333" type="curve" smooth="yes"/>
      <point x="1024" y="448.333"/>
      <point x="1031" y="449.333"/>
      <point x="1040.67" y="455" type="curve"/>
      <point x="1064.33" y="513.333" type="line"/>
    </contour>
    <contour>
      <point x="1171.33" y="720.667" type="line" name="n84"/>
      <point x="1012.33" y="551" type="line"/>
      <point x="920.333" y="551" type="line"/>
      <point x="829.333" y="720.667" type="line"/>
      <point x="903.667" y="720.667" type="line"/>
      <point x="982.333" y="628" type="line"/>
      <point x="1096.33" y="720.667" type="line"/>
    </contour>
  </outline>
</glyph>
<glyph name="uni01C8" format="2">
  <advance width="820"/>
  <unicode hex="01C8"/>
  <outline>
    <contour>
      <point x="498" y="190.667" type="line"/>
      <point x="460.667" y="0" type="line" name="n01"/>
      <point x="-15" y="0" type="line"/>
      <point x="-15" y="44.6667" type="line"/>
      <point x="3.18822" y="46.4588"/>
      <point x="42.6667" y="49.3333"/>
      <point x="42.6667" y="49.3333" type="curve"/>
      <point x="57.6667" y="50.6667"/>
      <point x="65" y="55.3333"/>
      <point x="67" y="67.6667" type="curve"/>
      <point x="171" y="603" type="line" smooth="yes"/>
      <point x="173.333" y="614"/>
      <point x="168" y="620.333"/>
      <point x="153" y="621.333" type="curve"/>
      <point x="153" y="621.333"/>
      <point x="114.857" y="624.513"/>
      <point x="96" y="626.333" type="curve"/>
      <point x="96" y="671" type="line" name="n17"/>
      <point x="370" y="671" type="line"/>
      <point x="370" y="626.333" type="line"/>
      <point x="349.004" y="624.486"/>
      <point x="309" y="621.333"/>
      <point x="309" y="621.333" type="curve"/>
      <point x="296" y="620.333"/>
      <point x="288.333" y="613.333"/>
      <point x="286" y="602.667" type="curve" smooth="yes"/>
      <point x="180" y="53.3333" type="line"/>
      <point x="370" y="53.3333" type="line" smooth="yes" name="n27"/>
      <point x="382" y="53.3333"/>
      <point x="392.481" y="60.619"/>
      <point x="396" y="71.3333" type="curve" smooth="yes"/>
      <point x="433.667" y="190.667" type="line" name="n31"/>
    </contour>
    <contour>
      <point x="813" y="648.333" type="curve" smooth="yes" name="n32"/>
      <point x="813" y="618"/>
      <point x="784.333" y="585"/>
      <point x="745.333" y="585" type="curve" smooth="yes" name="n35"/>
      <point x="707" y="585"/>
      <point x="678.333" y="612.667"/>
      <point x="678.333" y="648.333" type="curve" smooth="yes" name="n38"/>
      <point x="678.333" y="682.667"/>
      <point x="703" y="712"/>
      <point x="745.333" y="712" type="curve" smooth="yes" name="n41"/>
      <point x="786.333" y="712"/>
      <point x="813" y="682.667"/>
    </contour>
    <contour>
      <point x="777.667" y="496" type="line" name="n44"/>
      <point x="706.667" y="81.3333" type="line" smooth="yes"/>
      <point x="689.236" y="-18.9834"/>
      <point x="612" y="-229" name="n47"/>
      <point x="476.667" y="-229" type="curve" smooth="yes"/>
      <point x="433" y="-229"/>
      <point x="403" y="-205.333"/>
      <point x="403" y="-174.333" type="curve" smooth="yes"/>
      <point x="403" y="-149.333"/>
      <point x="421" y="-135.333"/>
      <point x="435.333" y="-126.333" type="curve"/>
      <point x="533.667" y="-152.667" type="line"/>
      <point x="552.333" y="-129.333"/>
      <point x="575.333" y="-63"/>
      <point x="585" y="-10" type="curve" smooth="yes"/>
      <point x="659.667" y="424" type="line"/>
      <point x="575" y="433" type="line"/>
      <point x="575" y="464.333" type="line"/>
      <point x="731" y="496" type="line"/>
    </contour>
  </outline>
</glyph>
<glyph name="uni01CA" format="2">
  <advance width="1206"/>
  <unicode hex="01CA"/>
  <outline>
    <contour>
      <point x="769" y="626.333" type="line"/>
      <point x="709.333" y="621" type="line" smooth="yes"/>
      <point x="697.674" y="619.907"/>
      <point x="689.667" y="614.333"/>
      <point x="687" y="602.667" type="curve"/>
      <point x="568.667" y="0" type="line" name="n05"/>
      <point x="483.667" y="0" type="line"/>
      <point x="241" y="509" type="line"/>
      <point x="156" y="67.3333" type="line" smooth="yes"/>
      <point x="154" y="56.6667"/>
      <point x="158.667" y="50.6667"/>
      <point x="175.333" y="49.6667" type="curve"/>
      <point x="175.333" y="49.6667"/>
      <point x="212.986" y="46.5013"/>
      <point x="232" y="44.6667" type="curve"/>
      <point x="232" y="0" type="line"/>
      <point x="-14" y="0" type="line"/>
      <point x="-14" y="44.6667" type="line"/>
      <point x="4.68334" y="46.4868"/>
      <point x="43" y="49.6667"/>
      <point x="43" y="49.6667" type="curve"/>
      <point x="56.3333" y="50.6667"/>
      <point x="65" y="55.3333"/>
      <point x="68" y="67.6667" type="curve"/>
      <point x="171" y="603" type="line" smooth="yes"/>
      <point x="173.333" y="614.333"/>
      <point x="168" y="620.333"/>
      <point x="152.333" y="621.333" type="curve" name="n27"/>
      <point x="152.333" y="621.333"/>
      <point x="114.519" y="624.513"/>
      <point x="96" y="626.333" type="curve"/>
      <point x="96" y="671" type="line" name="n31"/>
      <point x="303" y="671" type="line"/>
      <point x="303" y="643.333" type="line"/>
      <point x="518" y="189.667" type="line"/>
      <point x="599" y="603" type="line" smooth="yes"/>
      <point x="601.333" y="614.333"/>
      <point x="595.333" y="620.333"/>
      <point x="580" y="621.333" type="curve"/>
      <point x="580" y="621.333"/>
      <point x="541.02" y="624.542"/>
      <point x="523" y="626.333" type="curve"/>
      <point x="523" y="671" type="line"/>
      <point x="769" y="671" type="line"/>
    </contour>
    <contour>
      <point x="1246" y="626.333" type="line"/>
      <point x="1185.33" y="621" type="line"/>
      <point x="1173.67" y="620.333"/>
      <point x="1166.67" y="614.333"/>
      <point x="1164" y="602.667" type="curve"/>
      <point x="1100" y="256.333" type="line" smooth="yes"/>
      <point x="1070.33" y="93.6667"/>
      <point x="1023.67" y="-16" name="hr01"/>
      <point x="844" y="-16" type="curve" smooth="yes" name="n52"/>
      <point x="761.667" y="-16"/>
      <point x="716.333" y="9.66667"/>
      <point x="705" y="15.3333" type="curve"/>
      <point x="738.333" y="187.333" type="line" name="hr02"/>
      <point x="809.667" y="187.333" type="line" name="n57"/>
      <point x="809.667" y="64" type="line" smooth="yes"/>
      <point x="809.667" y="49"/>
      <point x="832" y="39.3333" name="hr03"/>
      <point x="851" y="39.3333" type="curve" smooth="yes" name="n61"/>
      <point x="927" y="39.3333"/>
      <point x="958.667" y="112.667"/>
      <point x="983" y="247.667" type="curve" smooth="yes"/>
      <point x="1049" y="603" type="line" smooth="yes"/>
      <point x="1051" y="614.333"/>
      <point x="1046" y="620.333"/>
      <point x="1030.33" y="621.333" type="curve"/>
      <point x="1030.33" y="621.333"/>
      <point x="990.527" y="624.541"/>
      <point x="972" y="626.333" type="curve"/>
      <point x="972" y="671" type="line"/>
      <point x="1246" y="671" type="line"/>
    </contour>
  </outline>
</glyph>
<glyph name="uni01E0" format="2">
  <advance width="686"/>
  <unicode hex="01E0"/>
  <outline>
    <contour>
      <point x="640" y="0" type="line" name="n00"/>
      <point x="391" y="0" type="line"/>
      <point x="391" y="44.6667" type="line"/>
      <point x="404.99" y="46.0931"/>
      <point x="437" y="49.6667"/>
      <point x="437" y="49.6667" type="curve"/>
      <point x="451.333" y="51.3333"/>
      <point x="457.823" y="55.97"/>
      <point x="456" y="67.3333" type="curve" smooth="yes"/>
      <point x="426.333" y="255.667" type="line" name="n09"/>
      <point x="212" y="255.667" type="line"/>
      <point x="111" y="67.3333" type="line" smooth="yes"/>
      <point x="104.333" y="55.3333"/>
      <point x="111" y="51.3333"/>
      <point x="128" y="49.6667" type="curve"/>
      <point x="128" y="49.6667"/>
      <point x="160.306" y="46.1334"/>
      <point x="176" y="44.6667" type="curve"/>
      <point x="176" y="0" type="line"/>
      <point x="-53" y="0" type="line"/>
      <point x="-53" y="44.6667" type="line"/>
      <point x="3.66667" y="50.6667" type="line"/>
      <point x="373" y="687" type="line" name="n22"/>
      <point x="465.667" y="687" type="line"/>
      <point x="574" y="67.6667" type="line" smooth="yes"/>
      <point x="576" y="54.6667"/>
      <point x="579.667" y="50.6667"/>
      <point x="594" y="49.3333" type="curve"/>
      <point x="594" y="49.3333"/>
      <point x="625.331" y="46.1307"/>
      <point x="640" y="44.6667" type="curve"/>
    </contour>
    <contour>
      <point x="416.667" y="306" type="line" name="n31"/>
      <point x="377" y="544" type="line"/>
      <point x="241" y="306" type="line"/>
    </contour>
    <contour>
      <point x="618.667" y="1047" type="line" name="n34"/>
      <point x="605" y="977" type="line" name="n35"/>
      <point x="290" y="977" type="line"/>
      <point x="304.667" y="1047" type="line"/>
    </contour>
    <contour>
      <point x="495.333" y="840" type="curve" smooth="yes" name="n38"/>
      <point x="495.333" y="807"/>
      <point x="469" y="780"/>
      <point x="435.667" y="780" type="curve" smooth="yes" name="n41"/>
      <point x="402" y="780"/>
      <point x="375.667" y="806.333"/>
      <point x="375.667" y="840" type="curve" smooth="yes" name="n44"/>
      <point x="375.667" y="874"/>
      <point x="400.667" y="903"/>
      <point x="435.333" y="903" type="curve" smooth="yes" name="n47"/>
      <point x="469" y="903"/>
      <point x="495.333" y="875"/>
    </contour>
  </outline>
</glyph>
<glyph name="uni01E3" format="2">
  <advance width="758"/>
  <unicode hex="01E3"/>
  <outline>
    <contour>
      <point x="740.667" y="394" type="curve" smooth="yes" name="n00"/>
      <point x="740.667" y="286.667"/>
      <point x="567.667" y="228.333"/>
      <point x="443.667" y="220" type="curve"/>
      <point x="439.667" y="202"/>
      <point x="434.667" y="182.667"/>
      <point x="434.667" y="166.333" type="curve" smooth="yes"/>
      <point x="434.667" y="93.3333"/>
      <point x="444.333" y="50.6667"/>
      <point x="528.333" y="50.6667" type="curve" smooth="yes" name="n09"/>
      <point x="573" y="50.6667"/>
      <point x="619" y="83.3333"/>
      <point x="702.667" y="157.333" type="curve"/>
      <point x="702.667" y="83.3333" type="line"/>
      <point x="666" y="46.3333"/>
      <point x="586.667" y="-12"/>
      <point x="494" y="-12" type="curve" smooth="yes" name="n16"/>
      <point x="414" y="-12"/>
      <point x="368.333" y="-0.333333"/>
      <point x="347" y="71.3333" type="curve"/>
      <point x="303.333" y="16.3333"/>
      <point x="239.333" y="-12"/>
      <point x="183.667" y="-12" type="curve" smooth="yes" name="n22"/>
      <point x="64.3333" y="-12"/>
      <point x="32" y="95.3333"/>
      <point x="32" y="168.333" type="curve" smooth="yes" name="n25"/>
      <point x="32" y="321.333"/>
      <point x="131.333" y="496"/>
      <point x="327" y="496" type="curve" smooth="yes" name="n28"/>
      <point x="360.667" y="496"/>
      <point x="381.333" y="478"/>
      <point x="398.333" y="461" type="curve"/>
      <point x="412.333" y="484" type="line"/>
      <point x="492" y="484" type="line"/>
      <point x="488.813" y="475.218"/>
      <point x="480.661" y="448.84"/>
      <point x="476.667" y="437.667" type="curve"/>
      <point x="520.333" y="473.667"/>
      <point x="575" y="495.333"/>
      <point x="622" y="495.333" type="curve" smooth="yes"/>
      <point x="715.667" y="495.333"/>
      <point x="740.667" y="423.333"/>
    </contour>
    <contour>
      <point x="639.667" y="394.667" type="curve" smooth="yes" name="n42"/>
      <point x="639.667" y="420"/>
      <point x="624" y="441.667"/>
      <point x="591" y="441.667" type="curve" smooth="yes" name="n45"/>
      <point x="530.333" y="441.667"/>
      <point x="462.667" y="342.333"/>
      <point x="448.667" y="262" type="curve"/>
      <point x="529.333" y="272.667"/>
      <point x="639.667" y="326.667"/>
    </contour>
    <contour>
      <point x="371.333" y="392" type="line"/>
      <point x="335.667" y="445.333" type="line" name="n52"/>
      <point x="194.667" y="441"/>
      <point x="144" y="284" name="hr01"/>
      <point x="144" y="174.333" type="curve" smooth="yes" name="n55"/>
      <point x="144" y="122"/>
      <point x="152.333" y="56.6667"/>
      <point x="215" y="56.6667" type="curve" smooth="yes" name="n58"/>
      <point x="253" y="56.6667"/>
      <point x="302.667" y="95"/>
      <point x="320.333" y="118.333" type="curve"/>
    </contour>
    <contour>
      <point x="644" y="657" type="line" name="n62"/>
      <point x="631" y="586" type="line" name="n63"/>
      <point x="315.333" y="586" type="line"/>
      <point x="330.333" y="657" type="line"/>
    </contour>
  </outline>
</glyph>
<glyph name="aeacute" format="2">
  <advance width="758"/>
  <unicode hex="01FD"/>
  <outline>
    <contour>
      <point x="740.667" y="394" type="curve" smooth="yes" name="n00"/>
      <point x="740.667" y="286.667"/>
      <point x="567.667" y="228.333"/>
      <point x="443.667" y="220" type="curve"/>
      <point x="439.667" y="202"/>
      <point x="434.667" y="182.667"/>
      <point x="434.667" y="166.333" type="curve" smooth="yes"/>
      <point x="434.667" y="93.3333"/>
      <point x="444.333" y="50.6667"/>
      <point x="528.333" y="50.6667" type="curve" smooth="yes" name="n09"/>
      <point x="573" y="50.6667"/>
      <point x="619" y="83.3333"/>
      <point x="702.667" y="157.333" type="curve"/>
      <point x="702.667" y="83.3333" type="line"/>
      <point x="666" y="46.3333"/>
      <point x="586.667" y="-12"/>
      <point x="494" y="-12" type="curve" smooth="yes" name="n16"/>
      <point x="414" y="-12"/>
      <point x="368.333" y="-0.333333"/>
      <point x="347" y="71.3333" type="curve"/>
      <point x="303.333" y="16.3333"/>
      <point x="239.333" y="-12"/>
      <point x="183.667" y="-12" type="curve" smooth="yes" name="n22"/>
      <point x="64.3333" y="-12"/>
      <point x="32" y="95.3333"/>
      <point x="32" y="168.333" type="curve" smooth="yes" name="n25"/>
      <point x="32" y="321.333"/>
      <point x="131.333" y="496"/>
      <point x="327" y="496" type="curve" smooth="yes" name="n28"/>
      <point x="360.667" y="496"/>
      <point x="381.333" y="478"/>
      <point x="398.333" y="461" type="curve"/>
      <point x="412.333" y="484" type="line"/>
      <point x="492" y="484" type="line"/>
      <point x="488.813" y="475.218"/>
      <point x="480.661" y="448.84"/>
      <point x="476.667" y="437.667" type="curve"/>
      <point x="520.333" y="473.667"/>
      <point x="575" y="495.333"/>
      <point x="622" y="495.333" type="curve" smooth="yes"/>
      <point x="715.667" y="495.333"/>
      <point x="740.667" y="423.333"/>
    </contour>
    <contour>
      <point x="639.667" y="394.667" type="curve" smooth="yes" name="n42"/>
      <point x="639.667" y="420"/>
      <point x="624" y="441.667"/>
      <point x="591" y="441.667" type="curve" smooth="yes" name="n45"/>
      <point x="530.333" y="441.667"/>
      <point x="462.667" y="342.333"/>
      <point x="448.667" y="262" type="curve"/>
      <point x="529.333" y="272.667"/>
      <point x="639.667" y="326.667"/>
    </contour>
    <contour>
      <point x="371.333" y="392" type="line"/>
      <point x="335.667" y="445.333" type="line" name="n52"/>
      <point x="194.667" y="441"/>
      <point x="144" y="284" name="hr01"/>
      <point x="144" y="174.333" type="curve" smooth="yes" name="n55"/>
      <point x="144" y="122"/>
      <point x="152.333" y="56.6667"/>
      <point x="215" y="56.6667" type="curve" smooth="yes" name="n58"/>
      <point x="253" y="56.6667"/>
      <point x="302.667" y="95"/>
      <point x="320.333" y="118.333" type="curve"/>
    </contour>
    <contour>
      <point x="631.667" y="686.333" type="curve" smooth="yes"/>
      <point x="631.667" y="669.333"/>
      <point x="622" y="654.333"/>
      <point x="607" y="645" type="curve" smooth="yes"/>
      <point x="453.333" y="551" type="line"/>
      <point x="382.667" y="551" type="line"/>
      <point x="519.667" y="705.333" type="line" smooth="yes"/>
      <point x="535.667" y="723.667"/>
      <point x="549.667" y="732.667" name="n70"/>
      <point x="578.667" y="732.667" type="curve" smooth="yes"/>
      <point x="616.333" y="732.667"/>
      <point x="631.667" y="707.667"/>
    </contour>
  </outline>
</glyph>
<glyph name="uni021C" format="2">
  <advance width="531"/>
  <unicode hex="021C"/>
  <outline>
    <contour>
      <point x="522" y="523.667" type="curve" smooth="yes" name="n00"/>
      <point x="522" y="444.333"/>
      <point x="461.333" y="378.667"/>
      <point x="359.667" y="322.667" type="curve"/>
      <point x="424.667" y="303"/>
      <point x="473.667" y="254" name="hr01"/>
      <point x="473.667" y="171" type="curve" smooth="yes" name="n06"/>
      <point x="473.667" y="15.6667"/>
      <point x="202.667" y="-114"/>
      <point x="-20" y="-161" type="curve"/>
      <point x="-7.66667" y="-98.3333" type="line"/>
      <point x="164.333" y="-51.3333"/>
      <point x="346.667" y="43"/>
      <point x="346.667" y="168" type="curve" smooth="yes" name="n13"/>
      <point x="346.667" y="233.667"/>
      <point x="313.333" y="272.667"/>
      <point x="272" y="280" type="curve"/>
      <point x="226.333" y="260.667"/>
      <point x="174.333" y="243.667"/>
      <point x="119.333" y="227" type="curve"/>
      <point x="131.333" y="289" type="line"/>
      <point x="260.667" y="329"/>
      <point x="400.333" y="407" name="hr02"/>
      <point x="400.333" y="522" type="curve" smooth="yes" name="n23"/>
      <point x="400.333" y="604.667"/>
      <point x="350" y="631.333"/>
      <point x="301.667" y="631.333" type="curve" smooth="yes" name="n26"/>
      <point x="254" y="631.333"/>
      <point x="212.667" y="616.333"/>
      <point x="178" y="587.667" type="curve"/>
      <point x="141" y="495.667" type="line"/>
      <point x="76.3333" y="495.667" type="line"/>
      <point x="104.333" y="637" type="line"/>
      <point x="198.333" y="679"/>
      <point x="269.333" y="687"/>
      <point x="335" y="687" type="curve" smooth="yes" name="n35"/>
      <point x="432.667" y="687"/>
      <point x="522" y="640.667"/>
    </contour>
  </outline>
</glyph>
<glyph name="uni0224" format="2">
  <advance width="576"/>
  <unicode hex="0224"/>
  <outline>
    <contour>
      <point x="289.333" y="259" type="line"/>
      <point x="550" y="242.333" type="line" name="n01"/>
      <point x="529.252" y="209.046"/>
      <point x="426.107" y="77.1828"/>
      <point x="397.333" y="34.6667" type="curve" name="n04"/>
      <point x="415.888" y="-8"/>
      <point x="469.491" y="-45.3333"/>
      <point x="450" y="-85.3333" type="curve" name="n07"/>
      <point x="449.874" y="-87.3333"/>
      <point x="436.013" y="-92.6667"/>
      <point x="430" y="-100.667" type="curve"/>
      <point x="453.333" y="-99.3333"/>
      <point x="446.333" y="-89.3333"/>
      <point x="431.667" y="-70.3333" type="curve" name="n13"/>
      <point x="428.302" y="-63"/>
      <point x="416.052" y="-57"/>
      <point x="412" y="-53" type="curve" name="n16"/>
      <point x="383.232" y="-43.3333"/>
      <point x="183.613" y="-24"/>
      <point x="138.333" y="-8.66667" type="curve"/>
      <point x="139.557" y="0.983131"/>
      <point x="143.288" y="24.1839"/>
      <point x="142.667" y="29.3333" type="curve"/>
      <point x="298.333" y="412.667" type="line"/>
      <point x="145.667" y="429" type="line" name="n24"/>
      <point x="168.798" y="468.182"/>
      <point x="255.459" y="573.6"/>
      <point x="284.333" y="603" type="curve"/>
      <point x="197" y="544.333" type="line"/>
      <point x="186.763" y="544.333"/>
      <point x="150.435" y="543"/>
      <point x="141.667" y="539.667" type="curve" name="n31"/>
      <point x="152.333" y="610.333" type="line" name="n32"/>
      <point x="430.333" y="610.333" type="line"/>
      <point x="436.333" y="641" type="line"/>
    </contour>
  </outline>
</glyph>
<glyph name="uni0225" format="2">
  <advance width="460"/>
  <unicode hex="0225"/>
  <outline>
    <contour>
      <point x="466" y="468.667" type="line"/>
      <point x="130" y="78" type="line"/>
      <point x="207" y="97" type="line"/>
      <point x="237" y="84"/>
      <point x="263" y="64.3333"/>
      <point x="288.667" y="64.3333" type="curve" smooth="yes" name="n05"/>
      <point x="306.667" y="64.3333"/>
      <point x="330.667" y="77.6667"/>
      <point x="343" y="96.6667" type="curve"/>
      <point x="405.333" y="111.667" type="line"/>
      <point x="418" y="92.3333"/>
      <point x="423.667" y="67"/>
      <point x="423.667" y="42" type="curve" smooth="yes" name="n12"/>
      <point x="423.667" y="-20.6667"/>
      <point x="375" y="-96.3333"/>
      <point x="315.667" y="-142.667" type="curve" name="n15"/>
      <point x="271.333" y="-142.667" type="line"/>
      <point x="308.333" y="-107"/>
      <point x="337" y="-58.3333"/>
      <point x="337" y="-17" type="curve" smooth="yes" name="n19"/>
      <point x="337" y="-7.33333"/>
      <point x="334.333" y="1.66667"/>
      <point x="332.333" y="10" type="curve"/>
      <point x="310" y="-2.33333"/>
      <point x="282.333" y="-11.6667"/>
      <point x="258.667" y="-11.6667" type="curve" smooth="yes" name="n25"/>
      <point x="200.667" y="-11.6667"/>
      <point x="156.667" y="31"/>
      <point x="117" y="31" type="curve" smooth="yes"/>
      <point x="110.667" y="31"/>
      <point x="100" y="30.3333"/>
      <point x="92.6667" y="22.3333" type="curve"/>
      <point x="63.6667" y="-30.3333" type="line"/>
      <point x="-16" y="12.6667" type="line"/>
      <point x="320" y="404" type="line"/>
      <point x="240.333" y="387" type="line"/>
      <point x="210.667" y="403.333"/>
      <point x="183.333" y="417"/>
      <point x="157.667" y="417" type="curve" smooth="yes" name="n38"/>
      <point x="141.667" y="417"/>
      <point x="110.667" y="405"/>
      <point x="100.333" y="388" type="curve"/>
      <point x="155.333" y="324.333" type="line"/>
      <point x="150" y="315.333"/>
      <point x="123" y="289.333" name="hr01"/>
      <point x="93.3333" y="289.333" type="curve" smooth="yes" name="n45"/>
      <point x="53.6667" y="289.333"/>
      <point x="36" y="327.667"/>
      <point x="36" y="353.333" type="curve" smooth="yes"/>
      <point x="36" y="415.333"/>
      <point x="98" y="496"/>
      <point x="187.667" y="496" type="curve" smooth="yes" name="n51"/>
      <point x="249.667" y="496"/>
      <point x="304.333" y="448.333"/>
      <point x="333.333" y="448.333" type="curve" smooth="yes"/>
      <point x="339" y="448.333"/>
      <point x="346" y="449.333"/>
      <point x="355.667" y="455" type="curve"/>
      <point x="379.333" y="513.333" type="line"/>
    </contour>
  </outline>
</glyph>
<glyph name="uni023D" format="2">
  <advance width="532"/>
  <unicode hex="023D"/>
  <outline>
    <contour>
      <point x="498" y="190.667" type="line"/>
      <point x="460.667" y="0" type="line" name="n01"/>
      <point x="-15" y="0" type="line"/>
      <point x="-15" y="44.6667" type="line"/>
      <point x="3.18822" y="46.4588"/>
      <point x="42.6667" y="49.3333"/>
      <point x="42.6667" y="49.3333" type="curve"/>
      <point x="57.6667" y="50.6667"/>
      <point x="65" y="55.3333"/>
      <point x="67" y="67.6667" type="curve"/>
      <point x="116.667" y="321.333" type="line" name="n10"/>
      <point x="5.66667" y="321.333" type="line"/>
      <point x="13" y="380.333" type="line"/>
      <point x="128.333" y="380.333" type="line" name="n13"/>
      <point x="171" y="603" type="line" smooth="yes"/>
      <point x="173.399" y="613.988"/>
      <point x="168" y="620.333"/>
      <point x="153" y="621.333" type="curve"/>
      <point x="153" y="621.333"/>
      <point x="114.857" y="624.513"/>
      <point x="96" y="626.333" type="curve"/>
      <point x="96" y="671" type="line" name="n21"/>
      <point x="370" y="671" type="line"/>
      <point x="370" y="626.333" type="line"/>
      <point x="349.004" y="624.486"/>
      <point x="309" y="621.333"/>
      <point x="309" y="621.333" type="curve"/>
      <point x="296" y="620.333"/>
      <point x="288.333" y="613.333"/>
      <point x="286" y="602.667" type="curve" smooth="yes"/>
      <point x="243.333" y="380.333" type="line"/>
      <point x="364" y="380.333" type="line"/>
      <point x="356" y="321.333" type="line"/>
      <point x="231.667" y="321.333" type="line"/>
      <point x="180" y="53.3333" type="line"/>
      <point x="370" y="53.3333" type="line" smooth="yes" name="n35"/>
      <point x="382" y="53.3333"/>
      <point x="392.481" y="60.619"/>
      <point x="396" y="71.3333" type="curve" smooth="yes"/>
      <point x="433.667" y="190.667" type="line" name="n39"/>
    </contour>
  </outline>
</glyph>
<glyph name="uni023F" format="2">
  <advance width="385"/>
  <unicode hex="023F"/>
  <outline>
    <contour>
      <point x="364" y="428.333" type="curve" smooth="yes"/>
      <point x="364" y="381"/>
      <point x="322.667" y="371"/>
      <point x="288" y="368.667" type="curve"/>
      <point x="241" y="438.333" type="line"/>
      <point x="236.333" y="441"/>
      <point x="227.667" y="445"/>
      <point x="215.667" y="445" type="curve" smooth="yes" name="n07"/>
      <point x="176" y="445"/>
      <point x="162.333" y="409"/>
      <point x="162.333" y="380" type="curve" smooth="yes" name="n10"/>
      <point x="162.333" y="342.333"/>
      <point x="205" y="305.667"/>
      <point x="245.333" y="273" type="curve" smooth="yes"/>
      <point x="289.667" y="236.667"/>
      <point x="338" y="197.333"/>
      <point x="338" y="146" type="curve" smooth="yes" name="n16"/>
      <point x="338" y="43"/>
      <point x="239" y="-12"/>
      <point x="144" y="-12" type="curve" smooth="yes" name="n19"/>
      <point x="135.667" y="-12"/>
      <point x="107.333" y="-11.3333"/>
      <point x="99.6667" y="-9" type="curve"/>
      <point x="132.333" y="-43"/>
      <point x="169.333" y="-158"/>
      <point x="206" y="-171" type="curve" name="n25"/>
      <point x="286.667" y="-107.333" type="line"/>
      <point x="302.333" y="-110"/>
      <point x="315" y="-130"/>
      <point x="315" y="-155" type="curve" smooth="yes"/>
      <point x="315" y="-197"/>
      <point x="275.333" y="-231"/>
      <point x="228" y="-231" type="curve" smooth="yes" name="n32"/>
      <point x="94.6667" y="-231"/>
      <point x="73" y="13.6667" name="hr01"/>
      <point x="-11.3333" y="13.6667" type="curve" name="n35"/>
      <point x="17" y="153" type="line" name="n36"/>
      <point x="66.6667" y="153" type="line"/>
      <point x="73.3333" y="60.3333"/>
      <point x="107" y="31" name="hr02"/>
      <point x="153.667" y="31" type="curve" smooth="yes" name="n40"/>
      <point x="208.667" y="31"/>
      <point x="232.333" y="72"/>
      <point x="232.333" y="112" type="curve" smooth="yes" name="n43"/>
      <point x="232.333" y="159.667"/>
      <point x="184.667" y="189"/>
      <point x="139.667" y="227.333" type="curve" smooth="yes"/>
      <point x="101.333" y="259.333"/>
      <point x="68.6667" y="299.333"/>
      <point x="68.6667" y="344" type="curve" smooth="yes" name="n49"/>
      <point x="68.6667" y="439"/>
      <point x="162.667" y="496"/>
      <point x="257.333" y="496" type="curve" smooth="yes" name="n52"/>
      <point x="330.333" y="496"/>
      <point x="364" y="455"/>
    </contour>
  </outline>
</glyph>
<glyph name="uni0240" format="2">
  <advance width="460"/>
  <unicode hex="0240"/>
  <outline>
    <contour>
      <point x="466" y="468.667" type="line"/>
      <point x="126.667" y="74" type="line"/>
      <point x="134.333" y="74"/>
      <point x="165.667" y="72.3333"/>
      <point x="194" y="48" type="curve" smooth="yes"/>
      <point x="242.667" y="5"/>
      <point x="281.333" y="-112.667"/>
      <point x="320" y="-163.667" type="curve"/>
      <point x="395" y="-106.667" type="line"/>
      <point x="413.333" y="-110"/>
      <point x="426" y="-130.333"/>
      <point x="426" y="-151.333" type="curve" smooth="yes"/>
      <point x="426" y="-193.667"/>
      <point x="385.333" y="-229" name="n13"/>
      <point x="335" y="-229" type="curve" smooth="yes"/>
      <point x="223.333" y="-229"/>
      <point x="165" y="6"/>
      <point x="90.3333" y="6" type="curve"/>
      <point x="63.6667" y="-30.3333" type="line"/>
      <point x="-16" y="12.6667" type="line"/>
      <point x="320" y="404" type="line"/>
      <point x="240.333" y="387" type="line"/>
      <point x="210.667" y="403.333"/>
      <point x="183.333" y="417"/>
      <point x="157.667" y="417" type="curve" smooth="yes" name="n24"/>
      <point x="141.667" y="417"/>
      <point x="110.667" y="405"/>
      <point x="100.333" y="388" type="curve"/>
      <point x="155.333" y="324.333" type="line"/>
      <point x="150" y="315.333"/>
      <point x="123" y="289.333" name="hr01"/>
      <point x="93.3333" y="289.333" type="curve" smooth="yes" name="n31"/>
      <point x="53.6667" y="289.333"/>
      <point x="36" y="327.667"/>
      <point x="36" y="353.333" type="curve" smooth="yes"/>
      <point x="36" y="415.333"/>
      <point x="98" y="496"/>
      <point x="187.667" y="496" type="curve" smooth="yes" name="n37"/>
      <point x="250.333" y="496"/>
      <point x="302.333" y="448.333"/>
      <point x="333.333" y="448.333" type="curve" smooth="yes"/>
      <point x="339" y="448.333"/>
      <point x="346" y="449.333"/>
      <point x="355.667" y="455" type="curve"/>
      <point x="379.333" y="513.333" type="line"/>
    </contour>
  </outline>
</glyph>
<glyph name="uni0245" format="2">
  <advance width="657"/>
  <unicode hex="0245"/>
  <outline>
    <contour>
      <point x="603.667" y="0" type="line" name="n00"/>
      <point x="362.667" y="0" type="line"/>
      <point x="362.667" y="45" type="line"/>
      <point x="376.361" y="45.6447"/>
      <point x="406.333" y="46.6667"/>
      <point x="406.333" y="46.6667" type="curve"/>
      <point x="419.667" y="47.3333"/>
      <point x="427.667" y="51.3333"/>
      <point x="425.667" y="64.3333" type="curve" smooth="yes"/>
      <point x="353.667" y="526.667" type="line"/>
      <point x="110.667" y="64.3333" type="line" smooth="yes"/>
      <point x="105" y="54"/>
      <point x="109.667" y="47.6667"/>
      <point x="125.333" y="46.6667" type="curve"/>
      <point x="125.333" y="46.6667"/>
      <point x="159.482" y="45.6402"/>
      <point x="174.667" y="45" type="curve"/>
      <point x="174.667" y="0" type="line"/>
      <point x="-43.3333" y="0" type="line"/>
      <point x="-43.3333" y="44.6667" type="line"/>
      <point x="10.3333" y="50.6667" type="line"/>
      <point x="355.333" y="687" type="line" name="n21"/>
      <point x="444.333" y="687" type="line"/>
      <point x="541.667" y="64.6667" type="line" smooth="yes"/>
      <point x="543.667" y="52.3333"/>
      <point x="552.653" y="47.4569"/>
      <point x="565.333" y="47" type="curve"/>
      <point x="565.333" y="47"/>
      <point x="592.476" y="45.624"/>
      <point x="603.667" y="45" type="curve" name="n29"/>
    </contour>
  </outline>
</glyph>
<glyph name="uni0246" format="2">
  <advance width="572"/>
  <unicode hex="0246"/>
  <outline>
    <contour>
      <point x="380.333" y="464" type="line"/>
      <point x="207.333" y="201" type="line"/>
      <point x="205.333" y="205.667" type="line"/>
      <point x="370.667" y="467.333" type="line"/>
    </contour>
    <contour>
      <point x="594.333" y="671" type="line" name="n04"/>
      <point x="563.667" y="518.333" type="line" name="n05"/>
      <point x="494.333" y="518.333" type="line"/>
      <point x="494.333" y="600.667" type="line" smooth="yes"/>
      <point x="494.333" y="613.333"/>
      <point x="487.667" y="617.667" name="hr01"/>
      <point x="474" y="617.667" type="curve" smooth="yes" name="n10"/>
      <point x="288.667" y="617.667" type="line"/>
      <point x="243" y="376.333" type="line"/>
      <point x="370" y="376.333" type="line" smooth="yes" name="n13"/>
      <point x="382.667" y="376.333"/>
      <point x="392.333" y="381.333"/>
      <point x="396" y="394" type="curve" smooth="yes"/>
      <point x="415.667" y="462" type="line"/>
      <point x="477.333" y="462" type="line"/>
      <point x="432.667" y="231" type="line"/>
      <point x="370" y="231" type="line" name="n20"/>
      <point x="380" y="303.333" type="line"/>
      <point x="381.89" y="314.683"/>
      <point x="372.333" y="321.333" name="hr02"/>
      <point x="360" y="321.333" type="curve" smooth="yes" name="n24"/>
      <point x="231.667" y="321.333" type="line"/>
      <point x="180.333" y="53.3333" type="line"/>
      <point x="408" y="53.3333" type="line" smooth="yes" name="n27"/>
      <point x="420.667" y="53.3333"/>
      <point x="430.409" y="60.6419"/>
      <point x="434" y="71.3333" type="curve" smooth="yes"/>
      <point x="465.333" y="168.667" type="line" name="n31"/>
      <point x="532.333" y="168.667" type="line"/>
      <point x="498.667" y="0" type="line" name="n33"/>
      <point x="-15" y="0" type="line"/>
      <point x="-15" y="44.6667" type="line"/>
      <point x="4.68066" y="46.5012"/>
      <point x="43.6667" y="49.6667"/>
      <point x="43.6667" y="49.6667" type="curve"/>
      <point x="57.3333" y="50.6667"/>
      <point x="65" y="55.3333"/>
      <point x="67" y="67.6667" type="curve"/>
      <point x="171" y="603" type="line" smooth="yes"/>
      <point x="173.333" y="614.333"/>
      <point x="168" y="620.333"/>
      <point x="152.333" y="621.333" type="curve"/>
      <point x="152.333" y="621.333"/>
      <point x="113.861" y="624.542"/>
      <point x="96" y="626.333" type="curve"/>
      <point x="96" y="671" type="line"/>
    </contour>
  </outline>
</glyph>
<glyph name="uni0247" format="2">
  <advance width="449"/>
  <unicode hex="0247"/>
  <outline>
    <contour>
      <point x="432.333" y="393.667" type="curve" smooth="yes"/>
      <point x="432.333" y="286"/>
      <point x="270.667" y="228"/>
      <point x="147" y="219.667" type="curve"/>
      <point x="145.333" y="207"/>
      <point x="143.333" y="187"/>
      <point x="143.333" y="175.333" type="curve" smooth="yes" name="n06"/>
      <point x="143.333" y="103.667"/>
      <point x="174.333" y="51.3333"/>
      <point x="231.667" y="51.3333" type="curve" smooth="yes" name="n09"/>
      <point x="276" y="51.3333"/>
      <point x="324" y="84"/>
      <point x="409.333" y="158.333" type="curve"/>
      <point x="409.333" y="84.6667" type="line"/>
      <point x="371.667" y="48"/>
      <point x="291.667" y="-12"/>
      <point x="198.667" y="-12" type="curve" smooth="yes" name="n16"/>
      <point x="129" y="-12"/>
      <point x="32.3333" y="20.6667"/>
      <point x="32.3333" y="171.333" type="curve" smooth="yes" name="n19"/>
      <point x="32.3333" y="327.333"/>
      <point x="152" y="495.333"/>
      <point x="304.333" y="495.333" type="curve" smooth="yes" name="n22"/>
      <point x="398.333" y="495.333"/>
      <point x="432.333" y="423"/>
    </contour>
    <contour>
      <point x="329.667" y="394.667" type="curve" smooth="yes"/>
      <point x="329.667" y="419.667"/>
      <point x="314" y="446"/>
      <point x="282" y="446" type="curve" smooth="yes" name="n28"/>
      <point x="217.333" y="446"/>
      <point x="170" y="337.333"/>
      <point x="152" y="262.333" type="curve"/>
      <point x="231.667" y="273"/>
      <point x="329.667" y="327"/>
    </contour>
    <contour>
      <point x="470.667" y="528.333" type="line"/>
      <point x="79.3333" y="-88.6667" type="line"/>
      <point x="37.6667" y="-60.6667" type="line"/>
      <point x="425.333" y="555.667" type="line"/>
    </contour>
  </outline>
</glyph>
<glyph name="uni024D" format="2">
  <advance width="389"/>
  <unicode hex="024D"/>
  <outline>
    <contour>
      <point x="424.667" y="427.667" type="curve" smooth="yes"/>
      <point x="424.667" y="381"/>
      <point x="392.333" y="369.333"/>
      <point x="333.667" y="369.333" type="curve" name="n03"/>
      <point x="308.667" y="419.333" type="line"/>
      <point x="260" y="397"/>
      <point x="202" y="329.333"/>
      <point x="182.333" y="272.667" type="curve"/>
      <point x="275.333" y="272.667" type="line" name="n08"/>
      <point x="275.333" y="219.333" type="line" name="n09"/>
      <point x="170" y="219.333" type="line"/>
      <point x="125" y="0" type="line" name="n11"/>
      <point x="18.6667" y="0" type="line"/>
      <point x="63.6667" y="219.333" type="line"/>
      <point x="1" y="219.333" type="line"/>
      <point x="1" y="272.667" type="line"/>
      <point x="74.6667" y="272.667" type="line"/>
      <point x="105.333" y="424.333" type="line"/>
      <point x="21.3333" y="433.333" type="line"/>
      <point x="21.3333" y="464.333" type="line"/>
      <point x="177.333" y="496" type="line"/>
      <point x="227" y="496" type="line"/>
      <point x="208.667" y="406.333" type="line"/>
      <point x="248" y="460.667"/>
      <point x="300" y="496"/>
      <point x="356.667" y="496" type="curve" smooth="yes" name="n25"/>
      <point x="406" y="496"/>
      <point x="424.667" y="455.333"/>
    </contour>
  </outline>
</glyph>
<glyph name="uni024E" format="2">
  <advance width="675"/>
  <unicode hex="024E"/>
  <outline>
    <contour>
      <point x="730.333" y="626.333" type="line"/>
      <point x="671.667" y="622" type="line"/>
      <point x="662.667" y="621"/>
      <point x="652.667" y="612.667"/>
      <point x="648.333" y="608" type="curve"/>
      <point x="588" y="530" type="line"/>
      <point x="648" y="530" type="line" name="n06"/>
      <point x="648" y="478.667" type="line" name="n07"/>
      <point x="547.667" y="478.667" type="line"/>
      <point x="394.333" y="281" type="line"/>
      <point x="352.333" y="67.3333" type="line"/>
      <point x="349.333" y="56.6667"/>
      <point x="355" y="50.6667"/>
      <point x="371" y="49.6667" type="curve"/>
      <point x="371" y="49.6667"/>
      <point x="408.814" y="46.4868"/>
      <point x="427.333" y="44.6667" type="curve"/>
      <point x="427.333" y="0" type="line" name="n17"/>
      <point x="153.333" y="0" type="line"/>
      <point x="153.333" y="44.6667" type="line"/>
      <point x="171.511" y="46.4579"/>
      <point x="211" y="49.6667"/>
      <point x="211" y="49.6667" type="curve"/>
      <point x="223.333" y="50.6667"/>
      <point x="232.333" y="55.3333"/>
      <point x="235.333" y="67.6667" type="curve"/>
      <point x="276.333" y="272.333" type="line"/>
      <point x="207.667" y="478.667" type="line"/>
      <point x="116.333" y="478.667" type="line"/>
      <point x="116.333" y="530" type="line"/>
      <point x="190" y="530" type="line"/>
      <point x="164.333" y="608.333" type="line"/>
      <point x="160.667" y="620.667"/>
      <point x="152" y="621.333"/>
      <point x="143.333" y="622.333" type="curve"/>
      <point x="143.333" y="622.333"/>
      <point x="105.592" y="625.053"/>
      <point x="89.3333" y="626.333" type="curve"/>
      <point x="89.3333" y="671" type="line"/>
      <point x="362.333" y="671" type="line"/>
      <point x="362.333" y="626.333" type="line"/>
      <point x="342.009" y="625.021"/>
      <point x="299" y="622.333"/>
      <point x="299" y="622.333" type="curve"/>
      <point x="288" y="621.667"/>
      <point x="280" y="615.333"/>
      <point x="284.333" y="603.667" type="curve"/>
      <point x="307.333" y="530" type="line"/>
      <point x="490.333" y="530" type="line"/>
      <point x="545.667" y="604" type="line"/>
      <point x="551" y="611.667"/>
      <point x="552.667" y="621.333"/>
      <point x="536.333" y="622.333" type="curve" smooth="yes"/>
      <point x="475.333" y="626.333" type="line"/>
      <point x="475.333" y="671" type="line"/>
      <point x="730.333" y="671" type="line"/>
    </contour>
    <contour>
      <point x="323.667" y="478.667" type="line"/>
      <point x="362" y="358" type="line"/>
      <point x="452" y="478.667" type="line"/>
    </contour>
  </outline>
</glyph>
<glyph name="uni0250" format="2">
  <advance width="536"/>
  <unicode hex="0250"/>
  <outline>
    <contour>
      <point x="504.667" y="315" type="curve" smooth="yes" name="n00"/>
      <point x="504.667" y="162.667"/>
      <point x="404.333" y="-12"/>
      <point x="208" y="-12" type="curve" smooth="yes" name="n03"/>
      <point x="173.667" y="-12"/>
      <point x="140.667" y="3"/>
      <point x="121" y="18" type="curve"/>
      <point x="108" y="0" type="line" name="n07"/>
      <point x="27.6667" y="0" type="line"/>
      <point x="33.3333" y="16.6667"/>
      <point x="46" y="48.3333"/>
      <point x="48.6667" y="58.3333" type="curve"/>
      <point x="59.0784" y="102.526"/>
      <point x="112.26" y="353.19"/>
      <point x="113.667" y="389.667" type="curve"/>
      <point x="113.667" y="423"/>
      <point x="101.333" y="433.667"/>
      <point x="75.3333" y="433.667" type="curve" smooth="yes"/>
      <point x="64.3333" y="433.667"/>
      <point x="12.6667" y="418"/>
      <point x="2" y="416" type="curve"/>
      <point x="2" y="456" type="line"/>
      <point x="28.3333" y="466"/>
      <point x="96.6667" y="496"/>
      <point x="139.667" y="496" type="curve" smooth="yes"/>
      <point x="186.333" y="496"/>
      <point x="207.333" y="474.667"/>
      <point x="214.333" y="435.667" type="curve"/>
      <point x="246" y="462"/>
      <point x="296.333" y="496"/>
      <point x="352.333" y="496" type="curve" smooth="yes" name="n30"/>
      <point x="472" y="496"/>
      <point x="504.667" y="388.333"/>
    </contour>
    <contour>
      <point x="391.667" y="309.667" type="curve" smooth="yes" name="n33"/>
      <point x="391.667" y="364.333"/>
      <point x="382.333" y="426.667"/>
      <point x="320" y="426.667" type="curve" smooth="yes" name="n36"/>
      <point x="275.333" y="426.667"/>
      <point x="230.333" y="380"/>
      <point x="216.333" y="366.333" type="curve"/>
      <point x="206.977" y="316.98"/>
      <point x="192.644" y="241.98"/>
      <point x="163.333" y="91.3333" type="curve"/>
      <point x="162.333" y="84.6667"/>
      <point x="182" y="39"/>
      <point x="193.667" y="39" type="curve" smooth="yes" name="n45"/>
      <point x="338.333" y="39"/>
      <point x="391.667" y="198.333"/>
    </contour>
  </outline>
</glyph>
<glyph name="uni0253" format="2">
  <advance width="505"/>
  <unicode hex="0253"/>
  <outline>
    <contour>
      <point x="179" y="126.333" type="curve"/>
      <point x="189" y="138.667"/>
      <point x="204.667" y="282.667"/>
      <point x="135.667" y="325.333" type="curve"/>
      <point x="118.333" y="365.333"/>
      <point x="94" y="408.667"/>
      <point x="110" y="432" type="curve"/>
      <point x="153.191" y="516.184"/>
      <point x="225.988" y="637.358"/>
      <point x="282.667" y="662" type="curve" name="n09"/>
      <point x="321.667" y="677.333"/>
      <point x="339" y="668.333"/>
      <point x="347.667" y="666.333" type="curve"/>
      <point x="364.333" y="658.333"/>
      <point x="348.667" y="657.667"/>
      <point x="381" y="657.667" type="curve"/>
      <point x="395.671" y="668.555"/>
      <point x="387.277" y="683.296"/>
      <point x="381.333" y="677.667" type="curve" name="n18"/>
      <point x="339" y="661.667"/>
      <point x="289.333" y="621.667"/>
      <point x="265" y="559" type="curve"/>
      <point x="256.953" y="539.933"/>
      <point x="234.667" y="512"/>
      <point x="234.667" y="512" type="curve"/>
      <point x="247.333" y="530"/>
      <point x="274.333" y="534.667"/>
      <point x="301" y="520.667" type="curve" name="n27"/>
      <point x="365.333" y="508"/>
      <point x="384" y="418"/>
      <point x="384" y="362.667" type="curve" name="n30"/>
      <point x="396" y="286.333"/>
      <point x="356.667" y="158.667"/>
      <point x="233" y="158.667" type="curve" name="n33"/>
      <point x="231.333" y="158.667"/>
      <point x="210.333" y="134.333"/>
    </contour>
    <contour>
      <point x="198.667" y="151.667" type="curve"/>
      <point x="207.333" y="166.333"/>
      <point x="220.333" y="164.667"/>
      <point x="236.667" y="164.667" type="curve" smooth="yes" name="n39"/>
      <point x="288.667" y="164.667"/>
      <point x="322.333" y="258.667"/>
      <point x="312.333" y="330" type="curve" name="n42"/>
      <point x="306.972" y="361.374"/>
      <point x="263.096" y="319.3"/>
      <point x="245.667" y="311.667" type="curve" name="n45"/>
      <point x="228" y="306"/>
      <point x="201.667" y="285.333"/>
      <point x="190" y="266" type="curve"/>
      <point x="208.058" y="245.404"/>
      <point x="206.074" y="149.029"/>
    </contour>
  </outline>
</glyph>
<glyph name="uni0255" format="2">
  <advance width="449"/>
  <unicode hex="0255"/>
  <outline>
    <contour>
      <point x="418.333" y="422.667" type="curve" smooth="yes"/>
      <point x="418.333" y="397"/>
      <point x="407" y="363.667"/>
      <point x="335.667" y="355.333" type="curve"/>
      <point x="279.333" y="432.667" type="line" name="n04"/>
      <point x="170.667" y="424"/>
      <point x="140.667" y="253.333"/>
      <point x="140.667" y="186.667" type="curve" smooth="yes" name="n07"/>
      <point x="140.667" y="152"/>
      <point x="147.667" y="117"/>
      <point x="164.667" y="93.3333" type="curve"/>
      <point x="196.333" y="157"/>
      <point x="241.333" y="212.667"/>
      <point x="316.667" y="212.667" type="curve" smooth="yes" name="n13"/>
      <point x="359.667" y="212.667"/>
      <point x="396.667" y="185"/>
      <point x="396.667" y="140.667" type="curve" smooth="yes" name="n16"/>
      <point x="396.667" y="46.3333"/>
      <point x="293" y="-12"/>
      <point x="205" y="-12" type="curve" smooth="yes" name="n19"/>
      <point x="199.606" y="-12"/>
      <point x="182.08" y="-11.3333"/>
      <point x="176.667" y="-10.6667" type="curve"/>
      <point x="164.333" y="-48"/>
      <point x="150.667" y="-89.6667"/>
      <point x="143.667" y="-129.667" type="curve" name="n25"/>
      <point x="83.6667" y="-129.667" type="line"/>
      <point x="92" y="-87"/>
      <point x="106" y="-40.6667"/>
      <point x="121" y="2" type="curve"/>
      <point x="64.3333" y="27.6667"/>
      <point x="32" y="86.6667"/>
      <point x="32" y="175" type="curve" smooth="yes" name="n32"/>
      <point x="32" y="352.333"/>
      <point x="159.667" y="496"/>
      <point x="309.333" y="496" type="curve" smooth="yes" name="n35"/>
      <point x="388" y="496"/>
      <point x="418.333" y="457.667"/>
    </contour>
    <contour>
      <point x="331.667" y="135" type="curve" smooth="yes" name="n38"/>
      <point x="331.667" y="148.333"/>
      <point x="324" y="161"/>
      <point x="307.667" y="161" type="curve" smooth="yes" name="n41"/>
      <point x="256.333" y="161"/>
      <point x="223.667" y="104.333"/>
      <point x="203.667" y="58.3333" type="curve"/>
      <point x="211.667" y="57"/>
      <point x="230" y="53.6667"/>
      <point x="239.667" y="53.6667" type="curve" smooth="yes" name="n47"/>
      <point x="278.667" y="53.6667"/>
      <point x="331.667" y="93"/>
    </contour>
  </outline>
</glyph>
<glyph name="uni0258" format="2">
  <advance width="512"/>
  <unicode hex="0258"/>
  <outline>
    <contour>
      <point x="480.667" y="299.667" type="curve" smooth="yes"/>
      <point x="480.667" y="140.667"/>
      <point x="355.333" y="-12"/>
      <point x="179.667" y="-12" type="curve" smooth="yes" name="n03"/>
      <point x="106" y="-12"/>
      <point x="44.6667" y="12.6667"/>
      <point x="5.66667" y="70" type="curve"/>
      <point x="20.3333" y="141.667" type="line"/>
      <point x="69.3333" y="77.3333"/>
      <point x="134.333" y="45"/>
      <point x="193.667" y="45" type="curve" smooth="yes" name="n10"/>
      <point x="299.667" y="45"/>
      <point x="344.667" y="178"/>
      <point x="360.333" y="272" type="curve"/>
      <point x="274.667" y="223.333"/>
      <point x="243.998" y="211.781"/>
      <point x="169" y="210.667" type="curve" smooth="yes" name="n16"/>
      <point x="107.665" y="209.448"/>
      <point x="50" y="240"/>
      <point x="50" y="299.667" type="curve" smooth="yes" name="n19"/>
      <point x="50" y="428"/>
      <point x="155.667" y="496"/>
      <point x="293.667" y="496" type="curve" smooth="yes" name="n22"/>
      <point x="416.333" y="496"/>
      <point x="480.667" y="408"/>
    </contour>
    <contour>
      <point x="364" y="330.667" type="curve"/>
      <point x="360" y="376.667"/>
      <point x="344.667" y="448"/>
      <point x="280.667" y="448" type="curve" smooth="yes" name="n28"/>
      <point x="212.667" y="448"/>
      <point x="160.333" y="389"/>
      <point x="160.333" y="320.333" type="curve" smooth="yes" name="n31"/>
      <point x="160.333" y="285"/>
      <point x="196.333" y="274.667"/>
      <point x="210.667" y="274.667" type="curve" smooth="yes" name="n34"/>
      <point x="252.333" y="274.667"/>
      <point x="294" y="289.667"/>
    </contour>
  </outline>
</glyph>
<glyph name="uni0259" format="2">
  <advance width="449"/>
  <unicode hex="0259"/>
  <outline>
    <contour>
      <point x="417.333" y="311.667" type="curve" smooth="yes" name="n00"/>
      <point x="417.333" y="156.333"/>
      <point x="297.667" y="-12"/>
      <point x="145.333" y="-12" type="curve" smooth="yes" name="n03"/>
      <point x="51.3333" y="-12"/>
      <point x="18" y="60.6667"/>
      <point x="18" y="90.3333" type="curve" smooth="yes" name="n06"/>
      <point x="18" y="198"/>
      <point x="179" y="255.667"/>
      <point x="302.667" y="264.333" type="curve"/>
      <point x="304.333" y="276.333"/>
      <point x="306.333" y="296.333"/>
      <point x="306.333" y="308" type="curve" smooth="yes" name="n12"/>
      <point x="306.333" y="379.667"/>
      <point x="275" y="432.667"/>
      <point x="218" y="432.667" type="curve" smooth="yes" name="n15"/>
      <point x="173.667" y="432.667"/>
      <point x="125.667" y="400"/>
      <point x="41" y="325.667" type="curve"/>
      <point x="41" y="398.333" type="line"/>
      <point x="78" y="436"/>
      <point x="158" y="495.333"/>
      <point x="251" y="495.333" type="curve" smooth="yes" name="n22"/>
      <point x="320.667" y="495.333"/>
      <point x="417.333" y="462.667"/>
    </contour>
    <contour>
      <point x="297.667" y="221" type="curve"/>
      <point x="218" y="210.333"/>
      <point x="120" y="157"/>
      <point x="120" y="89.3333" type="curve" smooth="yes" name="n28"/>
      <point x="120" y="63.6667"/>
      <point x="135.667" y="37"/>
      <point x="167.667" y="37" type="curve" smooth="yes" name="n31"/>
      <point x="232.333" y="37"/>
      <point x="280.333" y="146"/>
    </contour>
  </outline>
</glyph>
<glyph name="uni025A" format="2">
  <advance width="555"/>
  <unicode hex="025A"/>
  <outline>
    <contour>
      <point x="617" y="368.667" type="line"/>
      <point x="601.667" y="330.667"/>
      <point x="576" y="271.333"/>
      <point x="507.333" y="271.333" type="curve" smooth="yes" name="n03"/>
      <point x="461" y="271.333"/>
      <point x="443.667" y="303"/>
      <point x="444" y="338" type="curve" name="n06"/>
      <point x="444" y="365"/>
      <point x="454.667" y="395"/>
      <point x="457" y="403.333" type="curve"/>
      <point x="440.333" y="394"/>
      <point x="413" y="378.667"/>
      <point x="391.333" y="366.333" type="curve"/>
      <point x="395.667" y="345.667"/>
      <point x="398.333" y="325.667"/>
      <point x="398.333" y="303" type="curve" smooth="yes" name="n15"/>
      <point x="398.333" y="147.667"/>
      <point x="300" y="-12"/>
      <point x="137.667" y="-12" type="curve" smooth="yes" name="n18"/>
      <point x="48" y="-12"/>
      <point x="18" y="43.6667"/>
      <point x="18" y="93.3333" type="curve" smooth="yes" name="n21"/>
      <point x="18" y="173.667"/>
      <point x="138.667" y="285.333"/>
      <point x="280.667" y="357.333" type="curve"/>
      <point x="266" y="402.667"/>
      <point x="241.667" y="432.667"/>
      <point x="205.667" y="432.667" type="curve" smooth="yes" name="n27"/>
      <point x="160.333" y="432.667"/>
      <point x="106.333" y="394.333"/>
      <point x="41" y="331.667" type="curve"/>
      <point x="41" y="402" type="line"/>
      <point x="85" y="447.667"/>
      <point x="149" y="496"/>
      <point x="236.667" y="496" type="curve" smooth="yes" name="n34"/>
      <point x="270" y="496"/>
      <point x="338.667" y="477.667"/>
      <point x="376" y="407.667" type="curve"/>
      <point x="419.333" y="432.667"/>
      <point x="459" y="454.333"/>
      <point x="486.667" y="470.333" type="curve"/>
      <point x="517.667" y="449" type="line"/>
      <point x="497" y="371" type="line" smooth="yes"/>
      <point x="489.333" y="342"/>
      <point x="486.333" y="311.333"/>
      <point x="515.333" y="311.333" type="curve" smooth="yes" name="n45"/>
      <point x="538" y="311.333"/>
      <point x="554.667" y="337.667"/>
      <point x="563.667" y="356.667" type="curve"/>
      <point x="565.215" y="360.266"/>
      <point x="572.631" y="374.66"/>
      <point x="581" y="394.667" type="curve"/>
    </contour>
    <contour>
      <point x="288" y="308.333" type="curve"/>
      <point x="193.333" y="255"/>
      <point x="116" y="174.333"/>
      <point x="116" y="97.3333" type="curve" smooth="yes" name="n55"/>
      <point x="116" y="72.3333"/>
      <point x="127.333" y="38.3333"/>
      <point x="158.667" y="38.3333" type="curve" smooth="yes" name="n58"/>
      <point x="261.333" y="38.3333"/>
      <point x="289.333" y="227.333"/>
    </contour>
  </outline>
</glyph>
<glyph name="uni0260" format="2">
  <advance width="574"/>
  <unicode hex="0260"/>
  <outline>
    <contour>
      <point x="555" y="540.667" type="curve" smooth="yes"/>
      <point x="448.333" y="3.66667" type="line"/>
      <point x="420" y="-134.333"/>
      <point x="312.667" y="-229"/>
      <point x="161.667" y="-229" type="curve" smooth="yes" name="n04"/>
      <point x="104.333" y="-229"/>
      <point x="-12.6667" y="-211"/>
      <point x="-12.6667" y="-135" type="curve" smooth="yes"/>
      <point x="-12.6667" y="-97"/>
      <point x="17.3333" y="-59.3333"/>
      <point x="58.3333" y="-59.3333" type="curve" smooth="yes"/>
      <point x="70" y="-59.3333"/>
      <point x="80.6667" y="-60.3333"/>
      <point x="89" y="-64.6667" type="curve"/>
      <point x="106.333" y="-150.667" type="line"/>
      <point x="118.667" y="-161.667"/>
      <point x="150.333" y="-177"/>
      <point x="167.667" y="-177" type="curve" smooth="yes" name="n17"/>
      <point x="293.333" y="-177"/>
      <point x="327.667" y="-69.3333"/>
      <point x="350" y="45.3333" type="curve"/>
      <point x="302" y="15.3333"/>
      <point x="247.333" y="-12"/>
      <point x="190.667" y="-12" type="curve" smooth="yes" name="n23"/>
      <point x="76" y="-12"/>
      <point x="32" y="71"/>
      <point x="32" y="166.667" type="curve" smooth="yes"/>
      <point x="32" y="338.667"/>
      <point x="161.667" y="496"/>
      <point x="350" y="496" type="curve" smooth="yes" name="n29"/>
      <point x="378" y="496"/>
      <point x="410" y="483.333"/>
      <point x="433.667" y="463.333" type="curve"/>
      <point x="466" y="634"/>
      <point x="566.333" y="741.667" name="n34"/>
      <point x="696.333" y="741.667" type="curve" smooth="yes"/>
      <point x="756" y="741.667"/>
      <point x="778" y="713"/>
      <point x="778" y="679.667" type="curve" smooth="yes"/>
      <point x="778" y="637.333"/>
      <point x="728.667" y="626.667"/>
      <point x="712.667" y="622" type="curve"/>
      <point x="635.333" y="686.333" type="line"/>
      <point x="606" y="668.667"/>
      <point x="572.333" y="627.667"/>
    </contour>
    <contour>
      <point x="421" y="403" type="line"/>
      <point x="404.667" y="424"/>
      <point x="374.667" y="444.333"/>
      <point x="347" y="444.333" type="curve" smooth="yes" name="n48"/>
      <point x="223.667" y="444.333"/>
      <point x="148.333" y="308"/>
      <point x="148.333" y="189.667" type="curve" smooth="yes"/>
      <point x="148.333" y="118"/>
      <point x="178" y="60.6667"/>
      <point x="255.667" y="60.6667" type="curve" smooth="yes" name="n54"/>
      <point x="292" y="60.6667"/>
      <point x="327.333" y="75.3333"/>
      <point x="359" y="93.3333" type="curve"/>
    </contour>
  </outline>
</glyph>
<glyph name="uni0263" format="2">
  <advance width="475"/>
  <unicode hex="0263"/>
  <outline>
    <contour>
      <point x="482" y="434.667" type="curve" smooth="yes"/>
      <point x="482" y="401.333"/>
      <point x="467" y="372.667"/>
      <point x="461" y="359.667" type="curve"/>
      <point x="399" y="247"/>
      <point x="337" y="161"/>
      <point x="242" y="58" type="curve"/>
      <point x="244" y="41.3333"/>
      <point x="257.333" y="-89.6667"/>
      <point x="257.333" y="-102.667" type="curve" smooth="yes" name="n09"/>
      <point x="257.333" y="-161.667"/>
      <point x="194.667" y="-229"/>
      <point x="128.667" y="-229" type="curve" smooth="yes" name="n12"/>
      <point x="62.3333" y="-229"/>
      <point x="15" y="-194.333"/>
      <point x="15" y="-132.333" type="curve" smooth="yes" name="n15"/>
      <point x="15" y="-71.6667"/>
      <point x="91.3333" y="11.3333"/>
      <point x="139.667" y="49.3333" type="curve"/>
      <point x="129.667" y="146"/>
      <point x="118.667" y="322.333"/>
      <point x="95.6667" y="408.667" type="curve"/>
      <point x="91.3333" y="423.333"/>
      <point x="84.3333" y="427.333"/>
      <point x="69.6667" y="427.667" type="curve"/>
      <point x="69.6667" y="427.667"/>
      <point x="22.404" y="430.043"/>
      <point x="1.66667" y="431" type="curve"/>
      <point x="1.66667" y="462" type="line"/>
      <point x="112.333" y="496" type="line"/>
      <point x="171.333" y="495"/>
      <point x="199" y="471.667"/>
      <point x="204" y="423.667" type="curve" smooth="yes"/>
      <point x="234" y="131" type="line"/>
      <point x="303.333" y="214.667"/>
      <point x="349" y="278"/>
      <point x="378" y="352" type="curve"/>
      <point x="349.333" y="472.333" type="line"/>
      <point x="363.667" y="486.667"/>
      <point x="387.333" y="496"/>
      <point x="414.333" y="496" type="curve" smooth="yes"/>
      <point x="457.667" y="496"/>
      <point x="482" y="471.667"/>
    </contour>
    <contour>
      <point x="152.667" y="-93" type="curve" smooth="yes" name="n43"/>
      <point x="152.667" y="-85.6667"/>
      <point x="147.333" y="-41.3333"/>
      <point x="145.333" y="-24.3333" type="curve"/>
      <point x="126" y="-40.6667"/>
      <point x="78.3333" y="-104"/>
      <point x="78.3333" y="-124" type="curve" smooth="yes" name="n49"/>
      <point x="78.3333" y="-143.333"/>
      <point x="90.6667" y="-161"/>
      <point x="109.667" y="-161" type="curve" smooth="yes" name="n52"/>
      <point x="131" y="-161"/>
      <point x="152.667" y="-139.667"/>
    </contour>
  </outline>
</glyph>
<glyph name="uni0266" format="2">
  <advance width="537"/>
  <unicode hex="0266"/>
  <outline>
    <contour>
      <point x="551" y="648.333" type="curve" smooth="yes"/>
      <point x="551" y="611"/>
      <point x="521" y="579.333"/>
      <point x="482.667" y="579.333" type="curve" smooth="yes"/>
      <point x="466" y="579.333"/>
      <point x="452.333" y="585.667"/>
      <point x="452.333" y="585.667" type="curve"/>
      <point x="435" y="669.667" type="line"/>
      <point x="425.667" y="678.667"/>
      <point x="401" y="682"/>
      <point x="383" y="682" type="curve" smooth="yes" name="n10"/>
      <point x="323.333" y="682"/>
      <point x="255" y="630"/>
      <point x="231.667" y="519.333" type="curve" smooth="yes"/>
      <point x="211.667" y="427.333" type="line"/>
      <point x="253" y="465.667"/>
      <point x="318.667" y="496"/>
      <point x="383" y="496" type="curve" smooth="yes" name="n17"/>
      <point x="465" y="496"/>
      <point x="502.333" y="447"/>
      <point x="484.667" y="359" type="curve" smooth="yes"/>
      <point x="428.667" y="91.3333" type="line" smooth="yes"/>
      <point x="421" y="55"/>
      <point x="453.333" y="44"/>
      <point x="465" y="44" type="curve" smooth="yes"/>
      <point x="486" y="44"/>
      <point x="508.667" y="55.6667"/>
      <point x="534.667" y="66" type="curve"/>
      <point x="535" y="26" type="line"/>
      <point x="507.667" y="14"/>
      <point x="440" y="-12" name="n30"/>
      <point x="395" y="-12" type="curve" smooth="yes"/>
      <point x="363.333" y="-12"/>
      <point x="304.333" y="1.33333"/>
      <point x="315.333" y="54.6667" type="curve" smooth="yes"/>
      <point x="375.333" y="348.333" type="line" smooth="yes"/>
      <point x="386" y="399.667"/>
      <point x="349.333" y="426.667"/>
      <point x="328" y="426.667" type="curve" smooth="yes" name="n38"/>
      <point x="296" y="426.667"/>
      <point x="238.667" y="394.667"/>
      <point x="195.667" y="350" type="curve"/>
      <point x="123.333" y="0" type="line" name="n42"/>
      <point x="17" y="0" type="line"/>
      <point x="125.333" y="521.667" type="line" smooth="yes"/>
      <point x="136.333" y="574"/>
      <point x="211.333" y="737"/>
      <point x="388" y="737" type="curve" smooth="yes" name="n47"/>
      <point x="500.333" y="737"/>
      <point x="551" y="707"/>
    </contour>
  </outline>
</glyph>
